<?xml version="1.0" encoding="utf-8"?>
<!-- Generator: Adobe Illustrator 25.4.1, SVG Export Plug-In . SVG Version: 6.00 Build 0)  -->
<svg version="1.1" id="Layer_1" xmlns="http://www.w3.org/2000/svg" xmlns:xlink="http://www.w3.org/1999/xlink" x="0px" y="0px"
	 viewBox="0 0 85.04 141.73" style="enable-background:new 0 0 85.04 141.73;" xml:space="preserve">
<g>
	<g>
		<path d="M8.61,44.26C2.2,47.98-2.39,56.61,4.77,62.25c6.39,5.03,18.67,3.11,24.46-2.1c6.31-5.68,1.92-14.36-4.08-18.23
			C17.66,37.1,7.92,39.44,4.2,47.73c-0.81,1.81,1.57,3.29,2.7,1.58c2.84-4.33,7.87-5.78,12.77-4.52c5.85,1.51,13.45,9.24,5.55,13.73
			c-3.66,2.08-11.34,2.69-15.32,1.26c-7.35-2.64-4.83-10.14-0.11-13.99C10.66,45.08,9.54,43.71,8.61,44.26L8.61,44.26z"/>
	</g>
</g>
<g>
	<g>
		<path d="M8.74,53.61c0.01,0.04,0.02,0.07,0.03,0.11c0.05,0.15,0.12,0.32,0.2,0.46c0.08,0.13,0.19,0.27,0.3,0.37
			c0.11,0.11,0.25,0.23,0.4,0.29c0.18,0.11,0.37,0.18,0.58,0.19c0.21,0.05,0.42,0.04,0.62-0.03c0.36-0.1,0.76-0.38,0.93-0.72
			c0.19-0.36,0.29-0.8,0.16-1.2c-0.12-0.36-0.35-0.78-0.72-0.93c-0.03-0.01-0.05-0.02-0.07-0.04c0.11,0.08,0.21,0.16,0.32,0.24
			c-0.02-0.02-0.04-0.03-0.06-0.06c0.08,0.11,0.16,0.21,0.24,0.32c-0.02-0.03-0.04-0.06-0.06-0.09c0.05,0.12,0.11,0.25,0.16,0.37
			c-0.01-0.04-0.02-0.07-0.03-0.11c-0.07-0.37-0.4-0.75-0.72-0.93c-0.33-0.2-0.83-0.28-1.2-0.16c-0.38,0.12-0.74,0.36-0.93,0.72
			C8.7,52.8,8.66,53.18,8.74,53.61L8.74,53.61z"/>
	</g>
</g>
<g>
	<g>
		<path d="M22.78,54.67c2.56,0,2.57-3.98,0-3.98C20.21,50.69,20.21,54.67,22.78,54.67L22.78,54.67z"/>
	</g>
</g>
<g>
	<g>
		<path d="M14.22,57.99c0.5,0.32,0.95,0.64,1.56,0.67c0.68,0.03,1.25-0.13,1.81-0.49c0.94-0.6,0.12-1.97-0.87-1.48
			c-0.37,0.18-0.76,0.35-1.15,0.5c-0.42,0.16-0.81,0.4-1.26,0.44C14.13,57.64,14.05,57.88,14.22,57.99L14.22,57.99z"/>
	</g>
</g>
<g>
	<g>
		<path d="M63.62,9.36c-4.74-7.02-14.95,1.4-17.67,6.51c-4.68,8.77,2.13,16.57,10.31,19.41c8.07,2.8,18.72-0.12,20.53-9.52
			c1.67-8.66-7.93-18.92-16.28-19.7c-1.85-0.17-2.94,2.54-1.55,3.73c3.37,2.91,7.37,4.79,9.99,8.58c4.26,6.15,0.64,12.86-6.99,12.57
			c-5.19-0.2-13.5-4.07-12.38-10.43c0.8-4.54,8.04-11.3,13.12-9.93C63.35,10.74,64.03,9.97,63.62,9.36L63.62,9.36z"/>
	</g>
</g>
<g>
	<g>
		<path d="M55.25,23.1c0.38,0,0.78-0.17,1.05-0.43c0.14-0.13,0.25-0.29,0.31-0.48c0.09-0.18,0.14-0.37,0.13-0.57
			c-0.02-0.38-0.14-0.78-0.43-1.05c-0.29-0.27-0.65-0.43-1.05-0.43c-0.38,0-0.78,0.17-1.05,0.43c-0.14,0.13-0.25,0.29-0.31,0.48
			c-0.09,0.18-0.14,0.37-0.13,0.57c0.02,0.38,0.14,0.78,0.43,1.05C54.49,22.93,54.85,23.1,55.25,23.1L55.25,23.1z"/>
	</g>
</g>
<g>
	<g>
		<path d="M66.54,22.04c2.36,0,2.37-3.67,0-3.67C64.18,18.37,64.18,22.04,66.54,22.04L66.54,22.04z"/>
	</g>
</g>
<g>
	<g>
		<path d="M17.71,63.74c-3.07,11.15-1.75,24.73,0.05,36c0.33,2.07,3.46,1.47,3.53-0.48c0.21-6.23-0.07-12.39-0.3-18.62
			c-0.21-5.61-0.22-11.44-1.62-16.9C19.15,62.92,17.93,62.93,17.71,63.74L17.71,63.74z"/>
	</g>
</g>
<g>
	<g>
		<path d="M17.8,98.86c-1.26,1.86-1.88,2.29-2.57,4.67c-0.9,3.09-1.45,6.27-2.08,9.43c-1.13,5.61-2.38,11.12-2.41,16.86
			c-0.01,2.2,2.99,2.43,3.68,0.5c2.09-5.81,2.76-11.91,3.7-17.98c0.37-2.43,0.79-4.85,0.99-7.31c0.23-2.67-0.15-3.73-0.74-6.09
			C18.3,98.66,17.94,98.65,17.8,98.86L17.8,98.86z"/>
	</g>
</g>
<g>
	<g>
		<path d="M18.5,99.06c1.11,5.97,2.54,11.82,3.99,17.71c1.34,5.43,2.43,11.07,4.71,16.19c1,2.25,4.43,1,4.44-1.2
			c0.04-11.39-5.38-23.94-11.22-33.51C19.78,97.19,18.29,97.91,18.5,99.06L18.5,99.06z"/>
	</g>
</g>
<g>
	<g>
		<path d="M15.33,80.61c-2.91,4.28-5.9,8.51-8.81,12.79c-0.91,1.33,1.11,2.83,2.21,1.7c3.73-3.83,6.76-8.22,9.17-12.99
			C18.76,80.39,16.41,79.03,15.33,80.61L15.33,80.61z"/>
	</g>
</g>
<g>
	<g>
		<path d="M19.05,80.08c3.36,0.44,6.88-1.09,9.98-2.25c3.24-1.22,6.51-2.59,9.44-4.44c2.48-1.57,0.31-5.22-2.29-3.91
			c-3.17,1.59-6.23,3.33-9.53,4.66c-2.75,1.11-5.86,1.67-8.29,3.4C17.2,78.36,17.7,79.9,19.05,80.08L19.05,80.08z"/>
	</g>
</g>
<g>
	<g>
		<path d="M58.83,34.33c-0.04,10-0.13,19.94,0.11,29.94c0.22,9.39-0.11,19.27,1.85,28.47c0.51,2.37,3.68,1.54,3.91-0.53
			c1.08-9.45-0.29-19.49-0.98-28.94c-0.71-9.69-1.74-19.28-2.71-28.94C60.88,32.95,58.83,32.89,58.83,34.33L58.83,34.33z"/>
	</g>
</g>
<g>
	<g>
		<path d="M60.71,91.03c-3.03,5.85-4.09,12.79-5.38,19.2c-1.33,6.62-2.27,13.34-2.12,20.1c0.04,1.84,2.57,2.13,3.15,0.43
			c2.2-6.49,3.52-13.23,4.61-19.98c1-6.21,2.75-12.69,2.44-19.01C63.34,90.41,61.41,89.69,60.71,91.03L60.71,91.03z"/>
	</g>
</g>
<g>
	<g>
		<path d="M61.1,91.64c2.02,7.21,3.43,14.6,4.9,21.93c1.4,6.95,2.06,14.7,5.12,21.14c1.22,2.57,5.43,1.29,5.31-1.44
			c-0.3-7.4-3.56-14.95-5.64-22.01c-2.09-7.09-4.06-14.01-7.91-20.37C62.32,89.95,60.8,90.55,61.1,91.64L61.1,91.64z"/>
	</g>
</g>
<g>
	<g>
		<path d="M61.32,54.03c-2.78,1.79-4.87,4.63-7.43,6.74c-2.94,2.42-5.99,4.74-9.08,6.96c-0.89,0.64-0.4,2.36,0.81,1.93
			c3.67-1.31,7.04-3.08,10.05-5.58c2.83-2.35,6.13-5.12,7.54-8.59C63.64,54.43,62.21,53.45,61.32,54.03L61.32,54.03z"/>
	</g>
</g>
<g>
	<g>
		<path d="M60.47,56.85c2.86,8.99,10.96,19.3,20.03,22.51c2.16,0.76,3.67-2.22,2.17-3.72c-3.38-3.38-7.48-5.88-10.89-9.24
			c-3.38-3.33-6.16-7.14-9.14-10.81C61.8,54.58,60.1,55.67,60.47,56.85L60.47,56.85z"/>
	</g>
</g>
<g>
	<g>
		<path d="M59.01,27.34c0.1,0,0.1-0.16,0-0.16C58.91,27.19,58.91,27.34,59.01,27.34L59.01,27.34z"/>
	</g>
</g>
<g>
	<g>
		<path d="M57.54,27.38c0.32,0.32,0.62,0.6,1.06,0.75c0.36,0.12,0.76,0.12,1.14,0.16c0.66,0.06,1.23,0.14,1.87-0.04
			c0.56-0.15,0.96-0.91,0.58-1.43c-0.41-0.57-0.89-0.9-1.47-1.29c-0.7-0.46-1.27-0.77-2.13-0.7C57.36,24.94,56.55,26.41,57.54,27.38
			L57.54,27.38z"/>
	</g>
</g>
</svg>
