<?xml version="1.0" encoding="utf-8"?>
<!-- Generator: Adobe Illustrator 25.4.1, SVG Export Plug-In . SVG Version: 6.00 Build 0)  -->
<svg version="1.1" id="Layer_1" xmlns="http://www.w3.org/2000/svg" xmlns:xlink="http://www.w3.org/1999/xlink" x="0px" y="0px"
	 viewBox="0 0 283.46 297.64" style="enable-background:new 0 0 283.46 297.64;" xml:space="preserve">
<style type="text/css">
	.st0{fill:none;stroke:#000000;stroke-width:4;stroke-linecap:round;stroke-linejoin:round;stroke-miterlimit:10;}
	.st1{fill:none;stroke:#000000;stroke-width:8;stroke-linejoin:round;stroke-miterlimit:10;}
	.st2{fill:#FFFFFF;stroke:#000000;stroke-width:6;stroke-miterlimit:10;}
	.st3{font-family:'MyriadPro-Regular';}
	.st4{font-size:6.708px;}
	.st5{fill:none;stroke:#000000;stroke-width:3;stroke-linecap:round;stroke-linejoin:round;stroke-miterlimit:10;}
	.st6{fill:none;stroke:#EC2426;stroke-width:3;stroke-linecap:round;stroke-linejoin:round;stroke-miterlimit:10;}
	.st7{fill:none;stroke:#000000;stroke-linejoin:round;stroke-miterlimit:10;}
	.st8{fill:#EA2728;}
	.st9{fill:none;stroke:#000000;stroke-width:3;stroke-miterlimit:10;}
	.st10{fill:none;stroke:#000000;stroke-width:3;stroke-linecap:round;stroke-miterlimit:10;}
	.st11{font-family:'HiraKakuStd-W8-83pv-RKSJ-H';}
	.st12{font-size:36px;}
</style>
<rect x="34.47" y="127.26" class="st0" width="216.61" height="165.82"/>
<rect x="97.29" y="230.96" class="st0" width="90.12" height="26.6"/>
<line class="st1" x1="39.81" y1="293.07" x2="39.81" y2="127.26"/>
<line class="st1" x1="245.58" y1="294.38" x2="245.58" y2="128.56"/>
<circle class="st2" cx="73.46" cy="154.03" r="64.24"/>
<circle class="st2" cx="209.46" cy="154.03" r="64.24"/>
<circle cx="73.46" cy="154.03" r="17.33"/>
<polygon class="st0" points="125.91,165.29 122.73,175.34 94.87,172.11 101.16,152.26 "/>
<path class="st0" d="M105.79,154.7c-0.19,6.71-2.06,12.62-5.62,17.74"/>
<line class="st0" x1="103.87" y1="154.6" x2="98.45" y2="171.68"/>
<polygon class="st0" points="57.41,101.81 67.7,99.54 78.83,125.28 58.5,129.76 "/>
<path class="st0" d="M58.29,124.54c5.9-3.19,11.96-4.52,18.17-4"/>
<line class="st0" x1="59.17" y1="126.25" x2="76.67" y2="122.39"/>
<polygon class="st0" points="30.18,187.69 37.28,195.47 61.22,180.85 47.17,165.47 "/>
<path class="st0" d="M44,169.62c2.98,6.01,7.17,10.59,12.55,13.74"/>
<line class="st0" x1="45.7" y1="168.73" x2="57.78" y2="181.96"/>
<circle cx="209.46" cy="154.03" r="17.33"/>
<polygon class="st0" points="231.73,105.23 240.86,110.49 231.72,137.01 213.69,126.6 "/>
<path class="st0" d="M217.06,122.6c6.51,1.62,11.88,4.72,16.11,9.3"/>
<line class="st0" x1="216.55" y1="124.46" x2="232.07" y2="133.42"/>
<polygon class="st0" points="155.01,158.49 155.01,147.95 182.54,142.61 182.54,163.43 "/>
<path class="st0" d="M177.4,162.51c-1.85-6.45-1.85-12.65,0-18.61"/>
<line class="st0" x1="179.26" y1="162.02" x2="179.26" y2="144.1"/>
<polygon class="st0" points="233.03,203.54 242.16,198.27 233.02,171.75 214.99,182.17 "/>
<path class="st0" d="M218.36,186.16c6.51-1.62,11.88-4.72,16.11-9.3"/>
<line class="st0" x1="217.85" y1="184.3" x2="233.37" y2="175.34"/>
<text transform="matrix(0.7881 -0.6156 0.6156 0.7881 91.4855 140.8732)" class="st3 st4">MEMORYX</text>
<line class="st0" x1="142.35" y1="233.9" x2="142.35" y2="257.55"/>
<path class="st5" d="M105.79,244.26c9.11-4.01,18.21-4.01,27.32,0"/>
<path class="st6" d="M151.2,244.26c9.11-4.01,18.21-4.01,27.32,0"/>
<line class="st7" x1="105.52" y1="239.16" x2="107.52" y2="243.25"/>
<line class="st7" x1="112.21" y1="236.88" x2="113.79" y2="241.77"/>
<line class="st7" x1="119.45" y1="236.14" x2="119.45" y2="241.25"/>
<line class="st7" x1="134.1" y1="239.66" x2="132.1" y2="243.75"/>
<line class="st7" x1="127.21" y1="236.99" x2="125.98" y2="241.77"/>
<line class="st7" x1="150.57" y1="239.16" x2="152.57" y2="243.25"/>
<line class="st7" x1="157.26" y1="236.88" x2="158.84" y2="241.77"/>
<line class="st7" x1="164.94" y1="235.9" x2="164.94" y2="241.01"/>
<line class="st7" x1="179.16" y1="239.66" x2="177.16" y2="243.75"/>
<line class="st7" x1="172.26" y1="236.99" x2="171.03" y2="241.77"/>
<circle class="st8" cx="74.04" cy="274" r="3.1"/>
<circle class="st9" cx="210.29" cy="274" r="4.7"/>
<circle class="st9" cx="223.88" cy="274" r="4.7"/>
<line class="st10" x1="83.93" y1="270.9" x2="83.93" y2="277.1"/>
<line class="st10" x1="90.8" y1="270.9" x2="90.8" y2="277.1"/>
<line class="st10" x1="98.05" y1="270.9" x2="98.05" y2="277.1"/>
<line class="st10" x1="111.46" y1="270.9" x2="111.46" y2="277.1"/>
<line class="st10" x1="104.91" y1="270.9" x2="104.91" y2="277.1"/>
<circle class="st9" cx="72.72" cy="30.37" r="8.82"/>
<polyline class="st9" points="80.86,89.78 80.86,89.78 72.72,64.01 72.72,39.19 "/>
<line class="st9" x1="62.4" y1="89.78" x2="72.72" y2="64.01"/>
<polyline class="st9" points="90.8,35.19 72.72,46.72 62.4,61.78 "/>
<circle class="st9" cx="211.11" cy="30.93" r="8.82"/>
<polyline class="st9" points="219.25,90.34 219.25,90.34 211.11,64.58 211.11,39.76 "/>
<line class="st9" x1="200.79" y1="90.35" x2="211.11" y2="64.58"/>
<polyline class="st9" points="233.17,35.19 211.11,47.29 192.13,33.31 "/>
<line class="st10" x1="119.45" y1="257.66" x2="116.94" y2="248.37"/>
<line class="st10" x1="172.01" y1="249.19" x2="166.94" y2="256.37"/>
<g>
	<g>
		<path d="M121.68,22.37c1.98,0,3.88-1.48,4.51-6.42l3.46,0.56c-0.42,6.35-3.17,9.81-8.39,9.81c-2.96,0-5.36-1.41-8.11-3.88
			c-2.26-2.12-4.02-2.89-5.93-2.89c-1.98,0-3.88,1.48-4.51,6.42l-3.46-0.56c0.42-6.35,3.17-9.81,8.39-9.81
			c2.96,0,5.36,1.41,8.11,3.88C118.01,21.59,119.77,22.37,121.68,22.37z"/>
	</g>
</g>
<text transform="matrix(1 0 0 1 169.4722 35.2517)" class="st11 st12">!</text>
</svg>
