<?xml version="1.0" encoding="utf-8"?>
<!-- Generator: Adobe Illustrator 25.4.1, SVG Export Plug-In . SVG Version: 6.00 Build 0)  -->
<svg version="1.1" id="Layer_1" xmlns="http://www.w3.org/2000/svg" xmlns:xlink="http://www.w3.org/1999/xlink" x="0px" y="0px"
	 viewBox="0 0 255.12 113.39" style="enable-background:new 0 0 255.12 113.39;" xml:space="preserve">
<style type="text/css">
	.st0{stroke:#231F20;stroke-width:4;stroke-miterlimit:10;}
	.st1{fill:#FFFFFF;stroke:#231F20;stroke-width:4;stroke-linecap:round;stroke-miterlimit:10;}
	.st2{fill:#FFFFFF;stroke:#231F20;stroke-width:4;stroke-linecap:round;stroke-linejoin:round;stroke-miterlimit:10;}
	.st3{stroke:#231F20;stroke-linecap:round;stroke-miterlimit:10;}
	.st4{fill:none;stroke:#231F20;stroke-width:4;stroke-miterlimit:10;}
	.st5{fill:#FFFFFF;stroke:#231F20;stroke-linecap:round;stroke-miterlimit:10;}
	.st6{stroke:#231F20;stroke-width:4;stroke-linecap:round;stroke-linejoin:round;stroke-miterlimit:10;}
	.st7{stroke:#231F20;stroke-width:2;stroke-miterlimit:10;}
	.st8{fill:none;stroke:#000000;stroke-width:3;stroke-linecap:round;stroke-miterlimit:10;}
</style>
<path class="st0" d="M180.72,92.55c33.37,0,50.63-4.76,50.98-5.47c0.35-0.71-12-4.65-12-39.56S191.48-2.55,174.71,4.86l0,0
	c-4.38,1.05-6.29,4.66-9.35,8.82l0,0c-12-3.88-14.01,12.84-16.24,32.43c-2.57,22.65,1.49,44.24,33.58,46.45H180.72z"/>
<path class="st1" d="M208.82,97.12c-6.01-8.36-9.06-14.83-8.84-23.11h-14.17h-3.1h-14.17c0.22,8.27-2.9,14.84-8.9,23.2"/>
<path class="st2" d="M168.36,25.81c0,0,0.88-0.47,2,2.69c5.55,15.71,40.95,12.64,40.95,18.95S209.76,58,209.76,58
	s-6.12,22.43-26.56,22.43c-17.82,0-23.56-17.44-24.83-23.05C153.01,33.62,162.01,57.45,168.36,25.81z"/>
<rect x="158.42" y="91.96" transform="matrix(0.8325 0.554 -0.554 0.8325 82.8863 -77.9535)" class="st2" width="23.88" height="12.29"/>
<rect x="187.03" y="91.96" transform="matrix(-0.8325 0.554 -0.554 -0.8325 418.9563 69.5309)" class="st2" width="23.88" height="12.29"/>
<circle class="st3" cx="184.66" cy="107.62" r="1.6"/>
<path class="st4" d="M70.63,92.49c33.37,0,50.63-4.76,50.98-5.47c0.35-0.71-12-4.65-12-39.56S87.2,4.02,71.54,4.02h0.17
	c-15.66,0-34.61,12.95-38.07,43.44c-2.57,22.65,5.61,45.03,38.98,45.03H70.63z"/>
<path class="st1" d="M98.74,97.06c-6.01-8.36-9.06-14.83-8.84-23.11H75.72h-3.1H58.45c0.22,8.27-2.9,14.84-8.9,23.2"/>
<path class="st2" d="M58.28,25.75c0,0,0.88-0.47,2,2.69c5.55,15.71,40.95,12.64,40.95,18.95s-1.55,10.54-1.55,10.54
	s-6.12,22.43-26.56,22.43c-17.82,0-23.56-17.44-24.83-23.05C42.92,33.56,51.92,57.38,58.28,25.75z"/>
<rect x="48.34" y="91.89" transform="matrix(0.8325 0.554 -0.554 0.8325 64.4118 -16.9741)" class="st2" width="23.88" height="12.29"/>
<rect x="76.94" y="91.89" transform="matrix(-0.8325 0.554 -0.554 -0.8325 217.1937 130.4052)" class="st2" width="23.88" height="12.29"/>
<circle class="st5" cx="74.58" cy="107.55" r="1.6"/>
<circle class="st6" cx="54.71" cy="50.47" r="0.53"/>
<circle class="st6" cx="88.88" cy="51" r="0.53"/>
<path class="st7" d="M167.77,52.32h-3.17c-1.33,0-2.41-0.24-2.41-0.54l0,0c0-0.3,1.08-0.54,2.41-0.54h3.17
	c1.33,0,2.41,0.24,2.41,0.54l0,0C170.17,52.08,169.1,52.32,167.77,52.32z"/>
<path class="st7" d="M202.55,52.29h-3.17c-1.33,0-2.41-0.24-2.41-0.54l0,0c0-0.3,1.08-0.54,2.41-0.54h3.17
	c1.33,0,2.41,0.24,2.41,0.54l0,0C204.96,52.05,203.88,52.29,202.55,52.29z"/>
<line class="st8" x1="231.87" y1="56.54" x2="247.23" y2="56.54"/>
<line class="st8" x1="246.1" y1="69.85" x2="232.8" y2="62.17"/>
<line class="st8" x1="232.98" y1="50.64" x2="246.29" y2="42.95"/>
<line class="st8" x1="24.13" y1="56.68" x2="8.77" y2="56.68"/>
<line class="st8" x1="9.9" y1="69.99" x2="23.2" y2="62.31"/>
<line class="st8" x1="23.02" y1="50.77" x2="9.71" y2="43.09"/>
</svg>
