<?xml version="1.0" encoding="utf-8"?>
<!-- Generator: Adobe Illustrator 25.4.1, SVG Export Plug-In . SVG Version: 6.00 Build 0)  -->
<svg version="1.1" id="Layer_1" xmlns="http://www.w3.org/2000/svg" xmlns:xlink="http://www.w3.org/1999/xlink" x="0px" y="0px"
	 viewBox="0 0 155.91 113.39" style="enable-background:new 0 0 155.91 113.39;" xml:space="preserve">
<style type="text/css">
	.st0{fill:none;stroke:#000000;stroke-width:3;stroke-linecap:round;stroke-linejoin:round;stroke-miterlimit:10;}
	.st1{fill:#DBADB0;stroke:#000000;stroke-width:3;stroke-linecap:round;stroke-linejoin:round;stroke-miterlimit:10;}
	.st2{fill:none;stroke:#000000;stroke-width:3;stroke-linecap:round;stroke-miterlimit:10;}
</style>
<path class="st0" d="M121.49,88.8c-6.35-1.65-10.82,0-10.82,0"/>
<path class="st0" d="M43.1,57.25c-6.35-1.65-10.82,0-10.82,0"/>
<path class="st0" d="M110.67,3.72c6.35,1.65,10.82,0,10.82,0"/>
<path class="st0" d="M32.41,45.89c6.35,1.65,10.82,0,10.82,0"/>
<path d="M148.93,53.36c0,25.25-21.31,23.79-33,23.78c-12.02-0.01-32.73,0.67-32.73-24.58s14.81-32.77,32.73-32.77
	S148.93,28.11,148.93,53.36z"/>
<path class="st1" d="M90.13,58.24c0,0,4.94-6.65,15.88-6.68c10.94-0.03,14.02,0.5,21.16,0.12c7.14-0.38,14.84,9.38,14.84,9.38
	s-9.88,6.71-25.94,6.71C101.42,67.77,97.05,63.92,90.13,58.24z"/>
<path class="st1" d="M92.87,58.24c0,0,2.2-6.65,13.14-6.68c10.94-0.03,10.06,0.38,19.17,0.21c10.83-0.21,14.1,7.9,14.1,7.9
	s-7.16,8.1-23.21,8.1C101.42,67.77,99.79,63.92,92.87,58.24z"/>
<line class="st2" x1="13.28" y1="51.16" x2="62.87" y2="51.16"/>
<line class="st2" x1="7.47" y1="49.12" x2="12.22" y2="58.82"/>
<line class="st2" x1="69.22" y1="49.12" x2="64.47" y2="58.82"/>
<polyline class="st0" points="24.4,40.71 29.6,43.42 27.22,35.77 "/>
<line class="st2" x1="32.1" y1="38.89" x2="29.6" y2="43.42"/>
<polyline class="st0" points="51.1,40.71 45.9,43.42 48.28,35.77 "/>
<line class="st2" x1="43.4" y1="38.89" x2="45.9" y2="43.42"/>
<polyline class="st0" points="34.74,67.23 38.15,63.71 38.3,71.72 "/>
<line class="st2" x1="41.95" y1="67.23" x2="38.15" y2="63.71"/>
<line class="st0" x1="41.95" y1="84" x2="42.69" y2="85.59"/>
<line class="st0" x1="48.5" y1="91.59" x2="50.1" y2="93.18"/>
<line class="st0" x1="58.75" y1="99" x2="62.87" y2="101.65"/>
<line class="st0" x1="73.67" y1="105.74" x2="82.49" y2="107.68"/>
<line class="st0" x1="94.4" y1="108.89" x2="116.08" y2="108.89"/>
</svg>
