<?xml version="1.0" encoding="utf-8"?>
<!-- Generator: Adobe Illustrator 25.4.1, SVG Export Plug-In . SVG Version: 6.00 Build 0)  -->
<svg version="1.1" id="Layer_1" xmlns="http://www.w3.org/2000/svg" xmlns:xlink="http://www.w3.org/1999/xlink" x="0px" y="0px"
	 viewBox="0 0 127.56 127.56" style="enable-background:new 0 0 127.56 127.56;" xml:space="preserve">
<g>
	<g>
		<path d="M65.04,18.22c-10.09-4.96-22.67-0.59-31.09,5.88c-9.3,7.16-15.08,17.73-18.56,28.79c-7.4,23.51-1.25,53.06,23.91,62.65
			c22.74,8.67,52.63-4.49,66.72-23.08c13.2-17.41,11.72-43.2-0.68-60.67C90.7,11.16,59.7,1.52,37.22,14.73
			c-4.46,2.62-2.85,10.71,2.78,10.25c15.8-1.28,33.16-1.61,46.02,9.27c11.5,9.73,16.35,26.53,11.7,40.87
			c-5.12,15.77-26.16,27.13-41.93,27.69c-20.13,0.71-30.92-16.49-29.92-35.07c0.56-10.45,4.31-20.9,10.34-29.43
			c2.93-4.15,6.57-7.79,11.09-10.2c5.13-2.74,10.3-2.94,15.97-3.23C66.52,24.7,68.42,19.89,65.04,18.22L65.04,18.22z"/>
	</g>
</g>
<g>
	<g>
		<path d="M38.95,72.47c0.91,0.03,1.76-0.16,2.55-0.57c0.82-0.27,1.53-0.72,2.13-1.37c0.65-0.6,1.1-1.31,1.37-2.13
			c0.41-0.79,0.6-1.64,0.57-2.55c-0.08-0.59-0.16-1.17-0.24-1.76c-0.31-1.12-0.88-2.09-1.7-2.92c-0.45-0.34-0.89-0.69-1.34-1.03
			c-1.03-0.6-2.14-0.9-3.34-0.9c-0.91-0.03-1.76,0.16-2.55,0.57c-0.82,0.27-1.53,0.72-2.13,1.37c-0.65,0.6-1.1,1.31-1.37,2.13
			c-0.41,0.79-0.6,1.64-0.57,2.55c0.08,0.59,0.16,1.17,0.24,1.76c0.31,1.12,0.88,2.09,1.7,2.92c0.45,0.34,0.89,0.69,1.34,1.03
			C36.64,72.16,37.76,72.46,38.95,72.47L38.95,72.47z"/>
	</g>
</g>
<g>
	<g>
		<path d="M76.43,60.87c-0.06,0.18-0.11,0.36-0.17,0.54c-0.32,1.2-0.32,2.41,0,3.61c0.32,1.15,0.9,2.15,1.75,3
			c0.46,0.35,0.92,0.71,1.37,1.06c1.06,0.61,2.2,0.92,3.43,0.93c0.93,0.04,1.81-0.16,2.62-0.58c0.84-0.27,1.57-0.74,2.18-1.4
			c1.68-1.68,2.45-4.31,1.75-6.6c-0.06-0.18-0.11-0.36-0.17-0.54c-0.22-0.53-0.44-1.05-0.67-1.58c-0.42-0.77-0.98-1.39-1.7-1.86
			c-0.41-0.41-0.9-0.69-1.46-0.85c-0.79-0.41-1.64-0.6-2.55-0.57c-0.59,0.08-1.17,0.16-1.76,0.24c-0.53,0.22-1.05,0.44-1.58,0.67
			c-0.77,0.42-1.39,0.98-1.86,1.7C77.03,59.25,76.63,60,76.43,60.87L76.43,60.87z"/>
	</g>
</g>
<g>
	<g>
		<path d="M55.68,91.38c3.03,7.98,18.78,5.67,18.45-3.24c-0.06-1.74-1.28-3.82-3.15-4.14c-2.87-0.49-4.8,0.57-7.15,1.18
			c-1.74,0.46-4.34,0.27-6.27,1.58C56.17,87.7,55.02,89.63,55.68,91.38L55.68,91.38z"/>
	</g>
</g>
</svg>
