<?xml version="1.0" encoding="utf-8"?>
<!-- Generator: Adobe Illustrator 25.4.1, SVG Export Plug-In . SVG Version: 6.00 Build 0)  -->
<svg version="1.1" id="Layer_1" xmlns="http://www.w3.org/2000/svg" xmlns:xlink="http://www.w3.org/1999/xlink" x="0px" y="0px"
	 viewBox="0 0 127.56 127.56" style="enable-background:new 0 0 127.56 127.56;" xml:space="preserve">
<style type="text/css">
	.st0{fill:#FFFFFF;stroke:#000000;stroke-width:4;stroke-miterlimit:10;}
	.st1{fill:#FFFFFF;stroke:#000000;stroke-width:2;stroke-miterlimit:10;}
	.st2{stroke:#000000;stroke-width:2;stroke-miterlimit:10;}
	.st3{fill:none;stroke:#000000;stroke-width:5;stroke-linecap:round;stroke-miterlimit:10;}
</style>
<circle class="st0" cx="63.89" cy="63.48" r="46.97"/>
<path class="st1" d="M52.46,65.81H28.91c-1.29,0-2.33-1.04-2.33-2.33v0c0-1.29,1.04-2.33,2.33-2.33h23.55
	c1.29,0,2.33,1.04,2.33,2.33v0C54.79,64.76,53.74,65.81,52.46,65.81z"/>
<path class="st2" d="M43.45,65.81h-6.04c-1.29,0-2.33-1.04-2.33-2.33v0c0-1.29,1.04-2.33,2.33-2.33h6.04c1.29,0,2.33,1.04,2.33,2.33
	v0C45.78,64.76,44.74,65.81,43.45,65.81z"/>
<path class="st1" d="M98.87,65.81H75.32c-1.29,0-2.33-1.04-2.33-2.33v0c0-1.29,1.04-2.33,2.33-2.33h23.55
	c1.29,0,2.33,1.04,2.33,2.33v0C101.2,64.76,100.16,65.81,98.87,65.81z"/>
<path class="st2" d="M89.87,65.81h-6.04c-1.29,0-2.33-1.04-2.33-2.33v0c0-1.29,1.04-2.33,2.33-2.33h6.04c1.29,0,2.33,1.04,2.33,2.33
	v0C92.2,64.76,91.16,65.81,89.87,65.81z"/>
<path class="st3" d="M58.23,87.28c0,0,2.92,1.14,5.65,1.14c2.73,0,5.65-1.14,5.65-1.14"/>
</svg>
