<?xml version="1.0" encoding="utf-8"?>
<!-- Generator: Adobe Illustrator 25.4.1, SVG Export Plug-In . SVG Version: 6.00 Build 0)  -->
<svg version="1.1" id="Layer_1" xmlns="http://www.w3.org/2000/svg" xmlns:xlink="http://www.w3.org/1999/xlink" x="0px" y="0px"
	 viewBox="0 0 453.54 141.73" style="enable-background:new 0 0 453.54 141.73;" xml:space="preserve">
<style type="text/css">
	.st0{fill:#FFFFFF;stroke:#000000;stroke-width:6;stroke-linecap:round;stroke-miterlimit:10;}
	.st1{fill:#FFFFFF;stroke:#000000;stroke-width:5;stroke-linecap:round;stroke-miterlimit:10;}
	.st2{fill:none;stroke:#000000;stroke-width:5;stroke-linecap:round;stroke-miterlimit:10;}
	.st3{font-family:'HiraKakuStd-W8-83pv-RKSJ-H';}
	.st4{font-size:23px;}
	.st5{font-size:14px;}
	.st6{font-size:11.5971px;}
	.st7{fill:none;stroke:#000000;stroke-miterlimit:10;}
</style>
<path class="st0" d="M184.82,126.47H25.06c-3.13,0-5.67-2.54-5.67-5.67V24.88c0-3.13,2.54-5.67,5.67-5.67h159.76
	c3.13,0,5.67,2.54,5.67,5.67v95.92C190.49,123.93,187.95,126.47,184.82,126.47z"/>
<path class="st1" d="M181.56,123.47H21.8c-3.13,0-5.67-2.54-5.67-5.67V21.88c0-3.13,2.54-5.67,5.67-5.67h159.76
	c3.13,0,5.67,2.54,5.67,5.67v95.92C187.23,120.93,184.69,123.47,181.56,123.47z"/>
<line class="st2" x1="16.13" y1="43.12" x2="187.23" y2="43.12"/>
<path class="st0" d="M431.86,125.97H272.11c-3.13,0-5.67-2.54-5.67-5.67V24.38c0-3.13,2.54-5.67,5.67-5.67h159.76
	c3.13,0,5.67,2.54,5.67,5.67v95.92C437.53,123.43,434.99,125.97,431.86,125.97z"/>
<path class="st1" d="M428.61,122.97H268.85c-3.13,0-5.67-2.54-5.67-5.67V21.38c0-3.13,2.54-5.67,5.67-5.67h159.76
	c3.13,0,5.67,2.54,5.67,5.67v95.92C434.27,120.43,431.74,122.97,428.61,122.97z"/>
<line class="st2" x1="263.18" y1="42.62" x2="434.27" y2="42.62"/>
<text transform="matrix(1 0 0 1 33.9433 76.6466)" class="st3 st4">2000   /hr</text>
<text transform="matrix(1 0 0 1 106.0566 76.6467)" class="st3 st5">NT</text>
<text transform="matrix(1 0 0 1 35.1832 106.8606)" class="st3 st4">3000   /hr</text>
<text transform="matrix(1 0 0 1 107.2964 106.8607)" class="st3 st5">NT</text>
<text transform="matrix(1 0 0 1 77.6097 36.302)" class="st3 st5">Child</text>
<text transform="matrix(1 0 0 1 324.7677 35.2649)" class="st3 st5">Adult</text>
<text transform="matrix(1 0 0 1 281.3883 89.6466)" class="st3 st4">3000   /hr</text>
<text transform="matrix(1 0 0 1 353.5016 89.6467)" class="st3 st5">NT</text>
<text transform="matrix(1 0 0 1 23.7615 59.176)" class="st3 st6">1</text>
<circle class="st7" cx="28.12" cy="54.77" r="7.56"/>
<text transform="matrix(1 0 0 1 23.7239 91.7393)" class="st3 st6">2</text>
<circle class="st7" cx="28.12" cy="87.65" r="7.56"/>
</svg>
