<?xml version="1.0" encoding="utf-8"?>
<!-- Generator: Adobe Illustrator 25.4.1, SVG Export Plug-In . SVG Version: 6.00 Build 0)  -->
<svg version="1.1" id="Layer_1" xmlns="http://www.w3.org/2000/svg" xmlns:xlink="http://www.w3.org/1999/xlink" x="0px" y="0px"
	 viewBox="0 0 340.16 255.12" style="enable-background:new 0 0 340.16 255.12;" xml:space="preserve">
<style type="text/css">
	.st0{fill:#FFFFFF;stroke:#000000;stroke-width:6;stroke-linecap:round;stroke-miterlimit:10;}
	.st1{fill:#FFFFFF;stroke:#000000;stroke-width:5;stroke-linecap:round;stroke-miterlimit:10;}
	.st2{fill:none;stroke:#000000;stroke-width:5;stroke-linecap:round;stroke-miterlimit:10;}
	.st3{fill:#FFFFFF;stroke:#000000;stroke-width:2;stroke-linecap:round;stroke-miterlimit:10;}
	.st4{fill:none;stroke:#000000;stroke-width:3;stroke-miterlimit:10;}
	.st5{fill:none;stroke:#000000;stroke-width:2;stroke-miterlimit:10;}
	.st6{stroke:#000000;stroke-width:2;stroke-miterlimit:10;}
	.st7{fill:none;stroke:#000000;stroke-width:5;stroke-miterlimit:10;}
	.st8{fill:none;stroke:#000000;stroke-width:2;stroke-linecap:round;stroke-miterlimit:10;}
	.st9{font-family:'HiraKakuStd-W8-83pv-RKSJ-H';}
	.st10{font-size:10px;}
</style>
<path class="st0" d="M318.12,236.98H26.4c-3.13,0-5.67-2.54-5.67-5.67V28.06c0-3.13,2.54-5.67,5.67-5.67h291.72
	c3.13,0,5.67,2.54,5.67,5.67v203.25C323.79,234.44,321.25,236.98,318.12,236.98z"/>
<path class="st1" d="M314.12,232.98H22.4c-3.13,0-5.67-2.54-5.67-5.67V24.06c0-3.13,2.54-5.67,5.67-5.67h291.72
	c3.13,0,5.67,2.54,5.67,5.67v203.25C319.79,230.44,317.25,232.98,314.12,232.98z"/>
<line class="st2" x1="16.73" y1="36.21" x2="319.79" y2="36.21"/>
<circle class="st3" cx="25.96" cy="27.63" r="3.88"/>
<circle class="st3" cx="37.55" cy="27.63" r="3.88"/>
<rect x="33.67" y="52.39" class="st4" width="151.06" height="151.06"/>
<path class="st5" d="M95.63,130.52H66.98c-1.57,0-2.83-1.27-2.83-2.83v0c0-1.57,1.27-2.83,2.83-2.83h28.65
	c1.57,0,2.83,1.27,2.83,2.83v0C98.46,129.25,97.2,130.52,95.63,130.52z"/>
<path class="st6" d="M84.68,130.52h-7.34c-1.57,0-2.83-1.27-2.83-2.83l0,0c0-1.57,1.27-2.83,2.83-2.83h7.34
	c1.57,0,2.83,1.27,2.83,2.83l0,0C87.51,129.25,86.24,130.52,84.68,130.52z"/>
<path class="st5" d="M152.1,130.52h-28.65c-1.57,0-2.83-1.27-2.83-2.83v0c0-1.57,1.27-2.83,2.83-2.83h28.65
	c1.57,0,2.83,1.27,2.83,2.83v0C154.94,129.25,153.67,130.52,152.1,130.52z"/>
<path class="st6" d="M141.15,130.52h-7.34c-1.57,0-2.83-1.27-2.83-2.83l0,0c0-1.57,1.27-2.83,2.83-2.83h7.34
	c1.57,0,2.83,1.27,2.83,2.83l0,0C143.98,129.25,142.71,130.52,141.15,130.52z"/>
<circle class="st7" cx="109.54" cy="127.68" r="57.14"/>
<polyline class="st8" points="102.47,158.04 109.54,158.04 116.62,158.04 "/>
<path class="st2" d="M102.66,156.65c0,0,3.55,1.39,6.88,1.39c3.33,0,6.88-1.39,6.88-1.39"/>
<g>
	<g>
		<path d="M218.44,89.34h-4.29c0-0.28,0-0.68,0.01-1.21c0-0.52,0.01-1.33,0.01-2.41c-0.3,0-0.56,0-0.77,0s-0.46,0-0.73,0
			c-0.23,0-0.46,0-0.67,0c-0.21,0-0.45,0-0.71,0c0,0.64,0,1.29,0.01,1.96c0,0.67,0.01,1.22,0.01,1.66h-4.29c0-0.46,0-1.04,0.01-1.75
			c0-0.71,0.01-2,0.01-3.86c0-0.62,0-1.37-0.01-2.24c-0.01-0.87-0.01-1.74-0.01-2.61h4.29c0,0.7,0,1.29-0.01,1.79
			c-0.01,0.49-0.01,1.01-0.01,1.54c0.26,0,0.5,0,0.71,0c0.21,0,0.44,0,0.68,0c0.28,0,0.52,0,0.73,0c0.21,0,0.46,0,0.76,0
			c0-0.47,0-0.99-0.01-1.55c-0.01-0.56-0.01-1.15-0.01-1.78h4.29c0,1,0,1.98-0.01,2.93c-0.01,0.95-0.01,1.72-0.01,2.31
			c0,1.05,0,2.08,0.01,3.07C218.44,88.18,218.44,88.9,218.44,89.34z"/>
		<path d="M228.59,85.68h-5.12c0,0.2,0.1,0.4,0.31,0.58c0.21,0.18,0.53,0.32,0.97,0.41c0.33,0.07,0.65,0.12,0.96,0.13
			c0.31,0.01,0.59,0.02,0.85,0.02c0.38,0,0.69,0,0.94,0c0.24,0,0.46-0.01,0.64-0.01l-0.37,2.59c-0.2,0.02-0.44,0.03-0.73,0.05
			c-0.29,0.02-0.62,0.02-0.97,0.02c-1,0-1.91-0.09-2.73-0.27c-0.83-0.18-1.55-0.49-2.18-0.93c-0.52-0.38-0.92-0.82-1.2-1.35
			c-0.28-0.52-0.42-1.09-0.42-1.7c0-0.62,0.1-1.17,0.3-1.64c0.2-0.47,0.56-0.93,1.07-1.39c0.41-0.36,0.91-0.64,1.5-0.84
			s1.18-0.29,1.77-0.29c0.66,0,1.26,0.09,1.79,0.26s0.98,0.43,1.36,0.78c0.46,0.43,0.79,0.94,0.97,1.52
			C228.5,84.21,228.59,84.89,228.59,85.68z M224.98,84.4c0-0.33-0.07-0.6-0.22-0.82s-0.38-0.33-0.7-0.33c-0.3,0-0.54,0.1-0.71,0.31
			c-0.17,0.21-0.26,0.49-0.28,0.84H224.98z"/>
		<path d="M238.6,81.91c-1.02,2.38-1.98,4.67-2.87,6.86c-0.89,2.2-1.45,3.57-1.68,4.13l-3.74-0.77l1.19-2.96
			c-0.12-0.28-0.49-1.2-1.13-2.75c-0.64-1.55-1.27-3.05-1.89-4.51l4.02-0.85c0.24,0.83,0.45,1.52,0.64,2.06s0.35,1,0.49,1.38h0.08
			c0.18-0.52,0.33-0.97,0.45-1.38s0.33-1.09,0.6-2.06L238.6,81.91z"/>
		<path d="M248.52,83.15c-0.14,1.21-0.5,2.23-1.09,3.05s-1.34,1.23-2.25,1.23c-0.35,0-0.66-0.05-0.91-0.16
			c-0.25-0.11-0.49-0.26-0.71-0.45c-0.15-0.12-0.31-0.26-0.48-0.42s-0.32-0.28-0.45-0.39c-0.07-0.06-0.13-0.11-0.19-0.14
			c-0.06-0.03-0.12-0.05-0.2-0.05c-0.23,0-0.4,0.16-0.5,0.47c-0.1,0.31-0.23,0.83-0.38,1.54l-2.33-0.44
			c0.11-1.21,0.49-2.23,1.11-3.05c0.63-0.82,1.37-1.23,2.23-1.23c0.36,0,0.67,0.06,0.93,0.17s0.49,0.26,0.71,0.44
			c0.13,0.11,0.27,0.23,0.43,0.38c0.16,0.14,0.33,0.29,0.5,0.45c0.04,0.04,0.1,0.07,0.16,0.11c0.07,0.04,0.13,0.06,0.2,0.06
			c0.24,0,0.41-0.17,0.52-0.51s0.23-0.84,0.37-1.51L248.52,83.15z"/>
		<path d="M207.19,117.31h2.37v4.02h2.83v-4.02h2.37v10.43h-2.37v-4.35h-2.83v4.35h-2.37V117.31z"/>
		<path d="M220.22,121.64h-3.2v-1.85h5.55v7.94h-2.36V121.64z M219.72,117.12c0-0.86,0.66-1.46,1.56-1.46c0.91,0,1.57,0.6,1.57,1.46
			c0,0.87-0.66,1.44-1.57,1.44C220.38,118.56,219.72,117.98,219.72,117.12z"/>
		<path d="M238.17,126.3c0-0.95,0.68-1.6,1.6-1.6c0.92,0,1.6,0.65,1.6,1.6s-0.68,1.63-1.6,1.63
			C238.85,127.93,238.17,127.25,238.17,126.3z M238.67,119.14l-0.08-2.13h2.35l-0.08,2.13l-0.33,4.51H239L238.67,119.14z"/>
		<path d="M207.65,154.74h1.33v3.11l-0.08,1.84h0.05c0.78-0.87,1.7-1.52,2.9-1.52c1.84,0,2.69,1.09,2.69,3.14v4.83h-1.33v-4.66
			c0-1.47-0.51-2.16-1.78-2.16c-0.93,0-1.55,0.46-2.45,1.39v5.43h-1.33V154.74z"/>
		<path d="M216.85,162.23c0-2.53,1.89-4.07,3.97-4.07c2.24,0,3.55,1.46,3.55,3.65c0,0.3-0.03,0.59-0.06,0.8h-6.58v-1.02h5.79
			l-0.34,0.37c0-1.84-0.91-2.75-2.34-2.75c-1.44,0-2.69,1.09-2.69,3.03c0,2.02,1.31,3.04,3.04,3.04c0.93,0,1.66-0.29,2.37-0.74
			l0.48,0.86c-0.77,0.51-1.76,0.93-3.01,0.93C218.71,166.33,216.85,164.82,216.85,162.23z"/>
		<path d="M229.3,163.53v-7.71h-2.75v-1.07h4.08v8.88c0,1.12,0.61,1.6,1.54,1.6c0.45,0,0.93-0.11,1.46-0.35l0.34,0.99
			c-0.72,0.3-1.23,0.46-2.08,0.46C230.22,166.33,229.3,165.37,229.3,163.53z"/>
		<path d="M238.9,163.53v-7.71h-2.75v-1.07h4.08v8.88c0,1.12,0.61,1.6,1.54,1.6c0.45,0,0.93-0.11,1.46-0.35l0.34,0.99
			c-0.72,0.3-1.23,0.46-2.08,0.46C239.82,166.33,238.9,165.37,238.9,163.53z"/>
		<path d="M245.53,162.26c0-2.61,1.79-4.1,3.84-4.1s3.84,1.49,3.84,4.1c0,2.58-1.79,4.07-3.84,4.07S245.53,164.84,245.53,162.26z
			 M251.85,162.26c0-1.79-0.99-2.99-2.48-2.99s-2.48,1.2-2.48,2.99c0,1.78,0.99,2.96,2.48,2.96S251.85,164.04,251.85,162.26z"/>
		<path d="M255.12,162.26c0-2.61,1.79-4.1,3.84-4.1s3.84,1.49,3.84,4.1c0,2.58-1.79,4.07-3.84,4.07S255.12,164.84,255.12,162.26z
			 M261.45,162.26c0-1.79-0.99-2.99-2.48-2.99c-1.49,0-2.48,1.2-2.48,2.99c0,1.78,0.99,2.96,2.48,2.96
			C260.46,165.22,261.45,164.04,261.45,162.26z"/>
		<path d="M264.73,162.26c0-2.61,1.79-4.1,3.84-4.1s3.84,1.49,3.84,4.1c0,2.58-1.79,4.07-3.84,4.07S264.73,164.84,264.73,162.26z
			 M271.05,162.26c0-1.79-0.99-2.99-2.48-2.99c-1.49,0-2.48,1.2-2.48,2.99c0,1.78,0.99,2.96,2.48,2.96
			C270.06,165.22,271.05,164.04,271.05,162.26z"/>
		<path d="M274.33,162.26c0-2.61,1.79-4.1,3.84-4.1s3.84,1.49,3.84,4.1c0,2.58-1.79,4.07-3.84,4.07S274.33,164.84,274.33,162.26z
			 M280.65,162.26c0-1.79-0.99-2.99-2.48-2.99c-1.49,0-2.48,1.2-2.48,2.99c0,1.78,0.99,2.96,2.48,2.96
			C279.66,165.22,280.65,164.04,280.65,162.26z"/>
		<path d="M283.92,162.26c0-2.61,1.79-4.1,3.84-4.1s3.84,1.49,3.84,4.1c0,2.58-1.79,4.07-3.84,4.07S283.92,164.84,283.92,162.26z
			 M290.25,162.26c0-1.79-0.99-2.99-2.48-2.99c-1.49,0-2.48,1.2-2.48,2.99c0,1.78,0.99,2.96,2.48,2.96
			C289.26,165.22,290.25,164.04,290.25,162.26z"/>
	</g>
</g>
<text transform="matrix(1 0 0 1 26.1913 221.4708)" class="st9 st10">Customized Program to fit your SPECIFIC Sound</text>
</svg>
