<?xml version="1.0" encoding="utf-8"?>
<!-- Generator: Adobe Illustrator 25.4.1, SVG Export Plug-In . SVG Version: 6.00 Build 0)  -->
<svg version="1.1" id="Layer_1" xmlns="http://www.w3.org/2000/svg" xmlns:xlink="http://www.w3.org/1999/xlink" x="0px" y="0px"
	 viewBox="0 0 155.91 113.39" style="enable-background:new 0 0 155.91 113.39;" xml:space="preserve">
<style type="text/css">
	.st0{fill:#DBADB0;stroke:#000000;stroke-width:3;stroke-linecap:round;stroke-linejoin:round;stroke-miterlimit:10;}
	.st1{fill:none;stroke:#000000;stroke-width:3;stroke-linecap:round;stroke-linejoin:round;stroke-miterlimit:10;}
</style>
<path d="M38.64,53.26c2.25-12.35,17.07-21.53,31.19-23.65s33.08-2.82,25.71,7.41c-7.36,10.24-14.77,22.59-8.77,30.35
	s11.17,11.18,3.76,14.36c-7.41,3.18-42.58,9.99-47.52-4.48S37.51,59.52,38.64,53.26z"/>
<path class="st0" d="M50.48,65.48c7.41-4.94,20.42-9.88,28.94-5.65c6.26,3.11,14.47,11.29,8.12,16.24
	c-6.35,4.94-19.06,4.94-26.47,0.71S50.48,65.48,50.48,65.48z"/>
<line class="st1" x1="113.4" y1="32.44" x2="106.69" y2="32.44"/>
<path class="st1" d="M104.77,73.03l3.18,6.84c0,0,8.16-10.82,7.95-22.64c-0.25-13.53-9.21-24.79-9.21-24.79l-1.91,5.29"/>
<line class="st1" x1="114.65" y1="79.87" x2="107.95" y2="79.87"/>
<path class="st1" d="M84.11,17.5c6.35,1.65,10.82,0,10.82,0"/>
<path class="st1" d="M74.22,95.11c0,0,4.71-3.53,9.88-2.59"/>
</svg>
