<?xml version="1.0" encoding="utf-8"?>
<!-- Generator: Adobe Illustrator 25.4.1, SVG Export Plug-In . SVG Version: 6.00 Build 0)  -->
<svg version="1.1" id="Layer_1" xmlns="http://www.w3.org/2000/svg" xmlns:xlink="http://www.w3.org/1999/xlink" x="0px" y="0px"
	 viewBox="0 0 127.56 42.52" style="enable-background:new 0 0 127.56 42.52;" xml:space="preserve">
<style type="text/css">
	.st0{fill:#DBADB0;stroke:#000000;stroke-width:3;stroke-linecap:round;stroke-miterlimit:10;}
	.st1{fill:none;stroke:#000000;stroke-width:3;stroke-linecap:round;stroke-miterlimit:10;}
	.st2{fill:none;stroke:#000000;stroke-width:3;stroke-linecap:round;stroke-linejoin:round;stroke-miterlimit:10;}
	.st3{fill:#DBADB0;stroke:#000000;stroke-width:3;stroke-linecap:round;stroke-linejoin:round;stroke-miterlimit:10;}
</style>
<path class="st0" d="M55.24,26.84c2.64-6.04-1.33-5.22-11.59-7.82c-2.91-0.74-12.36-2.77-19.18-5.99
	c-3.84-1.81-10.35-7.03-11.76-5.05c-2.32,3.26,3.96,13.05,8.24,17.98c7.29,8.4,19.66,9.58,19.66,9.58"/>
<path class="st1" d="M5.65,7.23c0,0,50.82-5.82,50.82,14.49S5.65,37.52,5.65,37.52"/>
<path class="st0" d="M120.97,25.96c0.56-3.53-2.93-2.12-9.21-5.87c-4.25-2.54-8.47-11.29-15.35-11.29l0,0
	c-8.18,0-10.79,6.47-16.41,10.12c-5.33,3.46-9.88,3.52-9.32,7.05"/>
<g>
	<path class="st2" d="M96.12,37.62c0,0,25.41-0.81,25.41-15.19S96.12,7.23,96.12,7.23h-0.59c0,0-25.41,0.81-25.41,15.19
		s25.41,15.19,25.41,15.19H96.12z"/>
</g>
<path class="st3" d="M120.97,25.96c-7.76,9.15-18.56-4.42-25.85-4.42l0,0c-7.29,0-16.68,13.57-24.44,4.42"/>
<path class="st0" d="M24.71,20.09c2.28,4.13,11.21,10,18.94,10"/>
<path class="st3" d="M75.53,30.79c0,0,16.09-9.26,19.59-9.26c3.5,0,21.65,9.98,21.65,9.98s-8.41,6.1-20.65,6.1
	S75.53,30.79,75.53,30.79z"/>
</svg>
