<?xml version="1.0" encoding="utf-8"?>
<!-- Generator: Adobe Illustrator 25.4.1, SVG Export Plug-In . SVG Version: 6.00 Build 0)  -->
<svg version="1.1" id="Layer_1" xmlns="http://www.w3.org/2000/svg" xmlns:xlink="http://www.w3.org/1999/xlink" x="0px" y="0px"
	 viewBox="0 0 127.6 42.5" style="enable-background:new 0 0 127.6 42.5;" xml:space="preserve">
<style type="text/css">
	.st0{fill:#DBADB0;stroke:#000000;stroke-width:3;stroke-linecap:round;stroke-miterlimit:10;}
	.st1{fill:none;stroke:#000000;stroke-width:3;stroke-linecap:round;stroke-miterlimit:10;}
	.st2{fill:none;stroke:#000000;stroke-width:3;stroke-linecap:round;stroke-linejoin:round;stroke-miterlimit:10;}
	.st3{fill:#DBADB0;stroke:#000000;stroke-width:3;stroke-linecap:round;stroke-linejoin:round;stroke-miterlimit:10;}
</style>
<path class="st0" d="M55.2,26.8C51.8,16,49.1,14.3,38.8,11.7c-2.9-0.7-7.5-4.3-13.2-4.7c-4.2-0.3-5.5-0.2-6.9,1.8
	c-2.3,3.3,2.7,13.7,7,18.6c4.5,5.2,15,8.2,15,8.2"/>
<path class="st1" d="M5.7,7.2c0,0,50.8-5.8,50.8,14.5S5.7,37.5,5.7,37.5"/>
<path class="st0" d="M121,26c0.6-3.5-3-7.6-9.3-11.4c-4.2-2.5-11.5-5.8-15.3-5.8l0,0c-3.8,0-10.4,1.8-16,5.4
	c-5.3,3.5-10.3,8.2-9.7,11.8"/>
<g>
	<path class="st2" d="M96.1,37.6c0,0,25.4-0.8,25.4-15.2S96.1,7.2,96.1,7.2h-0.6c0,0-25.4,0.8-25.4,15.2s25.4,15.2,25.4,15.2
		L96.1,37.6L96.1,37.6z"/>
</g>
<path class="st3" d="M121,25c-7.8,9.2-17.6,6.1-24.8,6.1h-0.6c-7.3,0-17.1,3-24.8-6.1"/>
<path class="st0" d="M26.2,19c2.3,4.1,9.7,11.1,17.4,11.1"/>
<path class="st0" d="M77.5,32c0,0,15.1-0.9,18.6-0.9s19.2,0.9,19.2,0.9s-6.9,5.7-19.2,5.7S77.5,32,77.5,32z"/>
</svg>
