<?xml version="1.0" encoding="utf-8"?>
<!-- Generator: Adobe Illustrator 25.4.1, SVG Export Plug-In . SVG Version: 6.00 Build 0)  -->
<svg version="1.1" id="Layer_1" xmlns="http://www.w3.org/2000/svg" xmlns:xlink="http://www.w3.org/1999/xlink" x="0px" y="0px"
	 viewBox="0 0 325.98 411.02" style="enable-background:new 0 0 325.98 411.02;" xml:space="preserve">
<style type="text/css">
	.st0{fill:#FFFFFF;stroke:#000000;stroke-width:6;stroke-linecap:round;stroke-miterlimit:10;}
	.st1{fill:#FFFFFF;stroke:#000000;stroke-width:5;stroke-linecap:round;stroke-miterlimit:10;}
	.st2{fill:none;stroke:#000000;stroke-width:2;stroke-miterlimit:10;}
	.st3{stroke:#000000;stroke-width:2;stroke-miterlimit:10;}
	.st4{fill:none;stroke:#000000;stroke-width:4;stroke-miterlimit:10;}
	.st5{fill:#FFFFFF;stroke:#000000;stroke-width:2;stroke-linecap:round;stroke-miterlimit:10;}
	.st6{fill:none;stroke:#000000;stroke-width:3;stroke-linecap:round;stroke-miterlimit:10;}
	.st7{fill:#E5E5E5;}
	.st8{fill:#FEED70;}
	.st9{fill:none;stroke:#000000;stroke-miterlimit:10;}
</style>
<path class="st0" d="M310.65,399.44H18.93c-3.13,0-5.67-2.54-5.67-5.67V20.52c0-3.13,2.54-5.67,5.67-5.67h291.72
	c3.13,0,5.67,2.54,5.67,5.67v373.25C316.32,396.9,313.78,399.44,310.65,399.44z"/>
<path class="st1" d="M306.65,395.44H14.93c-3.13,0-5.67-2.54-5.67-5.67V16.52c0-3.13,2.54-5.67,5.67-5.67h291.72
	c3.13,0,5.67,2.54,5.67,5.67v373.25C312.32,392.9,309.78,395.44,306.65,395.44z"/>
<path class="st2" d="M87.33,97.54H68.26c-1.04,0-1.89-0.84-1.89-1.89v0c0-1.04,0.84-1.89,1.89-1.89h19.07
	c1.04,0,1.89,0.84,1.89,1.89v0C89.22,96.69,88.37,97.54,87.33,97.54z"/>
<path class="st3" d="M80.04,97.54h-4.89c-1.04,0-1.89-0.84-1.89-1.89v0c0-1.04,0.84-1.89,1.89-1.89h4.89c1.04,0,1.89,0.84,1.89,1.89
	v0C81.93,96.69,81.08,97.54,80.04,97.54z"/>
<path class="st2" d="M124.91,97.54h-19.07c-1.04,0-1.89-0.84-1.89-1.89v0c0-1.04,0.84-1.89,1.89-1.89h19.07
	c1.04,0,1.89,0.84,1.89,1.89v0C126.8,96.69,125.95,97.54,124.91,97.54z"/>
<path class="st3" d="M117.62,97.54h-4.89c-1.04,0-1.89-0.84-1.89-1.89v0c0-1.04,0.84-1.89,1.89-1.89h4.89
	c1.04,0,1.89,0.84,1.89,1.89v0C119.51,96.69,118.67,97.54,117.62,97.54z"/>
<circle class="st4" cx="96.58" cy="95.65" r="38.03"/>
<circle class="st5" cx="28.09" cy="52.66" r="3.88"/>
<circle class="st5" cx="28.09" cy="202.66" r="3.88"/>
<circle class="st5" cx="28.09" cy="352.66" r="3.88"/>
<line class="st6" x1="141.87" y1="113.73" x2="157.24" y2="113.73"/>
<line class="st6" x1="156.11" y1="127.05" x2="142.8" y2="119.37"/>
<line class="st6" x1="142.98" y1="107.83" x2="156.29" y2="100.15"/>
<circle cx="100.27" cy="113.42" r="3.69"/>
<g>
	<g>
		<path d="M48.99,41.81L50,40.59c0.59,0.48,1.32,0.82,2.08,0.82c0.75,0,1.1-0.29,1.1-0.67c0-0.56-0.46-0.7-1.2-1.01l-1.02-0.43
			c-0.87-0.33-1.66-0.99-1.66-2.13c0-1.29,1.17-2.33,2.86-2.33c0.94,0,1.89,0.35,2.6,1.02l-0.89,1.12c-0.55-0.4-1.04-0.61-1.8-0.61
			c-0.58,0-0.98,0.24-0.98,0.7c0,0.47,0.52,0.64,1.27,0.92l0.96,0.41c1.02,0.38,1.67,1.02,1.67,2.12c0,1.3-1.09,2.42-3.02,2.42
			C50.91,42.94,49.82,42.55,48.99,41.81z"/>
		<path d="M56.15,39.82c0-1.98,1.46-3.12,3.03-3.12s3.03,1.14,3.03,3.12c0,1.97-1.46,3.12-3.03,3.12S56.15,41.79,56.15,39.82z
			 M60.41,39.82c0-1.03-0.41-1.7-1.23-1.7s-1.23,0.67-1.23,1.7c0,1.03,0.42,1.69,1.23,1.69S60.41,40.85,60.41,39.82z"/>
		<path d="M63.53,40.52v-3.67h1.77v3.45c0,0.79,0.21,1.14,0.87,1.14c0.44,0,0.75-0.16,1.15-0.68v-3.91h1.77v5.95h-1.44l-0.13-0.86
			h-0.05c-0.53,0.61-1.15,1-2.01,1C64.1,42.94,63.53,42.02,63.53,40.52z"/>
		<path d="M70.85,36.84h1.44l0.13,0.79h0.05c0.52-0.51,1.17-0.94,2.06-0.94c1.34,0,1.94,0.92,1.94,2.42v3.67h-1.77v-3.45
			c0-0.79-0.23-1.14-0.87-1.14c-0.47,0-0.79,0.22-1.2,0.62v3.97h-1.77V36.84z"/>
		<path d="M77.75,39.82c0-1.95,1.25-3.12,2.54-3.12c0.65,0,1.1,0.23,1.5,0.64h0.04l-0.08-0.92v-2.03h1.77v8.4h-1.44l-0.13-0.61
			h-0.04c-0.44,0.43-1.05,0.75-1.65,0.75C78.74,42.94,77.75,41.76,77.75,39.82z M81.75,40.94v-2.4c-0.32-0.29-0.65-0.39-1-0.39
			c-0.64,0-1.2,0.52-1.2,1.66c0,1.17,0.43,1.69,1.15,1.69C81.11,41.49,81.44,41.34,81.75,40.94z"/>
		<path d="M94.3,36.46h-2.34v-1.48h6.46v1.48h-2.34v6.33H94.3V36.46z"/>
		<path d="M99.53,40.52v-3.67h1.77v3.45c0,0.79,0.21,1.14,0.87,1.14c0.44,0,0.75-0.16,1.15-0.68v-3.91h1.77v5.95h-1.44l-0.13-0.86
			h-0.05c-0.53,0.61-1.15,1-2.01,1C100.1,42.94,99.53,42.02,99.53,40.52z"/>
		<path d="M106.85,36.84h1.44l0.13,0.79h0.05c0.52-0.51,1.17-0.94,2.06-0.94c1.34,0,1.94,0.92,1.94,2.42v3.67h-1.77v-3.45
			c0-0.79-0.23-1.14-0.87-1.14c-0.47,0-0.79,0.22-1.2,0.62v3.97h-1.77V36.84z"/>
		<path d="M116.52,38.23h-2.4v-1.38h4.16v5.95h-1.77V38.23z M116.15,34.83c0-0.65,0.49-1.1,1.17-1.1s1.17,0.45,1.17,1.1
			c0,0.65-0.49,1.08-1.17,1.08S116.15,35.48,116.15,34.83z"/>
		<path d="M121.25,36.84h1.44l0.13,0.79h0.05c0.52-0.51,1.17-0.94,2.06-0.94c1.34,0,1.94,0.92,1.94,2.42v3.67h-1.77v-3.45
			c0-0.79-0.23-1.14-0.87-1.14c-0.47,0-0.79,0.22-1.2,0.62v3.97h-1.77V36.84z"/>
		<path d="M128.2,43.8c0-0.49,0.32-0.88,0.92-1.19v-0.05c-0.33-0.2-0.6-0.51-0.6-1.01c0-0.4,0.29-0.83,0.71-1.12v-0.05
			c-0.44-0.29-0.79-0.83-0.79-1.53c0-1.43,1.2-2.16,2.55-2.16c0.35,0,0.69,0.05,0.98,0.14h2.42v1.3h-1.2
			c0.13,0.18,0.26,0.47,0.26,0.78c0,1.37-1.07,1.99-2.45,1.99c-0.24,0-0.52-0.04-0.82-0.12c-0.18,0.13-0.27,0.24-0.27,0.44
			c0,0.32,0.31,0.45,1.01,0.45h1.1c1.56,0,2.42,0.44,2.42,1.5c0,1.24-1.38,2.14-3.55,2.14C129.35,45.32,128.2,44.86,128.2,43.8z
			 M132.77,43.48c0-0.38-0.37-0.46-1.05-0.46h-0.75c-0.43,0-0.69-0.02-0.91-0.08c-0.3,0.19-0.42,0.37-0.42,0.58
			c0,0.45,0.58,0.67,1.51,0.67C132.11,44.2,132.77,43.89,132.77,43.48z M131.91,38.85c0-0.62-0.41-0.97-0.9-0.97
			c-0.49,0-0.89,0.34-0.89,0.97c0,0.65,0.4,0.99,0.89,0.99C131.5,39.84,131.91,39.5,131.91,38.85z"/>
	</g>
</g>
<g>
	<g>
		<path d="M179.53,148.67h5.18v1.48h-3.41v1.57h2.9v1.48h-2.9v1.8h3.53v1.48h-5.3V148.67z"/>
		<path d="M188.12,153.39l-1.93-2.86h1.9l0.61,0.96c0.18,0.33,0.42,0.69,0.61,1.02h0.05c0.16-0.33,0.34-0.69,0.5-1.02l0.53-0.96
			h1.84l-1.94,3.05l2.07,2.9h-1.9l-0.68-0.98c-0.22-0.33-0.46-0.7-0.68-1.04h-0.05c-0.18,0.34-0.38,0.69-0.55,1.04l-0.59,0.98h-1.84
			L188.12,153.39z"/>
		<path d="M195.02,155.22c0-0.78,0.57-1.41,1.4-1.41s1.4,0.63,1.4,1.41c0,0.79-0.57,1.41-1.4,1.41S195.02,156.01,195.02,155.22z"/>
		<path d="M208.02,153.51c0-1.98,1.61-3.12,3.44-3.12c0.94,0,1.73,0.33,2.23,0.81l-0.81,1.09c-0.45-0.33-0.87-0.48-1.32-0.48
			c-1.02,0-1.73,0.67-1.73,1.7c0,1.03,0.69,1.69,1.67,1.69c0.62,0,1.14-0.27,1.57-0.57l0.71,1.11c-0.72,0.6-1.63,0.88-2.44,0.88
			C209.46,156.62,208.02,155.48,208.02,153.51z"/>
		<path d="M215.16,154.21v-3.67h1.77v3.45c0,0.79,0.21,1.14,0.87,1.14c0.44,0,0.75-0.16,1.15-0.68v-3.91h1.77v5.95h-1.44l-0.13-0.86
			h-0.05c-0.53,0.61-1.15,1-2.01,1C215.73,156.62,215.16,155.71,215.16,154.21z"/>
		<path d="M223.71,154.02v-2.1h-1.5v-1.31l1.58-0.07l0.23-1.82h1.46v1.82h2.51v1.38h-2.51v2.08c0,0.91,0.38,1.25,1.25,1.25
			c0.44,0,0.82-0.09,1.17-0.21l0.32,1.28c-0.53,0.16-1.15,0.32-1.94,0.32C224.38,156.62,223.71,155.58,223.71,154.02z"/>
		<path d="M236.85,151.9h5.52v1.25h-5.52V151.9z"/>
		<path d="M244.39,154.51l3.18-1.99v-0.05l-3.18-1.99v-1.6l4.64,3v1.22l-4.64,3V154.51z"/>
		<path d="M258.22,151.09c0-1.3,0.7-2.32,2.1-2.96l0.46,0.93c-0.89,0.4-1.34,0.99-1.34,1.82l0.07,1.14l-0.71-0.98
			c0.22-0.19,0.58-0.35,0.89-0.35c0.64,0,1.09,0.44,1.09,1.1c0,0.73-0.48,1.21-1.15,1.21C258.74,153,258.22,152.29,258.22,151.09z
			 M261.42,151.09c0-1.3,0.7-2.32,2.1-2.96l0.46,0.93c-0.89,0.4-1.34,0.99-1.34,1.82l0.07,1.14l-0.71-0.98
			c0.22-0.19,0.58-0.35,0.89-0.35c0.64,0,1.09,0.44,1.09,1.1c0,0.73-0.48,1.21-1.15,1.21C261.93,153,261.42,152.29,261.42,151.09z"
			/>
		<path d="M266.91,154.02v-2.1h-1.5v-1.31l1.58-0.07l0.23-1.82h1.46v1.82h2.51v1.38h-2.51v2.08c0,0.91,0.38,1.25,1.25,1.25
			c0.45,0,0.83-0.09,1.18-0.21l0.32,1.28c-0.53,0.16-1.15,0.32-1.94,0.32C267.58,156.62,266.91,155.58,266.91,154.02z"/>
		<path d="M272.84,152.08c0.89-0.41,1.35-0.99,1.35-1.82l-0.08-1.14l0.71,0.98c-0.22,0.19-0.58,0.35-0.88,0.35
			c-0.64,0-1.09-0.44-1.09-1.1c0-0.73,0.48-1.21,1.15-1.21c0.89,0,1.41,0.71,1.41,1.92c0,1.3-0.7,2.32-2.1,2.96L272.84,152.08z
			 M276.03,152.08c0.89-0.41,1.35-0.99,1.35-1.82l-0.08-1.14l0.71,0.98c-0.22,0.19-0.58,0.35-0.88,0.35c-0.64,0-1.09-0.44-1.09-1.1
			c0-0.73,0.48-1.21,1.15-1.21c0.9,0,1.41,0.71,1.41,1.92c0,1.3-0.7,2.32-2.1,2.96L276.03,152.08z"/>
		<path d="M136.02,167.91c0-1.98,1.61-3.12,3.44-3.12c0.94,0,1.73,0.33,2.23,0.81l-0.81,1.09c-0.45-0.33-0.87-0.48-1.32-0.48
			c-1.02,0-1.73,0.67-1.73,1.7c0,1.03,0.69,1.69,1.67,1.69c0.62,0,1.14-0.27,1.57-0.57l0.71,1.11c-0.72,0.6-1.63,0.88-2.44,0.88
			C137.46,171.03,136.02,169.88,136.02,167.91z"/>
		<path d="M143.16,168.61v-3.67h1.77v3.45c0,0.79,0.21,1.14,0.87,1.14c0.44,0,0.75-0.16,1.15-0.68v-3.91h1.77v5.95h-1.44l-0.13-0.86
			h-0.05c-0.53,0.61-1.15,1-2.01,1C143.74,171.03,143.16,170.11,143.16,168.61z"/>
		<path d="M151.71,168.42v-2.1h-1.5V165l1.58-0.07l0.23-1.82h1.46v1.82h2.51v1.38h-2.51v2.08c0,0.91,0.38,1.25,1.25,1.25
			c0.44,0,0.82-0.09,1.18-0.21l0.32,1.28c-0.53,0.16-1.15,0.32-1.94,0.32C152.38,171.03,151.71,169.98,151.71,168.42z"/>
		<path d="M158.91,168.42v-2.1h-1.5V165l1.58-0.07l0.23-1.82h1.46v1.82h2.51v1.38h-2.51v2.08c0,0.91,0.38,1.25,1.25,1.25
			c0.44,0,0.82-0.09,1.18-0.21l0.32,1.28c-0.53,0.16-1.15,0.32-1.94,0.32C159.58,171.03,158.91,169.98,158.91,168.42z"/>
		<path d="M167.35,166.32h-2.4v-1.38h4.16v5.95h-1.77V166.32z M166.98,162.92c0-0.65,0.49-1.1,1.17-1.1s1.17,0.45,1.17,1.1
			c0,0.65-0.49,1.08-1.17,1.08S166.98,163.57,166.98,162.92z"/>
		<path d="M172.08,164.93h1.44l0.13,0.79h0.05c0.52-0.51,1.17-0.94,2.06-0.94c1.34,0,1.94,0.92,1.94,2.42v3.67h-1.77v-3.45
			c0-0.79-0.23-1.14-0.87-1.14c-0.47,0-0.79,0.22-1.2,0.62v3.97h-1.77V164.93z"/>
		<path d="M179.04,171.89c0-0.49,0.32-0.88,0.92-1.19v-0.05c-0.33-0.2-0.6-0.51-0.6-1.01c0-0.4,0.29-0.83,0.71-1.12v-0.05
			c-0.44-0.29-0.79-0.83-0.79-1.53c0-1.43,1.2-2.16,2.55-2.16c0.35,0,0.69,0.05,0.98,0.14h2.42v1.3h-1.2
			c0.13,0.18,0.26,0.47,0.26,0.78c0,1.37-1.07,1.99-2.45,1.99c-0.24,0-0.52-0.04-0.82-0.12c-0.18,0.13-0.27,0.24-0.27,0.44
			c0,0.32,0.31,0.45,1.01,0.45h1.1c1.56,0,2.42,0.44,2.42,1.5c0,1.24-1.38,2.14-3.55,2.14
			C180.19,173.41,179.04,172.96,179.04,171.89z M183.6,171.57c0-0.38-0.37-0.46-1.05-0.46h-0.75c-0.43,0-0.69-0.02-0.91-0.08
			c-0.3,0.19-0.42,0.37-0.42,0.58c0,0.45,0.58,0.67,1.51,0.67C182.95,172.29,183.6,171.98,183.6,171.57z M182.74,166.94
			c0-0.62-0.41-0.97-0.9-0.97c-0.49,0-0.89,0.34-0.89,0.97c0,0.65,0.4,0.99,0.89,0.99C182.33,167.93,182.74,167.59,182.74,166.94z"
			/>
		<path d="M193.66,166.3h5.52v1.25h-5.52V166.3z"/>
		<path d="M201.19,168.91l3.18-1.99v-0.05l-3.18-1.99v-1.6l4.64,3v1.22l-4.64,3V168.91z"/>
		<path d="M215.03,165.49c0-1.3,0.7-2.32,2.1-2.96l0.46,0.93c-0.89,0.4-1.34,0.99-1.34,1.82l0.07,1.14l-0.71-0.98
			c0.22-0.19,0.58-0.35,0.89-0.35c0.64,0,1.09,0.44,1.09,1.1c0,0.73-0.48,1.21-1.15,1.21C215.54,167.41,215.03,166.69,215.03,165.49
			z M218.22,165.49c0-1.3,0.7-2.32,2.1-2.96l0.46,0.93c-0.89,0.4-1.34,0.99-1.34,1.82l0.07,1.14l-0.71-0.98
			c0.22-0.19,0.58-0.35,0.89-0.35c0.64,0,1.09,0.44,1.09,1.1c0,0.73-0.48,1.21-1.15,1.21C218.73,167.41,218.22,166.69,218.22,165.49
			z"/>
		<path d="M222.42,167.91c0-1.98,1.61-3.12,3.44-3.12c0.94,0,1.73,0.33,2.23,0.81l-0.81,1.09c-0.45-0.33-0.87-0.48-1.32-0.48
			c-1.02,0-1.73,0.67-1.73,1.7c0,1.03,0.7,1.69,1.67,1.69c0.62,0,1.14-0.27,1.57-0.57l0.71,1.11c-0.72,0.6-1.63,0.88-2.44,0.88
			C223.86,171.03,222.42,169.88,222.42,167.91z"/>
		<path d="M229.56,168.61v-3.67h1.77v3.45c0,0.79,0.21,1.14,0.87,1.14c0.44,0,0.75-0.16,1.15-0.68v-3.91h1.77v5.95h-1.44l-0.13-0.86
			h-0.05c-0.53,0.61-1.15,1-2.01,1C230.13,171.03,229.56,170.11,229.56,168.61z"/>
		<path d="M236.58,167.91c0-1.95,1.25-3.12,2.54-3.12c0.65,0,1.1,0.23,1.5,0.64h0.04l-0.08-0.92v-2.03h1.77v8.4h-1.44l-0.13-0.61
			h-0.04c-0.44,0.43-1.05,0.75-1.65,0.75C237.57,171.03,236.58,169.85,236.58,167.91z M240.58,169.03v-2.4
			c-0.32-0.29-0.65-0.39-1-0.39c-0.64,0-1.2,0.52-1.2,1.66c0,1.17,0.43,1.69,1.15,1.69C239.94,169.58,240.27,169.43,240.58,169.03z"
			/>
		<path d="M243.78,167.91c0-1.95,1.25-3.12,2.54-3.12c0.65,0,1.1,0.23,1.5,0.64h0.04l-0.08-0.92v-2.03h1.77v8.4h-1.44l-0.13-0.61
			h-0.04c-0.44,0.43-1.05,0.75-1.65,0.75C244.77,171.03,243.78,169.85,243.78,167.91z M247.78,169.03v-2.4
			c-0.32-0.29-0.65-0.39-1-0.39c-0.64,0-1.2,0.52-1.2,1.66c0,1.17,0.43,1.69,1.15,1.69C247.14,169.58,247.47,169.43,247.78,169.03z"
			/>
		<path d="M253.75,166.32h-2.4v-1.38h4.16v5.95h-1.77V166.32z M253.38,162.92c0-0.65,0.49-1.1,1.17-1.1s1.17,0.45,1.17,1.1
			c0,0.65-0.49,1.08-1.17,1.08S253.38,163.57,253.38,162.92z"/>
		<path d="M258.48,164.93h1.44l0.13,0.79h0.05c0.52-0.51,1.17-0.94,2.06-0.94c1.34,0,1.94,0.92,1.94,2.42v3.67h-1.77v-3.45
			c0-0.79-0.23-1.14-0.87-1.14c-0.47,0-0.79,0.22-1.2,0.62v3.97h-1.77V164.93z"/>
		<path d="M265.44,171.89c0-0.49,0.32-0.88,0.92-1.19v-0.05c-0.33-0.2-0.6-0.51-0.6-1.01c0-0.4,0.29-0.83,0.71-1.12v-0.05
			c-0.44-0.29-0.79-0.83-0.79-1.53c0-1.43,1.2-2.16,2.55-2.16c0.35,0,0.69,0.05,0.98,0.14h2.42v1.3h-1.2
			c0.13,0.18,0.26,0.47,0.26,0.78c0,1.37-1.07,1.99-2.45,1.99c-0.24,0-0.52-0.04-0.82-0.12c-0.18,0.13-0.27,0.24-0.27,0.44
			c0,0.32,0.31,0.45,1.01,0.45h1.1c1.56,0,2.42,0.44,2.42,1.5c0,1.24-1.38,2.14-3.55,2.14
			C266.58,173.41,265.44,172.96,265.44,171.89z M270,171.57c0-0.38-0.37-0.46-1.05-0.46h-0.75c-0.43,0-0.69-0.02-0.91-0.08
			c-0.3,0.19-0.42,0.37-0.42,0.58c0,0.45,0.58,0.67,1.51,0.67C269.34,172.29,270,171.98,270,171.57z M269.14,166.94
			c0-0.62-0.41-0.97-0.9-0.97c-0.49,0-0.89,0.34-0.89,0.97c0,0.65,0.4,0.99,0.89,0.99C268.73,167.93,269.14,167.59,269.14,166.94z"
			/>
		<path d="M272.84,166.48c0.89-0.41,1.35-0.99,1.35-1.82l-0.08-1.14l0.71,0.98c-0.22,0.19-0.58,0.35-0.88,0.35
			c-0.64,0-1.09-0.44-1.09-1.1c0-0.73,0.48-1.21,1.15-1.21c0.89,0,1.41,0.71,1.41,1.92c0,1.3-0.7,2.32-2.1,2.96L272.84,166.48z
			 M276.03,166.48c0.89-0.41,1.35-0.99,1.35-1.82l-0.08-1.14l0.71,0.98c-0.22,0.19-0.58,0.35-0.88,0.35c-0.64,0-1.09-0.44-1.09-1.1
			c0-0.73,0.48-1.21,1.15-1.21c0.9,0,1.41,0.71,1.41,1.92c0,1.3-0.7,2.32-2.1,2.96L276.03,166.48z"/>
	</g>
</g>
<rect x="186.61" y="57.19" class="st7" width="94.98" height="84.06"/>
<rect x="181.61" y="52.19" class="st8" width="94.98" height="84.06"/>
<g>
	<g>
		<path d="M192.58,64.36c0-1.3,0.7-2.32,2.1-2.96l0.46,0.93c-0.89,0.4-1.34,0.99-1.34,1.82l0.07,1.14l-0.71-0.98
			c0.22-0.19,0.58-0.35,0.88-0.35c0.64,0,1.09,0.44,1.09,1.1c0,0.73-0.48,1.21-1.15,1.21C193.1,66.27,192.58,65.56,192.58,64.36z
			 M195.77,64.36c0-1.3,0.7-2.32,2.1-2.96l0.46,0.93c-0.89,0.4-1.34,0.99-1.34,1.82l0.07,1.14l-0.71-0.98
			c0.22-0.19,0.58-0.35,0.89-0.35c0.64,0,1.09,0.44,1.09,1.1c0,0.73-0.48,1.21-1.15,1.21C196.29,66.27,195.77,65.56,195.77,64.36z"
			/>
		<path d="M201.26,67.29v-2.1h-1.5v-1.31l1.58-0.07l0.23-1.82h1.46v1.82h2.51v1.38h-2.51v2.08c0,0.91,0.38,1.25,1.25,1.25
			c0.44,0,0.82-0.09,1.17-0.21l0.32,1.28c-0.53,0.16-1.15,0.32-1.94,0.32C201.94,69.9,201.26,68.85,201.26,67.29z"/>
		<path d="M207.2,65.35c0.89-0.41,1.35-0.99,1.35-1.82l-0.08-1.14l0.71,0.98c-0.22,0.19-0.58,0.35-0.88,0.35
			c-0.64,0-1.09-0.44-1.09-1.1c0-0.73,0.48-1.21,1.15-1.21c0.9,0,1.41,0.71,1.41,1.92c0,1.3-0.7,2.32-2.1,2.96L207.2,65.35z
			 M210.39,65.35c0.89-0.41,1.35-0.99,1.35-1.82l-0.08-1.14l0.71,0.98c-0.22,0.19-0.58,0.35-0.88,0.35c-0.64,0-1.09-0.44-1.09-1.1
			c0-0.73,0.48-1.21,1.15-1.21c0.89,0,1.41,0.71,1.41,1.92c0,1.3-0.7,2.32-2.1,2.96L210.39,65.35z"/>
		<path d="M221.61,65.17h5.52v1.25h-5.52V65.17z"/>
		<path d="M229.15,67.78l3.18-1.99v-0.05l-3.18-1.99v-1.6l4.64,3v1.22l-4.64,3V67.78z"/>
		<path d="M242.98,64.36c0-1.3,0.7-2.32,2.1-2.96l0.46,0.93c-0.89,0.4-1.34,0.99-1.34,1.82l0.07,1.14l-0.71-0.98
			c0.22-0.19,0.58-0.35,0.89-0.35c0.64,0,1.09,0.44,1.09,1.1c0,0.73-0.48,1.21-1.15,1.21C243.5,66.27,242.98,65.56,242.98,64.36z
			 M246.17,64.36c0-1.3,0.7-2.32,2.1-2.96l0.46,0.93c-0.89,0.4-1.34,0.99-1.34,1.82l0.07,1.14l-0.71-0.98
			c0.22-0.19,0.58-0.35,0.89-0.35c0.64,0,1.09,0.44,1.09,1.1c0,0.73-0.48,1.21-1.15,1.21C246.69,66.27,246.17,65.56,246.17,64.36z"
			/>
		<path d="M250.14,66.78c0-1.95,1.25-3.12,2.54-3.12c0.65,0,1.1,0.23,1.5,0.64h0.04l-0.08-0.92v-2.03h1.77v8.4h-1.44l-0.13-0.61
			h-0.04c-0.44,0.43-1.05,0.75-1.65,0.75C251.13,69.9,250.14,68.72,250.14,66.78z M254.14,67.9v-2.4c-0.32-0.29-0.65-0.39-1-0.39
			c-0.64,0-1.2,0.52-1.2,1.66c0,1.17,0.43,1.69,1.15,1.69C253.5,68.45,253.83,68.3,254.14,67.9z"/>
		<path d="M257.6,65.35c0.89-0.41,1.35-0.99,1.35-1.82l-0.08-1.14l0.71,0.98c-0.22,0.19-0.58,0.35-0.88,0.35
			c-0.64,0-1.09-0.44-1.09-1.1c0-0.73,0.48-1.21,1.15-1.21c0.9,0,1.41,0.71,1.41,1.92c0,1.3-0.7,2.32-2.1,2.96L257.6,65.35z
			 M260.79,65.35c0.89-0.41,1.35-0.99,1.35-1.82l-0.08-1.14l0.71,0.98c-0.22,0.19-0.58,0.35-0.88,0.35c-0.64,0-1.09-0.44-1.09-1.1
			c0-0.73,0.48-1.21,1.15-1.21c0.89,0,1.41,0.71,1.41,1.92c0,1.3-0.7,2.32-2.1,2.96L260.79,65.35z"/>
		<path d="M185.38,78.76c0-1.3,0.7-2.32,2.1-2.96l0.46,0.93c-0.89,0.4-1.34,0.99-1.34,1.82l0.07,1.14l-0.71-0.98
			c0.22-0.19,0.58-0.35,0.89-0.35c0.64,0,1.09,0.44,1.09,1.1c0,0.73-0.48,1.21-1.15,1.21C185.9,80.68,185.38,79.96,185.38,78.76z
			 M188.58,78.76c0-1.3,0.7-2.32,2.1-2.96l0.46,0.93c-0.89,0.4-1.34,0.99-1.34,1.82l0.07,1.14l-0.71-0.98
			c0.22-0.19,0.58-0.35,0.89-0.35c0.64,0,1.09,0.44,1.09,1.1c0,0.73-0.48,1.21-1.15,1.21C189.09,80.68,188.58,79.96,188.58,78.76z"
			/>
		<path d="M192.71,82.5c0-1.33,1.1-2.01,3.91-2.18c-0.06-0.53-0.46-0.86-1.26-0.86c-0.57,0-1.14,0.22-1.81,0.56l-0.63-1.16
			c0.83-0.47,1.77-0.8,2.78-0.8c1.67,0,2.69,0.87,2.69,2.69v3.4h-1.44l-0.13-0.67h-0.04c-0.6,0.45-1.34,0.81-2.11,0.81
			C193.46,84.3,192.71,83.5,192.71,82.5z M196.62,82.36v-0.97c-1.75,0.09-2.22,0.47-2.22,0.97c0,0.38,0.32,0.57,0.82,0.57
			C195.75,82.93,196.2,82.69,196.62,82.36z"/>
		<path d="M201.64,81.82v-4.69h-1.87v-1.38h3.64v6.15c0,0.74,0.47,0.97,0.97,0.97c0.28,0,0.57-0.06,0.93-0.2l0.39,1.3
			c-0.62,0.2-1.04,0.32-1.78,0.32C202.42,84.3,201.64,83.33,201.64,81.82z"/>
		<path d="M207.2,79.75c0.89-0.41,1.35-0.99,1.35-1.82l-0.08-1.14l0.71,0.98c-0.22,0.19-0.58,0.35-0.88,0.35
			c-0.64,0-1.09-0.44-1.09-1.1c0-0.73,0.48-1.21,1.15-1.21c0.9,0,1.41,0.71,1.41,1.92c0,1.3-0.7,2.32-2.1,2.96L207.2,79.75z
			 M210.39,79.75c0.89-0.41,1.35-0.99,1.35-1.82l-0.08-1.14l0.71,0.98c-0.22,0.19-0.58,0.35-0.88,0.35c-0.64,0-1.09-0.44-1.09-1.1
			c0-0.73,0.48-1.21,1.15-1.21c0.89,0,1.41,0.71,1.41,1.92c0,1.3-0.7,2.32-2.1,2.96L210.39,79.75z"/>
		<path d="M221.61,79.57h5.52v1.25h-5.52V79.57z"/>
		<path d="M229.15,82.18l3.18-1.99v-0.05l-3.18-1.99v-1.6l4.64,3v1.22l-4.64,3V82.18z"/>
		<path d="M242.98,78.76c0-1.3,0.7-2.32,2.1-2.96l0.46,0.93c-0.89,0.4-1.34,0.99-1.34,1.82l0.07,1.14l-0.71-0.98
			c0.22-0.19,0.58-0.35,0.89-0.35c0.64,0,1.09,0.44,1.09,1.1c0,0.73-0.48,1.21-1.15,1.21C243.5,80.68,242.98,79.96,242.98,78.76z
			 M246.17,78.76c0-1.3,0.7-2.32,2.1-2.96l0.46,0.93c-0.89,0.4-1.34,0.99-1.34,1.82l0.07,1.14l-0.71-0.98
			c0.22-0.19,0.58-0.35,0.89-0.35c0.64,0,1.09,0.44,1.09,1.1c0,0.73-0.48,1.21-1.15,1.21C246.69,80.68,246.17,79.96,246.17,78.76z"
			/>
		<path d="M250.32,81.88V78.2h1.77v3.45c0,0.79,0.21,1.14,0.87,1.14c0.44,0,0.75-0.16,1.15-0.68V78.2h1.77v5.95h-1.44l-0.13-0.86
			h-0.05c-0.53,0.61-1.15,1-2.01,1C250.89,84.3,250.32,83.38,250.32,81.88z"/>
		<path d="M259.24,81.82v-4.69h-1.87v-1.38h3.64v6.15c0,0.74,0.47,0.97,0.97,0.97c0.28,0,0.57-0.06,0.93-0.2l0.39,1.3
			c-0.62,0.2-1.04,0.32-1.78,0.32C260.02,84.3,259.24,83.33,259.24,81.82z"/>
		<path d="M264.8,79.75c0.89-0.41,1.35-0.99,1.35-1.82l-0.08-1.14l0.71,0.98c-0.22,0.19-0.58,0.35-0.88,0.35
			c-0.64,0-1.09-0.44-1.09-1.1c0-0.73,0.48-1.21,1.15-1.21c0.9,0,1.41,0.71,1.41,1.92c0,1.3-0.7,2.32-2.1,2.96L264.8,79.75z
			 M267.99,79.75c0.89-0.41,1.35-0.99,1.35-1.82l-0.08-1.14l0.71,0.98c-0.22,0.19-0.58,0.35-0.88,0.35c-0.64,0-1.09-0.44-1.09-1.1
			c0-0.73,0.48-1.21,1.15-1.21c0.89,0,1.41,0.71,1.41,1.92c0,1.3-0.7,2.32-2.1,2.96L267.99,79.75z"/>
		<path d="M192.58,93.16c0-1.3,0.7-2.32,2.1-2.96l0.46,0.93c-0.89,0.4-1.34,0.99-1.34,1.82l0.07,1.14l-0.71-0.98
			c0.22-0.19,0.58-0.35,0.88-0.35c0.64,0,1.09,0.44,1.09,1.1c0,0.73-0.48,1.21-1.15,1.21C193.1,95.07,192.58,94.36,192.58,93.16z
			 M195.77,93.16c0-1.3,0.7-2.32,2.1-2.96l0.46,0.93c-0.89,0.4-1.34,0.99-1.34,1.82l0.07,1.14l-0.71-0.98
			c0.22-0.19,0.58-0.35,0.89-0.35c0.64,0,1.09,0.44,1.09,1.1c0,0.73-0.48,1.21-1.15,1.21C196.29,95.07,195.77,94.36,195.77,93.16z"
			/>
		<path d="M199.74,95.58c0-1.98,1.46-3.12,3.03-3.12c1.57,0,3.03,1.14,3.03,3.12c0,1.97-1.46,3.12-3.03,3.12
			C201.2,98.69,199.74,97.55,199.74,95.58z M204,95.58c0-1.03-0.42-1.7-1.23-1.7s-1.23,0.67-1.23,1.7c0,1.03,0.41,1.69,1.23,1.69
			S204,96.61,204,95.58z"/>
		<path d="M207.2,94.15c0.89-0.41,1.35-0.99,1.35-1.82l-0.08-1.14l0.71,0.98c-0.22,0.19-0.58,0.35-0.88,0.35
			c-0.64,0-1.09-0.44-1.09-1.1c0-0.73,0.48-1.21,1.15-1.21c0.9,0,1.41,0.71,1.41,1.92c0,1.3-0.7,2.32-2.1,2.96L207.2,94.15z
			 M210.39,94.15c0.89-0.41,1.35-0.99,1.35-1.82l-0.08-1.14l0.71,0.98c-0.22,0.19-0.58,0.35-0.88,0.35c-0.64,0-1.09-0.44-1.09-1.1
			c0-0.73,0.48-1.21,1.15-1.21c0.89,0,1.41,0.71,1.41,1.92c0,1.3-0.7,2.32-2.1,2.96L210.39,94.15z"/>
		<path d="M221.61,93.97h5.52v1.25h-5.52V93.97z"/>
		<path d="M229.15,96.58l3.18-1.99v-0.05l-3.18-1.99v-1.6l4.64,3v1.22l-4.64,3V96.58z"/>
		<path d="M242.98,93.16c0-1.3,0.7-2.32,2.1-2.96l0.46,0.93c-0.89,0.4-1.34,0.99-1.34,1.82l0.07,1.14l-0.71-0.98
			c0.22-0.19,0.58-0.35,0.89-0.35c0.64,0,1.09,0.44,1.09,1.1c0,0.73-0.48,1.21-1.15,1.21C243.5,95.07,242.98,94.36,242.98,93.16z
			 M246.17,93.16c0-1.3,0.7-2.32,2.1-2.96l0.46,0.93c-0.89,0.4-1.34,0.99-1.34,1.82l0.07,1.14l-0.71-0.98
			c0.22-0.19,0.58-0.35,0.89-0.35c0.64,0,1.09,0.44,1.09,1.1c0,0.73-0.48,1.21-1.15,1.21C246.69,95.07,246.17,94.36,246.17,93.16z"
			/>
		<path d="M250.14,95.58c0-1.98,1.46-3.12,3.03-3.12c1.57,0,3.03,1.14,3.03,3.12c0,1.97-1.46,3.12-3.03,3.12
			C251.6,98.69,250.14,97.55,250.14,95.58z M254.4,95.58c0-1.03-0.42-1.7-1.23-1.7s-1.23,0.67-1.23,1.7c0,1.03,0.41,1.69,1.23,1.69
			S254.4,96.61,254.4,95.58z"/>
		<path d="M258.16,92.6h1.45l0.14,1.3h0.04c0.58-0.97,1.46-1.45,2.41-1.45c0.52,0,0.8,0.09,1.14,0.24l-0.36,1.48
			c-0.37-0.11-0.62-0.17-1.05-0.17c-0.74,0-1.5,0.38-2.01,1.45v3.09h-1.77V92.6z"/>
		<path d="M264.8,94.15c0.89-0.41,1.35-0.99,1.35-1.82l-0.08-1.14l0.71,0.98c-0.22,0.19-0.58,0.35-0.88,0.35
			c-0.64,0-1.09-0.44-1.09-1.1c0-0.73,0.48-1.21,1.15-1.21c0.9,0,1.41,0.71,1.41,1.92c0,1.3-0.7,2.32-2.1,2.96L264.8,94.15z
			 M267.99,94.15c0.89-0.41,1.35-0.99,1.35-1.82l-0.08-1.14l0.71,0.98c-0.22,0.19-0.58,0.35-0.88,0.35c-0.64,0-1.09-0.44-1.09-1.1
			c0-0.73,0.48-1.21,1.15-1.21c0.89,0,1.41,0.71,1.41,1.92c0,1.3-0.7,2.32-2.1,2.96L267.99,94.15z"/>
		<path d="M192.58,107.56c0-1.3,0.7-2.32,2.1-2.96l0.46,0.93c-0.89,0.4-1.34,0.99-1.34,1.82l0.07,1.14l-0.71-0.98
			c0.22-0.19,0.58-0.35,0.88-0.35c0.64,0,1.09,0.44,1.09,1.1c0,0.73-0.48,1.21-1.15,1.21C193.1,109.48,192.58,108.76,192.58,107.56z
			 M195.77,107.56c0-1.3,0.7-2.32,2.1-2.96l0.46,0.93c-0.89,0.4-1.34,0.99-1.34,1.82l0.07,1.14l-0.71-0.98
			c0.22-0.19,0.58-0.35,0.89-0.35c0.64,0,1.09,0.44,1.09,1.1c0,0.73-0.48,1.21-1.15,1.21C196.29,109.48,195.77,108.76,195.77,107.56
			z"/>
		<path d="M201.26,110.49v-2.1h-1.5v-1.31l1.58-0.07l0.23-1.82h1.46V107h2.51v1.38h-2.51v2.08c0,0.91,0.38,1.25,1.25,1.25
			c0.44,0,0.82-0.09,1.17-0.21l0.32,1.28c-0.53,0.16-1.15,0.32-1.94,0.32C201.94,113.1,201.26,112.05,201.26,110.49z"/>
		<path d="M207.2,108.55c0.89-0.41,1.35-0.99,1.35-1.82l-0.08-1.14l0.71,0.98c-0.22,0.19-0.58,0.35-0.88,0.35
			c-0.64,0-1.09-0.44-1.09-1.1c0-0.73,0.48-1.21,1.15-1.21c0.9,0,1.41,0.71,1.41,1.92c0,1.3-0.7,2.32-2.1,2.96L207.2,108.55z
			 M210.39,108.55c0.89-0.41,1.35-0.99,1.35-1.82l-0.08-1.14l0.71,0.98c-0.22,0.19-0.58,0.35-0.88,0.35c-0.64,0-1.09-0.44-1.09-1.1
			c0-0.73,0.48-1.21,1.15-1.21c0.89,0,1.41,0.71,1.41,1.92c0,1.3-0.7,2.32-2.1,2.96L210.39,108.55z"/>
		<path d="M221.61,108.37h5.52v1.25h-5.52V108.37z"/>
		<path d="M229.15,110.98l3.18-1.99v-0.05l-3.18-1.99v-1.6l4.64,3v1.22l-4.64,3V110.98z"/>
		<path d="M242.98,107.56c0-1.3,0.7-2.32,2.1-2.96l0.46,0.93c-0.89,0.4-1.34,0.99-1.34,1.82l0.07,1.14l-0.71-0.98
			c0.22-0.19,0.58-0.35,0.89-0.35c0.64,0,1.09,0.44,1.09,1.1c0,0.73-0.48,1.21-1.15,1.21C243.5,109.48,242.98,108.76,242.98,107.56z
			 M246.17,107.56c0-1.3,0.7-2.32,2.1-2.96l0.46,0.93c-0.89,0.4-1.34,0.99-1.34,1.82l0.07,1.14l-0.71-0.98
			c0.22-0.19,0.58-0.35,0.89-0.35c0.64,0,1.09,0.44,1.09,1.1c0,0.73-0.48,1.21-1.15,1.21C246.69,109.48,246.17,108.76,246.17,107.56
			z"/>
		<path d="M250.38,109.98c0-1.98,1.61-3.12,3.44-3.12c0.94,0,1.73,0.33,2.23,0.81l-0.81,1.09c-0.45-0.33-0.87-0.48-1.32-0.48
			c-1.02,0-1.73,0.67-1.73,1.7c0,1.03,0.7,1.69,1.67,1.69c0.62,0,1.14-0.27,1.57-0.57l0.71,1.11c-0.72,0.6-1.63,0.88-2.44,0.88
			C251.81,113.1,250.38,111.95,250.38,109.98z"/>
		<path d="M258.86,110.49v-2.1h-1.5v-1.31l1.58-0.07l0.23-1.82h1.46V107h2.51v1.38h-2.51v2.08c0,0.91,0.38,1.25,1.25,1.25
			c0.44,0,0.82-0.09,1.17-0.21l0.32,1.28c-0.53,0.16-1.15,0.32-1.94,0.32C259.54,113.1,258.86,112.05,258.86,110.49z"/>
		<path d="M264.8,108.55c0.89-0.41,1.35-0.99,1.35-1.82l-0.08-1.14l0.71,0.98c-0.22,0.19-0.58,0.35-0.88,0.35
			c-0.64,0-1.09-0.44-1.09-1.1c0-0.73,0.48-1.21,1.15-1.21c0.9,0,1.41,0.71,1.41,1.92c0,1.3-0.7,2.32-2.1,2.96L264.8,108.55z
			 M267.99,108.55c0.89-0.41,1.35-0.99,1.35-1.82l-0.08-1.14l0.71,0.98c-0.22,0.19-0.58,0.35-0.88,0.35c-0.64,0-1.09-0.44-1.09-1.1
			c0-0.73,0.48-1.21,1.15-1.21c0.89,0,1.41,0.71,1.41,1.92c0,1.3-0.7,2.32-2.1,2.96L267.99,108.55z"/>
		<path d="M188.98,121.96c0-1.3,0.7-2.32,2.1-2.96l0.46,0.93c-0.89,0.4-1.34,0.99-1.34,1.82l0.07,1.14l-0.71-0.98
			c0.22-0.19,0.58-0.35,0.89-0.35c0.64,0,1.09,0.44,1.09,1.1c0,0.73-0.48,1.21-1.15,1.21C189.5,123.87,188.98,123.16,188.98,121.96z
			 M192.17,121.96c0-1.3,0.7-2.32,2.1-2.96l0.46,0.93c-0.89,0.4-1.34,0.99-1.34,1.82l0.07,1.14l-0.71-0.98
			c0.22-0.19,0.58-0.35,0.89-0.35c0.64,0,1.09,0.44,1.09,1.1c0,0.73-0.48,1.21-1.15,1.21C192.69,123.87,192.17,123.16,192.17,121.96
			z"/>
		<path d="M196.44,121.4h1.44l0.13,0.79h0.05c0.52-0.51,1.17-0.94,2.06-0.94c1.34,0,1.94,0.92,1.94,2.42v3.67h-1.77v-3.45
			c0-0.79-0.23-1.14-0.87-1.14c-0.47,0-0.79,0.22-1.2,0.62v3.97h-1.77V121.4z"/>
		<path d="M203.4,128.36c0-0.49,0.32-0.88,0.92-1.19v-0.05c-0.33-0.2-0.6-0.51-0.6-1.01c0-0.4,0.29-0.83,0.71-1.12v-0.05
			c-0.44-0.29-0.79-0.83-0.79-1.53c0-1.43,1.2-2.16,2.55-2.16c0.35,0,0.69,0.05,0.98,0.14h2.42v1.3h-1.2
			c0.13,0.18,0.26,0.47,0.26,0.78c0,1.37-1.07,1.99-2.45,1.99c-0.24,0-0.52-0.04-0.82-0.12c-0.18,0.13-0.26,0.24-0.26,0.44
			c0,0.32,0.31,0.45,1.01,0.45h1.1c1.56,0,2.42,0.44,2.42,1.5c0,1.24-1.38,2.14-3.55,2.14C204.54,129.88,203.4,129.42,203.4,128.36z
			 M207.96,128.04c0-0.38-0.37-0.46-1.05-0.46h-0.75c-0.43,0-0.69-0.02-0.91-0.08c-0.3,0.19-0.42,0.37-0.42,0.58
			c0,0.45,0.58,0.67,1.51,0.67C207.3,128.76,207.96,128.45,207.96,128.04z M207.1,123.41c0-0.62-0.41-0.97-0.9-0.97
			c-0.49,0-0.89,0.34-0.89,0.97c0,0.65,0.4,0.99,0.89,0.99C206.69,124.4,207.1,124.06,207.1,123.41z"/>
		<path d="M210.8,122.94c0.89-0.41,1.35-0.99,1.35-1.82l-0.08-1.14l0.71,0.98c-0.22,0.19-0.58,0.35-0.88,0.35
			c-0.64,0-1.09-0.44-1.09-1.1c0-0.73,0.48-1.21,1.15-1.21c0.9,0,1.41,0.71,1.41,1.92c0,1.3-0.7,2.32-2.1,2.96L210.8,122.94z
			 M213.99,122.94c0.89-0.41,1.35-0.99,1.35-1.82l-0.08-1.14l0.71,0.98c-0.22,0.19-0.58,0.35-0.88,0.35c-0.64,0-1.09-0.44-1.09-1.1
			c0-0.73,0.48-1.21,1.15-1.21c0.89,0,1.41,0.71,1.41,1.92c0,1.3-0.7,2.32-2.1,2.96L213.99,122.94z"/>
		<path d="M225.21,122.77h5.52v1.25h-5.52V122.77z"/>
		<path d="M232.75,125.38l3.18-1.99v-0.05l-3.18-1.99v-1.6l4.64,3v1.22l-4.64,3V125.38z"/>
		<path d="M246.58,121.96c0-1.3,0.7-2.32,2.1-2.96l0.46,0.93c-0.89,0.4-1.34,0.99-1.34,1.82l0.07,1.14l-0.71-0.98
			c0.22-0.19,0.58-0.35,0.89-0.35c0.64,0,1.09,0.44,1.09,1.1c0,0.73-0.48,1.21-1.15,1.21C247.1,123.87,246.58,123.16,246.58,121.96z
			 M249.77,121.96c0-1.3,0.7-2.32,2.1-2.96l0.46,0.93c-0.89,0.4-1.34,0.99-1.34,1.82l0.07,1.14l-0.71-0.98
			c0.22-0.19,0.58-0.35,0.89-0.35c0.64,0,1.09,0.44,1.09,1.1c0,0.73-0.48,1.21-1.15,1.21C250.29,123.87,249.77,123.16,249.77,121.96
			z"/>
		<path d="M254.04,121.4h1.44l0.13,0.79h0.05c0.52-0.51,1.17-0.94,2.06-0.94c1.34,0,1.94,0.92,1.94,2.42v3.67h-1.77v-3.45
			c0-0.79-0.23-1.14-0.87-1.14c-0.47,0-0.79,0.22-1.2,0.62v3.97h-1.77V121.4z"/>
		<path d="M261.2,122.94c0.89-0.41,1.35-0.99,1.35-1.82l-0.08-1.14l0.71,0.98c-0.22,0.19-0.58,0.35-0.88,0.35
			c-0.64,0-1.09-0.44-1.09-1.1c0-0.73,0.48-1.21,1.15-1.21c0.9,0,1.41,0.71,1.41,1.92c0,1.3-0.7,2.32-2.1,2.96L261.2,122.94z
			 M264.39,122.94c0.89-0.41,1.35-0.99,1.35-1.82l-0.08-1.14l0.71,0.98c-0.22,0.19-0.58,0.35-0.88,0.35c-0.64,0-1.09-0.44-1.09-1.1
			c0-0.73,0.48-1.21,1.15-1.21c0.89,0,1.41,0.71,1.41,1.92c0,1.3-0.7,2.32-2.1,2.96L264.39,122.94z"/>
	</g>
</g>
<g>
	<g>
		<path d="M49.68,191.09h1.85l0.77,2.77l0.26,1.08h0.05l0.26-1.08l0.77-2.77h1.85v7.82H54v-2.42c0-0.88,0.15-2.79,0.24-3.63H54.2
			l-0.6,2.1l-0.61,1.88h-0.86l-0.62-1.88l-0.56-2.1h-0.04c0.09,0.84,0.24,2.75,0.24,3.63v2.42h-1.47V191.09z"/>
		<path d="M56.93,196.62v-3.67h1.77v3.45c0,0.79,0.21,1.14,0.87,1.14c0.44,0,0.75-0.16,1.15-0.68v-3.91h1.77v5.95h-1.44l-0.13-0.86
			h-0.05c-0.53,0.61-1.15,1-2.01,1C57.51,199.04,56.93,198.13,56.93,196.62z"/>
		<path d="M64.02,198.13l0.75-1.1c0.73,0.45,1.55,0.71,2.4,0.71c0.65,0,0.94-0.22,0.94-0.51c0-0.33-0.29-0.45-1.46-0.7
			c-1.62-0.35-2.26-0.94-2.26-1.86c0-1.11,1.04-1.86,2.73-1.86c1.06,0,1.96,0.42,2.58,0.81l-0.79,1.06
			c-0.6-0.36-1.29-0.57-1.95-0.57c-0.55,0-0.82,0.2-0.82,0.48c0,0.33,0.37,0.41,1.37,0.63c1.84,0.41,2.35,0.93,2.35,1.9
			c0,1.08-1.03,1.92-2.94,1.92C65.87,199.04,64.78,198.63,64.02,198.13z"/>
		<path d="M71.39,195.93c0-1.98,1.61-3.12,3.44-3.12c0.94,0,1.73,0.33,2.23,0.81l-0.81,1.09c-0.45-0.33-0.87-0.48-1.32-0.48
			c-1.02,0-1.73,0.67-1.73,1.7c0,1.03,0.69,1.69,1.67,1.69c0.62,0,1.14-0.27,1.57-0.57l0.71,1.11c-0.72,0.6-1.63,0.88-2.44,0.88
			C72.83,199.04,71.39,197.9,71.39,195.93z"/>
		<path d="M80.26,196.57v-4.69h-1.87v-1.38h3.64v6.15c0,0.74,0.47,0.97,0.97,0.97c0.27,0,0.57-0.06,0.93-0.2l0.39,1.3
			c-0.62,0.2-1.04,0.32-1.78,0.32C81.03,199.04,80.26,198.08,80.26,196.57z"/>
		<path d="M85.65,195.92c0-1.95,1.5-3.12,3.1-3.12c1.83,0,2.8,1.24,2.8,2.86c0,0.32-0.05,0.64-0.07,0.79h-4.51v-1.18h3.32L90,195.61
			c0-0.96-0.42-1.46-1.2-1.46c-0.87,0-1.44,0.59-1.44,1.77c0,1.23,0.67,1.78,1.83,1.78c0.54,0,1.01-0.15,1.53-0.41l0.58,1.06
			c-0.68,0.44-1.56,0.7-2.36,0.7C87.09,199.04,85.65,197.9,85.65,195.92z"/>
		<path d="M100.08,191.09h1.85l0.77,2.77l0.26,1.08h0.05l0.26-1.08l0.77-2.77h1.85v7.82h-1.5v-2.42c0-0.88,0.15-2.79,0.24-3.63
			h-0.04l-0.6,2.1l-0.61,1.88h-0.86l-0.62-1.88l-0.56-2.1h-0.04c0.09,0.84,0.24,2.75,0.24,3.63v2.42h-1.47V191.09z"/>
		<path d="M107.25,195.92c0-1.95,1.5-3.12,3.1-3.12c1.83,0,2.8,1.24,2.8,2.86c0,0.32-0.05,0.64-0.07,0.79h-4.51v-1.18h3.32
			l-0.28,0.34c0-0.96-0.42-1.46-1.2-1.46c-0.87,0-1.44,0.59-1.44,1.77c0,1.23,0.67,1.78,1.83,1.78c0.54,0,1.01-0.15,1.53-0.41
			l0.58,1.06c-0.68,0.44-1.56,0.7-2.36,0.7C108.69,199.04,107.25,197.9,107.25,195.92z"/>
		<path d="M114.21,192.95h1.33l0.13,0.73h0.04c0.22-0.48,0.6-0.88,1.29-0.88c0.52,0,0.89,0.34,1.03,0.97
			c0.21-0.54,0.64-0.97,1.32-0.97c0.85,0,1.33,0.73,1.33,1.92v4.17H119v-4.05c0-0.37-0.09-0.54-0.32-0.54
			c-0.23,0-0.38,0.19-0.55,0.58v4.01h-1.38v-4.05c0-0.37-0.11-0.54-0.34-0.54c-0.22,0-0.37,0.19-0.53,0.58v4.01h-1.68V192.95z"/>
		<path d="M121.55,195.93c0-1.98,1.46-3.12,3.03-3.12s3.03,1.14,3.03,3.12c0,1.97-1.46,3.12-3.03,3.12S121.55,197.9,121.55,195.93z
			 M125.81,195.93c0-1.03-0.41-1.7-1.23-1.7s-1.23,0.67-1.23,1.7c0,1.03,0.42,1.69,1.23,1.69S125.81,196.96,125.81,195.93z"/>
		<path d="M129.57,192.95h1.45l0.14,1.3h0.04c0.59-0.97,1.46-1.45,2.41-1.45c0.52,0,0.8,0.09,1.14,0.24l-0.36,1.48
			c-0.37-0.11-0.61-0.17-1.05-0.17c-0.74,0-1.5,0.38-2.01,1.45v3.09h-1.77V192.95z"/>
		<path d="M136.19,201.11l0.32-1.35c0.16,0.05,0.31,0.08,0.46,0.08c0.69,0,1.06-0.32,1.25-0.78l0.12-0.31l-2.57-5.8h1.75l1,2.56
			c0.21,0.56,0.4,1.16,0.59,1.79h0.05c0.16-0.59,0.36-1.21,0.55-1.79l0.87-2.56h1.67l-2.34,6.01c-0.58,1.49-1.29,2.26-2.79,2.26
			C136.75,201.23,136.45,201.18,136.19,201.11z"/>
		<path d="M150.68,191.09h2.77c1.7,0,3.06,0.61,3.06,2.51c0,1.84-1.4,2.65-3.06,2.65h-1v2.65h-1.77V191.09z M153.35,194.85
			c0.97,0,1.43-0.43,1.43-1.25c0-0.82-0.5-1.11-1.43-1.11h-0.9v2.36H153.35z"/>
		<path d="M158.37,192.95h1.45l0.14,1.3H160c0.58-0.97,1.46-1.45,2.41-1.45c0.52,0,0.8,0.09,1.14,0.24l-0.36,1.48
			c-0.37-0.11-0.62-0.17-1.05-0.17c-0.74,0-1.5,0.38-2.01,1.45v3.09h-1.77V192.95z"/>
		<path d="M164.92,197.25c0-1.33,1.1-2.01,3.91-2.18c-0.06-0.53-0.46-0.86-1.26-0.86c-0.57,0-1.14,0.22-1.81,0.56l-0.63-1.16
			c0.82-0.47,1.77-0.8,2.78-0.8c1.67,0,2.69,0.87,2.69,2.69v3.4h-1.44l-0.13-0.67h-0.04c-0.6,0.45-1.35,0.81-2.11,0.81
			C165.68,199.04,164.92,198.25,164.92,197.25z M168.84,197.11v-0.97c-1.75,0.09-2.22,0.47-2.22,0.97c0,0.38,0.32,0.57,0.82,0.57
			C167.97,197.68,168.42,197.44,168.84,197.11z"/>
		<path d="M172.19,195.93c0-1.98,1.61-3.12,3.44-3.12c0.94,0,1.73,0.33,2.23,0.81l-0.81,1.09c-0.45-0.33-0.87-0.48-1.32-0.48
			c-1.02,0-1.73,0.67-1.73,1.7c0,1.03,0.7,1.69,1.67,1.69c0.62,0,1.14-0.27,1.57-0.57l0.71,1.11c-0.72,0.6-1.63,0.88-2.44,0.88
			C173.63,199.04,172.19,197.9,172.19,195.93z"/>
		<path d="M180.68,196.44v-2.1h-1.5v-1.31l1.58-0.07l0.23-1.82h1.46v1.82h2.51v1.38h-2.51v2.08c0,0.91,0.38,1.25,1.25,1.25
			c0.44,0,0.82-0.09,1.17-0.21l0.32,1.28c-0.53,0.16-1.15,0.32-1.94,0.32C181.35,199.04,180.68,198,180.68,196.44z"/>
		<path d="M189.12,194.33h-2.4v-1.38h4.16v5.95h-1.77V194.33z M188.75,190.94c0-0.65,0.49-1.1,1.17-1.1s1.17,0.45,1.17,1.1
			c0,0.65-0.49,1.08-1.17,1.08S188.75,191.59,188.75,190.94z"/>
		<path d="M193.79,195.93c0-1.98,1.61-3.12,3.44-3.12c0.94,0,1.73,0.33,2.23,0.81l-0.81,1.09c-0.45-0.33-0.87-0.48-1.32-0.48
			c-1.02,0-1.73,0.67-1.73,1.7c0,1.03,0.7,1.69,1.67,1.69c0.62,0,1.14-0.27,1.57-0.57l0.71,1.11c-0.72,0.6-1.63,0.88-2.44,0.88
			C195.23,199.04,193.79,197.9,193.79,195.93z"/>
		<path d="M200.85,195.92c0-1.95,1.5-3.12,3.09-3.12c1.83,0,2.8,1.24,2.8,2.86c0,0.32-0.05,0.64-0.07,0.79h-4.51v-1.18h3.32
			l-0.28,0.34c0-0.96-0.42-1.46-1.2-1.46c-0.87,0-1.44,0.59-1.44,1.77c0,1.23,0.67,1.78,1.83,1.78c0.54,0,1-0.15,1.53-0.41
			l0.58,1.06c-0.68,0.44-1.56,0.7-2.36,0.7C202.29,199.04,200.85,197.9,200.85,195.92z"/>
		<path d="M49.83,223.12h5.52v1.25h-5.52V223.12z"/>
		<path d="M63.43,221.75h1.71l0.37,2.76c0.07,0.59,0.12,1.16,0.19,1.76h0.04c0.06-0.6,0.15-1.2,0.28-1.76l0.37-1.97h1.28l0.38,1.97
			c0.11,0.59,0.22,1.16,0.3,1.76h0.05c0.08-0.6,0.1-1.18,0.17-1.76l0.33-2.76h1.64l-0.92,5.95h-2.07l-0.33-1.93
			c-0.08-0.51-0.15-1.08-0.22-1.76h-0.05c-0.05,0.5-0.11,1.02-0.2,1.76l-0.32,1.93h-2.03L63.43,221.75z"/>
		<path d="M71.45,219.3h1.77v2.05l-0.1,1.15h0.04c0.44-0.46,1.08-0.89,1.97-0.89c1.34,0,1.93,0.92,1.93,2.42v3.67H75.3v-3.45
			c0-0.79-0.23-1.14-0.87-1.14c-0.47,0-0.79,0.22-1.2,0.62v3.97h-1.77V219.3z"/>
		<path d="M78.45,224.72c0-1.95,1.5-3.12,3.1-3.12c1.83,0,2.8,1.24,2.8,2.86c0,0.32-0.05,0.64-0.07,0.79h-4.51v-1.18h3.32
			l-0.28,0.34c0-0.96-0.42-1.46-1.2-1.46c-0.87,0-1.44,0.59-1.44,1.77c0,1.23,0.67,1.78,1.83,1.78c0.54,0,1.01-0.15,1.53-0.41
			l0.58,1.06c-0.68,0.44-1.56,0.7-2.36,0.7C79.89,227.84,78.45,226.7,78.45,224.72z"/>
		<path d="M85.85,221.75h1.44l0.13,0.79h0.05c0.52-0.51,1.17-0.94,2.06-0.94c1.34,0,1.94,0.92,1.94,2.42v3.67H89.7v-3.45
			c0-0.79-0.23-1.14-0.87-1.14c-0.47,0-0.79,0.22-1.2,0.62v3.97h-1.77V221.75z"/>
		<path d="M101.48,225.24v-2.1h-1.5v-1.31l1.58-0.07l0.23-1.82h1.46v1.82h2.51v1.38h-2.51v2.08c0,0.91,0.38,1.25,1.25,1.25
			c0.44,0,0.82-0.09,1.18-0.21l0.32,1.28c-0.53,0.16-1.15,0.32-1.94,0.32C102.15,227.84,101.48,226.8,101.48,225.24z"/>
		<path d="M107.15,224.73c0-1.98,1.46-3.12,3.03-3.12s3.03,1.14,3.03,3.12c0,1.97-1.46,3.12-3.03,3.12S107.15,226.7,107.15,224.73z
			 M111.41,224.73c0-1.03-0.41-1.7-1.23-1.7s-1.23,0.67-1.23,1.7c0,1.03,0.42,1.69,1.23,1.69S111.41,225.76,111.41,224.73z"/>
		<path d="M121.72,226.05c0-1.33,1.1-2.01,3.91-2.18c-0.06-0.53-0.46-0.86-1.26-0.86c-0.57,0-1.14,0.22-1.81,0.56l-0.63-1.16
			c0.82-0.47,1.77-0.8,2.78-0.8c1.67,0,2.69,0.87,2.69,2.69v3.4h-1.44l-0.13-0.67h-0.04c-0.6,0.45-1.35,0.81-2.11,0.81
			C122.48,227.84,121.72,227.05,121.72,226.05z M125.64,225.91v-0.97c-1.75,0.09-2.22,0.47-2.22,0.97c0,0.38,0.32,0.57,0.82,0.57
			C124.77,226.48,125.22,226.24,125.64,225.91z"/>
		<path d="M128.75,224.73c0-1.95,1.25-3.12,2.54-3.12c0.65,0,1.1,0.23,1.5,0.64h0.04l-0.08-0.92v-2.03h1.77v8.4h-1.44l-0.13-0.61
			h-0.04c-0.44,0.43-1.05,0.75-1.65,0.75C129.74,227.84,128.75,226.67,128.75,224.73z M132.75,225.85v-2.4
			c-0.32-0.29-0.65-0.39-1-0.39c-0.64,0-1.2,0.52-1.2,1.66c0,1.17,0.43,1.69,1.15,1.69C132.11,226.4,132.45,226.25,132.75,225.85z"
			/>
		<path d="M135.95,224.73c0-1.95,1.25-3.12,2.54-3.12c0.65,0,1.1,0.23,1.5,0.64h0.04l-0.08-0.92v-2.03h1.77v8.4h-1.44l-0.13-0.61
			h-0.04c-0.44,0.43-1.05,0.75-1.65,0.75C136.94,227.84,135.95,226.67,135.95,224.73z M139.95,225.85v-2.4
			c-0.32-0.29-0.65-0.39-1-0.39c-0.64,0-1.2,0.52-1.2,1.66c0,1.17,0.43,1.69,1.15,1.69C139.31,226.4,139.65,226.25,139.95,225.85z"
			/>
		<path d="M150.4,222.31c0-1.3,0.7-2.32,2.1-2.96l0.46,0.93c-0.89,0.4-1.34,0.99-1.34,1.82l0.07,1.14l-0.71-0.98
			c0.22-0.19,0.58-0.35,0.89-0.35c0.64,0,1.09,0.44,1.09,1.1c0,0.73-0.48,1.21-1.15,1.21C150.91,224.22,150.4,223.51,150.4,222.31z
			 M153.59,222.31c0-1.3,0.7-2.32,2.1-2.96l0.46,0.93c-0.89,0.4-1.34,0.99-1.34,1.82l0.07,1.14l-0.71-0.98
			c0.22-0.19,0.58-0.35,0.89-0.35c0.64,0,1.09,0.44,1.09,1.1c0,0.73-0.48,1.21-1.15,1.21C154.1,224.22,153.59,223.51,153.59,222.31z
			"/>
		<path d="M157.62,226.93l0.75-1.1c0.73,0.45,1.55,0.71,2.4,0.71c0.65,0,0.94-0.22,0.94-0.51c0-0.33-0.29-0.45-1.46-0.7
			c-1.62-0.35-2.26-0.94-2.26-1.86c0-1.11,1.04-1.86,2.73-1.86c1.06,0,1.96,0.42,2.58,0.81l-0.79,1.06
			c-0.6-0.36-1.29-0.57-1.95-0.57c-0.55,0-0.82,0.2-0.82,0.48c0,0.33,0.37,0.41,1.37,0.63c1.84,0.41,2.35,0.93,2.35,1.9
			c0,1.08-1.03,1.92-2.94,1.92C159.47,227.84,158.37,227.43,157.62,226.93z"/>
		<path d="M165.01,223.29c0.89-0.41,1.35-0.99,1.35-1.82l-0.08-1.14l0.71,0.98c-0.22,0.19-0.58,0.35-0.88,0.35
			c-0.64,0-1.09-0.44-1.09-1.1c0-0.73,0.48-1.21,1.15-1.21c0.9,0,1.41,0.71,1.41,1.92c0,1.3-0.7,2.32-2.1,2.96L165.01,223.29z
			 M168.21,223.29c0.89-0.41,1.35-0.99,1.35-1.82l-0.08-1.14l0.71,0.98c-0.22,0.19-0.58,0.35-0.88,0.35c-0.64,0-1.09-0.44-1.09-1.1
			c0-0.73,0.48-1.21,1.15-1.21c0.89,0,1.41,0.71,1.41,1.92c0,1.3-0.7,2.32-2.1,2.96L168.21,223.29z"/>
		<path d="M179.57,221.82l1.63-0.07h3.75v1.38h-5.38V221.82z M181.14,221.6c0-1.36,0.79-2.44,2.66-2.44c0.68,0,1.3,0.15,1.8,0.32
			l-0.34,1.3c-0.38-0.14-0.79-0.23-1.24-0.23c-0.76,0-1.12,0.33-1.12,1.05v6.11h-1.76V221.6z"/>
		<path d="M186.35,224.73c0-1.98,1.46-3.12,3.03-3.12c1.57,0,3.03,1.14,3.03,3.12c0,1.97-1.46,3.12-3.03,3.12
			C187.82,227.84,186.35,226.7,186.35,224.73z M190.61,224.73c0-1.03-0.42-1.7-1.23-1.7s-1.23,0.67-1.23,1.7
			c0,1.03,0.41,1.69,1.23,1.69S190.61,225.76,190.61,224.73z"/>
		<path d="M194.37,221.75h1.45l0.14,1.3H196c0.58-0.97,1.46-1.45,2.41-1.45c0.52,0,0.8,0.09,1.14,0.24l-0.36,1.48
			c-0.37-0.11-0.62-0.17-1.05-0.17c-0.74,0-1.5,0.38-2.01,1.45v3.09h-1.77V221.75z"/>
		<path d="M208.25,221.75h1.44l0.13,0.61h0.04c0.48-0.44,1.13-0.75,1.77-0.75c1.49,0,2.38,1.19,2.38,3.03
			c0,2.04-1.25,3.21-2.58,3.21c-0.52,0-1.04-0.23-1.46-0.64h-0.04l0.08,0.96v1.74h-1.77V221.75z M212.21,224.65
			c0-1.07-0.35-1.6-1.1-1.6c-0.38,0-0.73,0.16-1.1,0.55v2.4c0.33,0.29,0.71,0.39,1.02,0.39
			C211.69,226.4,212.21,225.88,212.21,224.65z"/>
		<path d="M217.05,225.37v-4.69h-1.87v-1.38h3.64v6.15c0,0.74,0.47,0.97,0.97,0.97c0.28,0,0.57-0.06,0.93-0.2l0.39,1.3
			c-0.62,0.2-1.04,0.32-1.78,0.32C217.83,227.84,217.05,226.88,217.05,225.37z"/>
		<path d="M222.53,225.42v-3.67h1.77v3.45c0,0.79,0.21,1.14,0.87,1.14c0.44,0,0.75-0.16,1.15-0.68v-3.91h1.77v5.95h-1.44l-0.13-0.86
			h-0.05c-0.53,0.61-1.15,1-2.01,1C223.1,227.84,222.53,226.93,222.53,225.42z"/>
		<path d="M230.37,221.75h1.45l0.14,1.3H232c0.58-0.97,1.46-1.45,2.41-1.45c0.52,0,0.8,0.09,1.14,0.24l-0.36,1.48
			c-0.37-0.11-0.62-0.17-1.05-0.17c-0.74,0-1.5,0.38-2.01,1.45v3.09h-1.77V221.75z"/>
		<path d="M236.92,226.05c0-1.33,1.1-2.01,3.91-2.18c-0.06-0.53-0.46-0.86-1.26-0.86c-0.57,0-1.14,0.22-1.81,0.56l-0.63-1.16
			c0.82-0.47,1.77-0.8,2.78-0.8c1.67,0,2.69,0.87,2.69,2.69v3.4h-1.44l-0.13-0.67h-0.04c-0.6,0.45-1.35,0.81-2.11,0.81
			C237.67,227.84,236.92,227.05,236.92,226.05z M240.84,225.91v-0.97c-1.75,0.09-2.22,0.47-2.22,0.97c0,0.38,0.32,0.57,0.82,0.57
			C239.97,226.48,240.42,226.24,240.84,225.91z"/>
		<path d="M245.85,225.37v-4.69h-1.87v-1.38h3.64v6.15c0,0.74,0.47,0.97,0.97,0.97c0.28,0,0.57-0.06,0.93-0.2l0.39,1.3
			c-0.62,0.2-1.04,0.32-1.78,0.32C246.63,227.84,245.85,226.88,245.85,225.37z"/>
		<path d="M251.22,226.93l0.75-1.1c0.73,0.45,1.55,0.71,2.4,0.71c0.65,0,0.94-0.22,0.94-0.51c0-0.33-0.29-0.45-1.46-0.7
			c-1.62-0.35-2.26-0.94-2.26-1.86c0-1.11,1.04-1.86,2.73-1.86c1.06,0,1.96,0.42,2.58,0.81l-0.79,1.06
			c-0.6-0.36-1.29-0.57-1.95-0.57c-0.55,0-0.82,0.2-0.82,0.48c0,0.33,0.37,0.41,1.37,0.63c1.84,0.41,2.35,0.93,2.35,1.9
			c0,1.08-1.03,1.92-2.94,1.92C253.07,227.84,251.97,227.43,251.22,226.93z"/>
		<path d="M49.83,237.52h5.52v1.25h-5.52V237.52z"/>
		<path d="M66.73,237.54h-2.4v-1.38h4.16v5.95h-1.77V237.54z M66.36,234.14c0-0.65,0.49-1.1,1.17-1.1s1.17,0.45,1.17,1.1
			c0,0.65-0.49,1.08-1.17,1.08S66.36,234.79,66.36,234.14z"/>
		<path d="M71.22,241.33l0.75-1.1c0.73,0.45,1.55,0.71,2.4,0.71c0.65,0,0.94-0.22,0.94-0.51c0-0.33-0.29-0.45-1.46-0.7
			c-1.62-0.35-2.26-0.94-2.26-1.86c0-1.11,1.04-1.86,2.73-1.86c1.06,0,1.96,0.42,2.58,0.81l-0.79,1.06
			c-0.6-0.36-1.29-0.57-1.95-0.57c-0.55,0-0.82,0.2-0.82,0.48c0,0.33,0.37,0.41,1.37,0.63c1.84,0.41,2.35,0.93,2.35,1.9
			c0,1.08-1.03,1.92-2.94,1.92C73.07,242.25,71.98,241.83,71.22,241.33z"/>
		<path d="M85.36,236.15h1.77l0.94,2.81c0.19,0.6,0.36,1.21,0.54,1.83h0.05c0.18-0.62,0.34-1.23,0.53-1.83l0.94-2.81h1.69
			l-2.18,5.95h-2.02L85.36,236.15z"/>
		<path d="M92.82,241.33l0.75-1.1c0.73,0.45,1.55,0.71,2.4,0.71c0.65,0,0.94-0.22,0.94-0.51c0-0.33-0.29-0.45-1.46-0.7
			c-1.62-0.35-2.26-0.94-2.26-1.86c0-1.11,1.04-1.86,2.73-1.86c1.06,0,1.96,0.42,2.58,0.81l-0.79,1.06
			c-0.6-0.36-1.29-0.57-1.95-0.57c-0.55,0-0.82,0.2-0.82,0.48c0,0.33,0.37,0.41,1.37,0.63c1.84,0.41,2.35,0.93,2.35,1.9
			c0,1.08-1.03,1.92-2.94,1.92C94.67,242.25,93.58,241.83,92.82,241.33z"/>
		<path d="M101.59,240.84c0-0.78,0.57-1.41,1.4-1.41s1.4,0.63,1.4,1.41c0,0.79-0.57,1.41-1.4,1.41S101.59,241.63,101.59,240.84z"/>
		<path d="M117.12,237.54h-2.4v-1.38h4.16v5.95h-1.77V237.54z M116.76,234.14c0-0.65,0.49-1.1,1.17-1.1s1.17,0.45,1.17,1.1
			c0,0.65-0.49,1.08-1.17,1.08S116.76,234.79,116.76,234.14z"/>
		<path d="M123.08,239.64v-2.1h-1.5v-1.31l1.58-0.07l0.23-1.82h1.46v1.82h2.51v1.38h-2.51v2.08c0,0.91,0.38,1.25,1.25,1.25
			c0.44,0,0.82-0.09,1.18-0.21l0.32,1.28c-0.53,0.16-1.15,0.32-1.94,0.32C123.75,242.25,123.08,241.2,123.08,239.64z"/>
		<path d="M130.61,237.7c0.89-0.41,1.35-0.99,1.35-1.82l-0.08-1.14l0.71,0.98c-0.22,0.19-0.58,0.35-0.88,0.35
			c-0.64,0-1.09-0.44-1.09-1.1c0-0.73,0.48-1.21,1.15-1.21c0.9,0,1.41,0.71,1.41,1.92c0,1.3-0.7,2.32-2.1,2.96L130.61,237.7z"/>
		<path d="M136.02,241.33l0.75-1.1c0.73,0.45,1.55,0.71,2.4,0.71c0.65,0,0.94-0.22,0.94-0.51c0-0.33-0.29-0.45-1.46-0.7
			c-1.62-0.35-2.26-0.94-2.26-1.86c0-1.11,1.04-1.86,2.73-1.86c1.06,0,1.96,0.42,2.58,0.81l-0.79,1.06
			c-0.6-0.36-1.29-0.57-1.95-0.57c-0.55,0-0.82,0.2-0.82,0.48c0,0.33,0.37,0.41,1.37,0.63c1.84,0.41,2.35,0.93,2.35,1.9
			c0,1.08-1.03,1.92-2.94,1.92C137.87,242.25,136.77,241.83,136.02,241.33z"/>
		<path d="M49.83,251.92h5.52v1.25h-5.52V251.92z"/>
		<path d="M64.05,253.52c0-1.95,1.5-3.12,3.1-3.12c1.83,0,2.8,1.24,2.8,2.86c0,0.32-0.05,0.64-0.07,0.79h-4.51v-1.18h3.32
			l-0.28,0.34c0-0.96-0.42-1.46-1.2-1.46c-0.87,0-1.44,0.59-1.44,1.77c0,1.23,0.67,1.78,1.83,1.78c0.54,0,1.01-0.15,1.53-0.41
			l0.58,1.06c-0.68,0.44-1.56,0.7-2.36,0.7C65.49,256.64,64.05,255.5,64.05,253.52z"/>
		<path d="M71.45,250.55h1.44l0.13,0.79h0.05c0.52-0.51,1.17-0.94,2.06-0.94c1.34,0,1.94,0.92,1.94,2.42v3.67H75.3v-3.45
			c0-0.79-0.23-1.14-0.87-1.14c-0.47,0-0.79,0.22-1.2,0.62v3.97h-1.77V250.55z"/>
		<path d="M78.53,254.22v-3.67h1.77V254c0,0.79,0.21,1.14,0.87,1.14c0.44,0,0.75-0.16,1.15-0.68v-3.91h1.77v5.95h-1.44l-0.13-0.86
			h-0.05c-0.53,0.61-1.15,1-2.01,1C79.11,256.64,78.53,255.73,78.53,254.22z"/>
		<path d="M85.85,250.55h1.44l0.13,0.79h0.05c0.52-0.51,1.17-0.94,2.06-0.94c1.34,0,1.94,0.92,1.94,2.42v3.67H89.7v-3.45
			c0-0.79-0.23-1.14-0.87-1.14c-0.47,0-0.79,0.22-1.2,0.62v3.97h-1.77V250.55z"/>
		<path d="M92.99,253.53c0-1.98,1.61-3.12,3.44-3.12c0.94,0,1.73,0.33,2.23,0.81l-0.81,1.09c-0.45-0.33-0.87-0.48-1.32-0.48
			c-1.02,0-1.73,0.67-1.73,1.7c0,1.03,0.69,1.69,1.67,1.69c0.62,0,1.14-0.27,1.57-0.57l0.71,1.11c-0.72,0.6-1.63,0.88-2.44,0.88
			C94.43,256.64,92.99,255.5,92.99,253.53z"/>
		<path d="M102.73,251.93h-2.4v-1.38h4.16v5.95h-1.77V251.93z M102.36,248.54c0-0.65,0.49-1.1,1.17-1.1s1.17,0.45,1.17,1.1
			c0,0.65-0.49,1.08-1.17,1.08S102.36,249.19,102.36,248.54z"/>
		<path d="M107.32,254.85c0-1.33,1.1-2.01,3.91-2.18c-0.06-0.53-0.46-0.86-1.26-0.86c-0.57,0-1.14,0.22-1.81,0.56l-0.63-1.16
			c0.82-0.47,1.77-0.8,2.78-0.8c1.67,0,2.69,0.87,2.69,2.69v3.4h-1.44l-0.13-0.67h-0.04c-0.6,0.45-1.35,0.81-2.11,0.81
			C108.08,256.64,107.32,255.85,107.32,254.85z M111.24,254.71v-0.97c-1.75,0.09-2.22,0.47-2.22,0.97c0,0.38,0.32,0.57,0.82,0.57
			C110.37,255.28,110.82,255.04,111.24,254.71z"/>
		<path d="M115.88,254.04v-2.1h-1.5v-1.31l1.58-0.07l0.23-1.82h1.46v1.82h2.51v1.38h-2.51v2.08c0,0.91,0.38,1.25,1.25,1.25
			c0.44,0,0.82-0.09,1.18-0.21l0.32,1.28c-0.53,0.16-1.15,0.32-1.94,0.32C116.55,256.64,115.88,255.6,115.88,254.04z"/>
		<path d="M121.65,253.52c0-1.95,1.5-3.12,3.1-3.12c1.83,0,2.8,1.24,2.8,2.86c0,0.32-0.05,0.64-0.07,0.79h-4.51v-1.18h3.32
			l-0.28,0.34c0-0.96-0.42-1.46-1.2-1.46c-0.87,0-1.44,0.59-1.44,1.77c0,1.23,0.67,1.78,1.83,1.78c0.54,0,1.01-0.15,1.53-0.41
			l0.58,1.06c-0.68,0.44-1.56,0.7-2.36,0.7C123.09,256.64,121.65,255.5,121.65,253.52z"/>
		<path d="M136,251.11c0-1.3,0.7-2.32,2.1-2.96l0.46,0.93c-0.89,0.4-1.34,0.99-1.34,1.82l0.07,1.14l-0.71-0.98
			c0.22-0.19,0.58-0.35,0.89-0.35c0.64,0,1.09,0.44,1.09,1.1c0,0.73-0.48,1.21-1.15,1.21C136.51,253.02,136,252.31,136,251.11z
			 M139.19,251.11c0-1.3,0.7-2.32,2.1-2.96l0.46,0.93c-0.89,0.4-1.34,0.99-1.34,1.82l0.07,1.14l-0.71-0.98
			c0.22-0.19,0.58-0.35,0.89-0.35c0.64,0,1.09,0.44,1.09,1.1c0,0.73-0.48,1.21-1.15,1.21C139.7,253.02,139.19,252.31,139.19,251.11z
			"/>
		<path d="M143.25,253.52c0-1.95,1.5-3.12,3.1-3.12c1.83,0,2.8,1.24,2.8,2.86c0,0.32-0.05,0.64-0.07,0.79h-4.51v-1.18h3.32
			l-0.28,0.34c0-0.96-0.42-1.46-1.2-1.46c-0.87,0-1.44,0.59-1.44,1.77c0,1.23,0.67,1.78,1.83,1.78c0.54,0,1.01-0.15,1.53-0.41
			l0.58,1.06c-0.68,0.44-1.56,0.7-2.36,0.7C144.69,256.64,143.25,255.5,143.25,253.52z"/>
		<path d="M150.35,253.53c0-1.95,1.25-3.12,2.54-3.12c0.65,0,1.1,0.23,1.5,0.64h0.04l-0.08-0.92v-2.03h1.77v8.4h-1.44l-0.13-0.61
			h-0.04c-0.44,0.43-1.05,0.76-1.65,0.76C151.34,256.64,150.35,255.47,150.35,253.53z M154.35,254.65v-2.4
			c-0.32-0.29-0.65-0.39-1-0.39c-0.64,0-1.2,0.52-1.2,1.66c0,1.17,0.43,1.69,1.15,1.69C153.71,255.2,154.05,255.05,154.35,254.65z"
			/>
		<path d="M157.81,252.09c0.89-0.41,1.35-0.99,1.35-1.82l-0.08-1.14l0.71,0.98c-0.22,0.19-0.58,0.35-0.88,0.35
			c-0.64,0-1.09-0.44-1.09-1.1c0-0.73,0.48-1.21,1.15-1.21c0.9,0,1.41,0.71,1.41,1.92c0,1.3-0.7,2.32-2.1,2.96L157.81,252.09z
			 M161,252.09c0.89-0.41,1.35-0.99,1.35-1.82l-0.08-1.14l0.71,0.98c-0.22,0.19-0.58,0.35-0.88,0.35c-0.64,0-1.09-0.44-1.09-1.1
			c0-0.73,0.48-1.21,1.15-1.21c0.89,0,1.41,0.71,1.41,1.92c0,1.3-0.7,2.32-2.1,2.96L161,252.09z"/>
		<path d="M172.37,250.62l1.63-0.07h3.75v1.38h-5.38V250.62z M173.95,250.4c0-1.36,0.79-2.44,2.66-2.44c0.68,0,1.3,0.15,1.8,0.32
			l-0.34,1.3c-0.38-0.14-0.79-0.23-1.24-0.23c-0.76,0-1.12,0.33-1.12,1.05v6.11h-1.76V250.4z"/>
		<path d="M179.15,253.53c0-1.98,1.46-3.12,3.03-3.12c1.57,0,3.03,1.14,3.03,3.12c0,1.97-1.46,3.12-3.03,3.12
			C180.62,256.64,179.15,255.5,179.15,253.53z M183.41,253.53c0-1.03-0.42-1.7-1.23-1.7s-1.23,0.67-1.23,1.7
			c0,1.03,0.41,1.69,1.23,1.69S183.41,254.56,183.41,253.53z"/>
		<path d="M187.17,250.55h1.45l0.14,1.3h0.04c0.58-0.97,1.46-1.45,2.41-1.45c0.52,0,0.8,0.09,1.14,0.24l-0.36,1.48
			c-0.37-0.11-0.62-0.17-1.05-0.17c-0.74,0-1.5,0.38-2.01,1.45v3.09h-1.77V250.55z"/>
		<path d="M201.05,250.55h1.44l0.13,0.61h0.04c0.48-0.44,1.13-0.75,1.77-0.75c1.49,0,2.38,1.19,2.38,3.03
			c0,2.04-1.25,3.21-2.58,3.21c-0.52,0-1.04-0.23-1.46-0.64h-0.04l0.08,0.96v1.74h-1.77V250.55z M205.01,253.45
			c0-1.07-0.35-1.6-1.1-1.6c-0.38,0-0.73,0.16-1.1,0.55v2.4c0.33,0.29,0.71,0.39,1.02,0.39
			C204.49,255.2,205.01,254.68,205.01,253.45z"/>
		<path d="M208.12,254.85c0-1.33,1.1-2.01,3.91-2.18c-0.06-0.53-0.46-0.86-1.26-0.86c-0.57,0-1.14,0.22-1.81,0.56l-0.63-1.16
			c0.82-0.47,1.77-0.8,2.78-0.8c1.67,0,2.69,0.87,2.69,2.69v3.4h-1.44l-0.13-0.67h-0.04c-0.6,0.45-1.35,0.81-2.11,0.81
			C208.88,256.64,208.12,255.85,208.12,254.85z M212.04,254.71v-0.97c-1.75,0.09-2.22,0.47-2.22,0.97c0,0.38,0.32,0.57,0.82,0.57
			C211.17,255.28,211.62,255.04,212.04,254.71z"/>
		<path d="M215.22,255.73l0.75-1.1c0.73,0.45,1.55,0.71,2.4,0.71c0.65,0,0.94-0.22,0.94-0.51c0-0.33-0.29-0.45-1.46-0.7
			c-1.62-0.35-2.26-0.94-2.26-1.86c0-1.11,1.04-1.86,2.73-1.86c1.06,0,1.96,0.42,2.58,0.81l-0.79,1.06
			c-0.6-0.36-1.29-0.57-1.95-0.57c-0.55,0-0.82,0.2-0.82,0.48c0,0.33,0.37,0.41,1.37,0.63c1.84,0.41,2.35,0.93,2.35,1.9
			c0,1.08-1.03,1.92-2.94,1.92C217.07,256.64,215.97,256.23,215.22,255.73z"/>
		<path d="M223.88,254.04v-2.1h-1.5v-1.31l1.58-0.07l0.23-1.82h1.46v1.82h2.51v1.38h-2.51v2.08c0,0.91,0.38,1.25,1.25,1.25
			c0.44,0,0.82-0.09,1.17-0.21l0.32,1.28c-0.53,0.16-1.15,0.32-1.94,0.32C224.55,256.64,223.88,255.6,223.88,254.04z"/>
		<path d="M238.28,254.04v-2.1h-1.5v-1.31l1.58-0.07l0.23-1.82h1.46v1.82h2.51v1.38h-2.51v2.08c0,0.91,0.38,1.25,1.25,1.25
			c0.44,0,0.82-0.09,1.17-0.21l0.32,1.28c-0.53,0.16-1.15,0.32-1.94,0.32C238.95,256.64,238.28,255.6,238.28,254.04z"/>
		<path d="M244.05,253.52c0-1.95,1.5-3.12,3.09-3.12c1.83,0,2.8,1.24,2.8,2.86c0,0.32-0.05,0.64-0.07,0.79h-4.51v-1.18h3.32
			l-0.28,0.34c0-0.96-0.42-1.46-1.2-1.46c-0.87,0-1.44,0.59-1.44,1.77c0,1.23,0.67,1.78,1.83,1.78c0.54,0,1-0.15,1.53-0.41
			l0.58,1.06c-0.68,0.44-1.56,0.7-2.36,0.7C245.49,256.64,244.05,255.5,244.05,253.52z"/>
		<path d="M251.45,250.55h1.44l0.13,0.79h0.05c0.52-0.51,1.17-0.94,2.06-0.94c1.34,0,1.94,0.92,1.94,2.42v3.67h-1.77v-3.45
			c0-0.79-0.23-1.14-0.87-1.14c-0.47,0-0.79,0.22-1.2,0.62v3.97h-1.77V250.55z"/>
		<path d="M258.42,255.73l0.75-1.1c0.73,0.45,1.55,0.71,2.4,0.71c0.65,0,0.94-0.22,0.94-0.51c0-0.33-0.29-0.45-1.46-0.7
			c-1.62-0.35-2.26-0.94-2.26-1.86c0-1.11,1.04-1.86,2.73-1.86c1.06,0,1.96,0.42,2.58,0.81l-0.79,1.06
			c-0.6-0.36-1.29-0.57-1.95-0.57c-0.55,0-0.82,0.2-0.82,0.48c0,0.33,0.37,0.41,1.37,0.63c1.84,0.41,2.35,0.93,2.35,1.9
			c0,1.08-1.03,1.92-2.94,1.92C260.27,256.64,259.17,256.23,258.42,255.73z"/>
		<path d="M265.65,253.52c0-1.95,1.5-3.12,3.09-3.12c1.83,0,2.8,1.24,2.8,2.86c0,0.32-0.05,0.64-0.07,0.79h-4.51v-1.18h3.32
			l-0.28,0.34c0-0.96-0.42-1.46-1.2-1.46c-0.87,0-1.44,0.59-1.44,1.77c0,1.23,0.67,1.78,1.83,1.78c0.54,0,1-0.15,1.53-0.41
			l0.58,1.06c-0.68,0.44-1.56,0.7-2.36,0.7C267.09,256.64,265.65,255.5,265.65,253.52z"/>
	</g>
</g>
<g>
	<g>
		<path d="M49.82,279.58h2.78c1.66,0,3.02,0.57,3.02,2.43c0,1.8-1.36,2.57-3.02,2.57H51.6v2.81h-1.77V279.58z M52.46,283.18
			c0.93,0,1.43-0.4,1.43-1.17c0-0.77-0.5-1.03-1.43-1.03H51.6v2.2H52.46z M53.5,282.99l2.49,4.41h-1.98l-1.74-3.28L53.5,282.99z"/>
		<path d="M56.85,284.42c0-1.95,1.5-3.12,3.1-3.12c1.83,0,2.8,1.24,2.8,2.86c0,0.32-0.05,0.64-0.07,0.79h-4.51v-1.18h3.32
			l-0.28,0.34c0-0.96-0.42-1.46-1.2-1.46c-0.87,0-1.44,0.59-1.44,1.77c0,1.23,0.67,1.78,1.83,1.78c0.54,0,1.01-0.15,1.53-0.41
			l0.58,1.06c-0.68,0.44-1.56,0.7-2.36,0.7C58.29,287.54,56.85,286.4,56.85,284.42z"/>
		<path d="M64.19,284.43c0-1.98,1.61-3.12,3.44-3.12c0.94,0,1.73,0.33,2.23,0.81l-0.81,1.09c-0.45-0.33-0.87-0.48-1.32-0.48
			c-1.02,0-1.73,0.67-1.73,1.7c0,1.03,0.69,1.69,1.67,1.69c0.62,0,1.14-0.27,1.57-0.57l0.71,1.12c-0.72,0.6-1.63,0.88-2.44,0.88
			C65.63,287.54,64.19,286.4,64.19,284.43z"/>
		<path d="M71.15,284.43c0-1.98,1.46-3.12,3.03-3.12s3.03,1.14,3.03,3.12c0,1.97-1.46,3.12-3.03,3.12S71.15,286.4,71.15,284.43z
			 M75.42,284.43c0-1.03-0.41-1.7-1.23-1.7s-1.23,0.67-1.23,1.7c0,1.03,0.42,1.69,1.23,1.69S75.42,285.46,75.42,284.43z"/>
		<path d="M79.17,281.45h1.45l0.14,1.3h0.04c0.59-0.97,1.46-1.45,2.41-1.45c0.52,0,0.8,0.09,1.14,0.24L84,283.03
			c-0.37-0.11-0.61-0.17-1.05-0.17c-0.74,0-1.5,0.38-2.01,1.45v3.09h-1.77V281.45z"/>
		<path d="M85.55,284.43c0-1.95,1.25-3.12,2.54-3.12c0.65,0,1.1,0.23,1.5,0.64h0.04l-0.08-0.92V279h1.77v8.4h-1.44l-0.13-0.61h-0.04
			c-0.44,0.43-1.05,0.76-1.65,0.76C86.54,287.54,85.55,286.37,85.55,284.43z M89.56,285.54v-2.4c-0.32-0.29-0.65-0.39-1-0.39
			c-0.64,0-1.2,0.53-1.2,1.66c0,1.17,0.43,1.69,1.15,1.69C88.92,286.1,89.25,285.95,89.56,285.54z"/>
		<path d="M92.85,284.42c0-1.95,1.5-3.12,3.1-3.12c1.83,0,2.8,1.24,2.8,2.86c0,0.32-0.05,0.64-0.07,0.79h-4.51v-1.18h3.32
			l-0.28,0.34c0-0.96-0.42-1.46-1.2-1.46c-0.87,0-1.44,0.59-1.44,1.77c0,1.23,0.67,1.78,1.83,1.78c0.54,0,1.01-0.15,1.53-0.41
			l0.58,1.06c-0.68,0.44-1.56,0.7-2.36,0.7C94.29,287.54,92.85,286.4,92.85,284.42z"/>
		<path d="M100.77,281.45h1.45l0.14,1.3h0.04c0.59-0.97,1.46-1.45,2.41-1.45c0.52,0,0.8,0.09,1.14,0.24l-0.36,1.48
			c-0.37-0.11-0.61-0.17-1.05-0.17c-0.74,0-1.5,0.38-2.01,1.45v3.09h-1.77V281.45z"/>
		<path d="M108.79,282.26c0-0.78,0.57-1.41,1.4-1.41s1.4,0.63,1.4,1.41c0,0.79-0.57,1.41-1.4,1.41S108.79,283.05,108.79,282.26z
			 M108.79,286.13c0-0.78,0.57-1.41,1.4-1.41s1.4,0.63,1.4,1.41c0,0.79-0.57,1.41-1.4,1.41S108.79,286.93,108.79,286.13z"/>
		<path d="M121.59,286.41l1.02-1.21c0.59,0.48,1.32,0.82,2.08,0.82c0.75,0,1.1-0.29,1.1-0.67c0-0.56-0.46-0.7-1.2-1.01l-1.02-0.44
			c-0.87-0.33-1.66-0.99-1.66-2.13c0-1.29,1.17-2.33,2.86-2.33c0.94,0,1.89,0.35,2.6,1.02l-0.89,1.12c-0.55-0.4-1.04-0.61-1.8-0.61
			c-0.58,0-0.98,0.24-0.98,0.7c0,0.47,0.52,0.64,1.27,0.92l0.96,0.41c1.02,0.38,1.67,1.02,1.67,2.12c0,1.3-1.09,2.42-3.02,2.42
			C123.51,287.54,122.42,287.16,121.59,286.41z"/>
		<path d="M129.05,281.45h1.44l0.13,0.61h0.04c0.48-0.44,1.13-0.75,1.77-0.75c1.48,0,2.38,1.19,2.38,3.03
			c0,2.04-1.25,3.21-2.58,3.21c-0.52,0-1.04-0.23-1.46-0.64h-0.04l0.08,0.96v1.74h-1.77V281.45z M133.01,284.35
			c0-1.07-0.35-1.6-1.1-1.6c-0.38,0-0.73,0.16-1.1,0.55v2.4c0.33,0.29,0.71,0.39,1.02,0.39
			C132.49,286.1,133.01,285.58,133.01,284.35z"/>
		<path d="M136.05,284.42c0-1.95,1.5-3.12,3.1-3.12c1.83,0,2.8,1.24,2.8,2.86c0,0.32-0.05,0.64-0.07,0.79h-4.51v-1.18h3.32
			l-0.28,0.34c0-0.96-0.42-1.46-1.2-1.46c-0.87,0-1.44,0.59-1.44,1.77c0,1.23,0.67,1.78,1.83,1.78c0.54,0,1.01-0.15,1.53-0.41
			l0.58,1.06c-0.68,0.44-1.56,0.7-2.36,0.7C137.49,287.54,136.05,286.4,136.05,284.42z"/>
		<path d="M143.32,285.75c0-1.33,1.1-2.01,3.91-2.18c-0.06-0.53-0.46-0.86-1.26-0.86c-0.57,0-1.14,0.22-1.81,0.56l-0.63-1.16
			c0.82-0.47,1.77-0.8,2.78-0.8c1.67,0,2.69,0.87,2.69,2.69v3.4h-1.44l-0.13-0.67h-0.04c-0.6,0.45-1.35,0.81-2.11,0.81
			C144.08,287.54,143.32,286.75,143.32,285.75z M147.24,285.61v-0.97c-1.75,0.09-2.22,0.47-2.22,0.97c0,0.38,0.32,0.57,0.82,0.57
			C146.37,286.18,146.82,285.93,147.24,285.61z"/>
		<path d="M150.69,279h1.77v4.84h0.05l2.19-2.39h1.93l-4.16,4.45v1.5h-1.77V279z M153.17,284.7l1.02-1.1l2.63,3.79h-1.92
			L153.17,284.7z"/>
		<path d="M159.17,288.97c1.06-0.38,1.58-0.98,1.55-1.74l-0.06-1.43l0.72,1.21c-0.23,0.19-0.5,0.28-0.79,0.28
			c-0.68,0-1.3-0.44-1.3-1.23c0-0.74,0.6-1.23,1.35-1.23c0.98,0,1.49,0.77,1.49,2.05c0,1.52-0.87,2.62-2.53,3.12L159.17,288.97z"/>
		<path d="M172.67,279.58h1.77v6.33h3.48v1.48h-5.25V279.58z"/>
		<path d="M181.92,282.83h-2.4v-1.38h4.16v5.95h-1.77V282.83z M181.55,279.44c0-0.65,0.49-1.1,1.17-1.1c0.68,0,1.17,0.45,1.17,1.1
			c0,0.65-0.49,1.08-1.17,1.08C182.05,280.52,181.55,280.09,181.55,279.44z"/>
		<path d="M186.42,286.63l0.75-1.1c0.73,0.45,1.55,0.71,2.4,0.71c0.65,0,0.94-0.22,0.94-0.51c0-0.33-0.29-0.45-1.46-0.7
			c-1.62-0.35-2.26-0.94-2.26-1.86c0-1.11,1.04-1.86,2.73-1.86c1.06,0,1.96,0.42,2.58,0.81l-0.79,1.06
			c-0.6-0.36-1.29-0.57-1.95-0.57c-0.55,0-0.82,0.2-0.82,0.48c0,0.33,0.37,0.41,1.37,0.63c1.84,0.41,2.35,0.94,2.35,1.9
			c0,1.08-1.03,1.92-2.94,1.92C188.27,287.54,187.17,287.13,186.42,286.63z"/>
		<path d="M195.08,284.93v-2.1h-1.5v-1.31l1.58-0.07l0.23-1.82h1.46v1.82h2.51v1.38h-2.51v2.08c0,0.91,0.38,1.25,1.25,1.25
			c0.44,0,0.82-0.09,1.17-0.21l0.32,1.28c-0.53,0.16-1.15,0.32-1.94,0.32C195.75,287.54,195.08,286.49,195.08,284.93z"/>
		<path d="M200.85,284.42c0-1.95,1.5-3.12,3.09-3.12c1.83,0,2.8,1.24,2.8,2.86c0,0.32-0.05,0.64-0.07,0.79h-4.51v-1.18h3.32
			l-0.28,0.34c0-0.96-0.42-1.46-1.2-1.46c-0.87,0-1.44,0.59-1.44,1.77c0,1.23,0.67,1.78,1.83,1.78c0.54,0,1-0.15,1.53-0.41
			l0.58,1.06c-0.68,0.44-1.56,0.7-2.36,0.7C202.29,287.54,200.85,286.4,200.85,284.42z"/>
		<path d="M208.25,281.45h1.44l0.13,0.79h0.05c0.52-0.51,1.17-0.94,2.06-0.94c1.34,0,1.94,0.92,1.94,2.42v3.67h-1.77v-3.45
			c0-0.79-0.23-1.14-0.87-1.14c-0.47,0-0.79,0.22-1.2,0.62v3.97h-1.77V281.45z"/>
		<path d="M216.77,288.97c1.06-0.38,1.58-0.98,1.55-1.74l-0.06-1.43l0.72,1.21c-0.23,0.19-0.5,0.28-0.79,0.28
			c-0.68,0-1.3-0.44-1.3-1.23c0-0.74,0.6-1.23,1.35-1.23c0.98,0,1.49,0.77,1.49,2.05c0,1.52-0.87,2.62-2.53,3.12L216.77,288.97z"/>
		<path d="M229.82,279.58h2.78c1.66,0,3.02,0.57,3.02,2.43c0,1.8-1.36,2.57-3.02,2.57h-1.01v2.81h-1.77V279.58z M232.46,283.18
			c0.93,0,1.43-0.4,1.43-1.17c0-0.77-0.5-1.03-1.43-1.03h-0.86v2.2H232.46z M233.5,282.99l2.49,4.41h-1.98l-1.74-3.28L233.5,282.99z
			"/>
		<path d="M236.85,284.42c0-1.95,1.5-3.12,3.09-3.12c1.83,0,2.8,1.24,2.8,2.86c0,0.32-0.05,0.64-0.07,0.79h-4.51v-1.18h3.32
			l-0.28,0.34c0-0.96-0.42-1.46-1.2-1.46c-0.87,0-1.44,0.59-1.44,1.77c0,1.23,0.67,1.78,1.83,1.78c0.54,0,1-0.15,1.53-0.41
			l0.58,1.06c-0.68,0.44-1.56,0.7-2.36,0.7C238.29,287.54,236.85,286.4,236.85,284.42z"/>
		<path d="M244.25,281.45h1.44l0.13,0.61h0.04c0.48-0.44,1.13-0.75,1.77-0.75c1.49,0,2.38,1.19,2.38,3.03
			c0,2.04-1.25,3.21-2.58,3.21c-0.52,0-1.04-0.23-1.46-0.64h-0.04l0.08,0.96v1.74h-1.77V281.45z M248.21,284.35
			c0-1.07-0.35-1.6-1.1-1.6c-0.38,0-0.73,0.16-1.1,0.55v2.4c0.33,0.29,0.71,0.39,1.02,0.39
			C247.69,286.1,248.21,285.58,248.21,284.35z"/>
		<path d="M251.25,284.42c0-1.95,1.5-3.12,3.09-3.12c1.83,0,2.8,1.24,2.8,2.86c0,0.32-0.05,0.64-0.07,0.79h-4.51v-1.18h3.32
			l-0.28,0.34c0-0.96-0.42-1.46-1.2-1.46c-0.87,0-1.44,0.59-1.44,1.77c0,1.23,0.67,1.78,1.83,1.78c0.54,0,1-0.15,1.53-0.41
			l0.58,1.06c-0.68,0.44-1.56,0.7-2.36,0.7C252.69,287.54,251.25,286.4,251.25,284.42z"/>
		<path d="M258.52,285.75c0-1.33,1.1-2.01,3.91-2.18c-0.06-0.53-0.46-0.86-1.26-0.86c-0.57,0-1.14,0.22-1.81,0.56l-0.63-1.16
			c0.82-0.47,1.77-0.8,2.78-0.8c1.67,0,2.69,0.87,2.69,2.69v3.4h-1.44l-0.13-0.67h-0.04c-0.6,0.45-1.35,0.81-2.11,0.81
			C259.27,287.54,258.52,286.75,258.52,285.75z M262.44,285.61v-0.97c-1.75,0.09-2.22,0.47-2.22,0.97c0,0.38,0.32,0.57,0.82,0.57
			C261.57,286.18,262.01,285.93,262.44,285.61z"/>
		<path d="M267.08,284.93v-2.1h-1.5v-1.31l1.58-0.07l0.23-1.82h1.46v1.82h2.51v1.38h-2.51v2.08c0,0.91,0.38,1.25,1.25,1.25
			c0.44,0,0.82-0.09,1.17-0.21l0.32,1.28c-0.53,0.16-1.15,0.32-1.94,0.32C267.75,287.54,267.08,286.49,267.08,284.93z"/>
		<path d="M49.83,311.62h5.52v1.24h-5.52V311.62z"/>
		<path d="M64,310.8c0-1.3,0.7-2.32,2.1-2.96l0.46,0.93c-0.89,0.4-1.34,0.99-1.34,1.82l0.07,1.14l-0.71-0.98
			c0.22-0.19,0.58-0.35,0.89-0.35c0.64,0,1.09,0.44,1.09,1.1c0,0.73-0.48,1.21-1.15,1.21C64.51,312.72,64,312.01,64,310.8z
			 M67.19,310.8c0-1.3,0.7-2.32,2.1-2.96l0.46,0.93c-0.89,0.4-1.34,0.99-1.34,1.82l0.07,1.14l-0.71-0.98
			c0.22-0.19,0.58-0.35,0.89-0.35c0.64,0,1.09,0.44,1.09,1.1c0,0.73-0.48,1.21-1.15,1.21C67.71,312.72,67.19,312.01,67.19,310.8z"/>
		<path d="M71.45,307.8h1.77v2.05l-0.1,1.15h0.04c0.44-0.46,1.08-0.89,1.97-0.89c1.34,0,1.93,0.92,1.93,2.42v3.67H75.3v-3.45
			c0-0.79-0.23-1.14-0.87-1.14c-0.47,0-0.79,0.22-1.2,0.62v3.97h-1.77V307.8z"/>
		<path d="M78.53,313.92v-3.67h1.77v3.45c0,0.79,0.21,1.14,0.87,1.14c0.44,0,0.75-0.15,1.15-0.68v-3.91h1.77v5.95h-1.44l-0.13-0.86
			h-0.05c-0.53,0.61-1.15,1-2.01,1C79.11,316.34,78.53,315.42,78.53,313.92z"/>
		<path d="M85.41,310.25h1.33l0.13,0.73h0.04c0.22-0.48,0.6-0.88,1.29-0.88c0.52,0,0.89,0.34,1.03,0.97
			c0.21-0.54,0.64-0.97,1.32-0.97c0.85,0,1.33,0.73,1.33,1.92v4.17H90.2v-4.05c0-0.37-0.09-0.54-0.32-0.54
			c-0.23,0-0.38,0.19-0.55,0.58v4.01h-1.38v-4.05c0-0.37-0.11-0.54-0.34-0.54c-0.22,0-0.37,0.19-0.53,0.58v4.01h-1.68V310.25z"/>
		<path d="M94.63,315.55h-0.04l-0.15,0.65h-1.38v-8.4h1.77v2.05l-0.06,0.94h0.04c0.44-0.43,1.05-0.68,1.63-0.68
			c1.48,0,2.4,1.19,2.4,3.01c0,2.05-1.25,3.22-2.57,3.22C95.7,316.34,95.11,316.07,94.63,315.55z M97.01,313.15
			c0-1.07-0.35-1.6-1.1-1.6c-0.38,0-0.73,0.16-1.1,0.55v2.4c0.33,0.29,0.71,0.39,1.03,0.39C96.49,314.9,97.01,314.38,97.01,313.15z"
			/>
		<path d="M101.86,313.87v-4.69h-1.87v-1.38h3.64v6.14c0,0.74,0.47,0.97,0.97,0.97c0.27,0,0.57-0.06,0.93-0.2l0.39,1.3
			c-0.62,0.2-1.04,0.32-1.78,0.32C102.63,316.34,101.86,315.38,101.86,313.87z"/>
		<path d="M107.25,313.22c0-1.95,1.5-3.12,3.1-3.12c1.83,0,2.8,1.24,2.8,2.86c0,0.32-0.05,0.64-0.07,0.79h-4.51v-1.18h3.32
			l-0.28,0.34c0-0.96-0.42-1.46-1.2-1.46c-0.87,0-1.44,0.59-1.44,1.77c0,1.23,0.67,1.78,1.83,1.78c0.54,0,1.01-0.15,1.53-0.41
			l0.58,1.06c-0.68,0.44-1.56,0.7-2.36,0.7C108.69,316.34,107.25,315.2,107.25,313.22z"/>
		<path d="M114.61,311.79c0.89-0.41,1.35-0.99,1.35-1.82l-0.08-1.14l0.71,0.98c-0.22,0.19-0.58,0.35-0.88,0.35
			c-0.64,0-1.09-0.44-1.09-1.1c0-0.73,0.48-1.21,1.15-1.21c0.9,0,1.41,0.71,1.41,1.92c0,1.3-0.7,2.32-2.1,2.96L114.61,311.79z
			 M117.81,311.79c0.89-0.41,1.35-0.99,1.35-1.82l-0.08-1.14l0.71,0.98c-0.22,0.19-0.58,0.35-0.88,0.35c-0.64,0-1.09-0.44-1.09-1.1
			c0-0.73,0.48-1.21,1.15-1.21c0.9,0,1.41,0.71,1.41,1.92c0,1.3-0.7,2.32-2.1,2.96L117.81,311.79z"/>
		<path d="M49.83,326.02h5.52v1.24h-5.52V326.02z"/>
		<path d="M64,325.21c0-1.3,0.7-2.32,2.1-2.96l0.46,0.93c-0.89,0.4-1.34,0.99-1.34,1.82l0.07,1.14l-0.71-0.98
			c0.22-0.19,0.58-0.35,0.89-0.35c0.64,0,1.09,0.44,1.09,1.1c0,0.73-0.48,1.21-1.15,1.21C64.51,327.12,64,326.41,64,325.21z
			 M67.19,325.21c0-1.3,0.7-2.32,2.1-2.96l0.46,0.93c-0.89,0.4-1.34,0.99-1.34,1.82l0.07,1.14l-0.71-0.98
			c0.22-0.19,0.58-0.35,0.89-0.35c0.64,0,1.09,0.44,1.09,1.1c0,0.73-0.48,1.21-1.15,1.21C67.71,327.12,67.19,326.41,67.19,325.21z"
			/>
		<path d="M73.3,324.27h-2.34v-1.48h6.46v1.48h-2.34v6.33H73.3V324.27z"/>
		<path d="M78.65,322.2h1.77v2.05l-0.1,1.15h0.04c0.44-0.46,1.08-0.89,1.97-0.89c1.34,0,1.93,0.92,1.93,2.42v3.67H82.5v-3.45
			c0-0.79-0.23-1.14-0.87-1.14c-0.47,0-0.79,0.22-1.2,0.62v3.97h-1.77V322.2z"/>
		<path d="M85.65,327.62c0-1.95,1.5-3.12,3.1-3.12c1.83,0,2.8,1.24,2.8,2.86c0,0.32-0.05,0.64-0.07,0.79h-4.51v-1.18h3.32L90,327.3
			c0-0.96-0.42-1.46-1.2-1.46c-0.87,0-1.44,0.59-1.44,1.77c0,1.23,0.67,1.78,1.83,1.78c0.54,0,1.01-0.15,1.53-0.41l0.58,1.06
			c-0.68,0.44-1.56,0.7-2.36,0.7C87.09,330.74,85.65,329.6,85.65,327.62z"/>
		<path d="M100.25,324.65h1.44l0.13,0.61h0.04c0.48-0.44,1.13-0.75,1.77-0.75c1.48,0,2.38,1.19,2.38,3.03
			c0,2.04-1.25,3.21-2.58,3.21c-0.52,0-1.04-0.23-1.46-0.64h-0.04l0.08,0.96v1.74h-1.77V324.65z M104.21,327.55
			c0-1.07-0.35-1.6-1.1-1.6c-0.38,0-0.73,0.16-1.1,0.55v2.4c0.33,0.29,0.71,0.39,1.02,0.39
			C103.69,329.3,104.21,328.78,104.21,327.55z"/>
		<path d="M107.32,328.95c0-1.33,1.1-2.01,3.91-2.18c-0.06-0.53-0.46-0.86-1.26-0.86c-0.57,0-1.14,0.22-1.81,0.56l-0.63-1.16
			c0.82-0.47,1.77-0.8,2.78-0.8c1.67,0,2.69,0.87,2.69,2.69v3.4h-1.44l-0.13-0.67h-0.04c-0.6,0.45-1.35,0.81-2.11,0.81
			C108.08,330.74,107.32,329.95,107.32,328.95z M111.24,328.81v-0.97c-1.75,0.09-2.22,0.47-2.22,0.97c0,0.38,0.32,0.57,0.82,0.57
			C110.37,329.38,110.82,329.13,111.24,328.81z"/>
		<path d="M115.17,324.65h1.45l0.14,1.3h0.04c0.59-0.97,1.46-1.45,2.41-1.45c0.52,0,0.8,0.09,1.14,0.24l-0.36,1.48
			c-0.37-0.12-0.61-0.17-1.05-0.17c-0.74,0-1.5,0.38-2.01,1.45v3.1h-1.77V324.65z"/>
		<path d="M121.89,322.2h1.77v4.84h0.05l2.19-2.39h1.93l-4.16,4.45v1.5h-1.77V322.2z M124.37,327.9l1.02-1.1l2.63,3.79h-1.92
			L124.37,327.9z"/>
		<path d="M131.53,326.03h-2.4v-1.38h4.16v5.95h-1.77V326.03z M131.16,322.64c0-0.65,0.49-1.1,1.17-1.1s1.17,0.45,1.17,1.1
			c0,0.65-0.49,1.08-1.17,1.08S131.16,323.29,131.16,322.64z"/>
		<path d="M136.25,324.65h1.44l0.13,0.79h0.05c0.52-0.51,1.17-0.94,2.06-0.94c1.34,0,1.94,0.92,1.94,2.42v3.67h-1.77v-3.45
			c0-0.79-0.23-1.14-0.87-1.14c-0.47,0-0.79,0.22-1.2,0.62v3.97h-1.77V324.65z"/>
		<path d="M143.21,331.61c0-0.48,0.32-0.88,0.92-1.19v-0.05c-0.33-0.2-0.6-0.51-0.6-1.01c0-0.4,0.29-0.83,0.71-1.12v-0.05
			c-0.44-0.29-0.79-0.83-0.79-1.53c0-1.43,1.2-2.16,2.55-2.16c0.35,0,0.69,0.05,0.98,0.14h2.42v1.3h-1.2
			c0.13,0.18,0.26,0.47,0.26,0.78c0,1.37-1.07,1.99-2.45,1.99c-0.24,0-0.52-0.04-0.82-0.12c-0.18,0.13-0.27,0.24-0.27,0.44
			c0,0.32,0.31,0.45,1.01,0.45h1.1c1.56,0,2.42,0.44,2.42,1.5c0,1.24-1.38,2.14-3.55,2.14
			C144.36,333.13,143.21,332.67,143.21,331.61z M147.77,331.29c0-0.38-0.37-0.46-1.05-0.46h-0.75c-0.43,0-0.69-0.03-0.91-0.08
			c-0.3,0.19-0.42,0.37-0.42,0.58c0,0.45,0.58,0.67,1.51,0.67C147.12,332.01,147.77,331.7,147.77,331.29z M146.91,326.66
			c0-0.62-0.41-0.97-0.9-0.97c-0.49,0-0.89,0.35-0.89,0.97c0,0.65,0.4,0.99,0.89,0.99C146.5,327.65,146.91,327.31,146.91,326.66z"/>
		<path d="M157.79,327.63c0-1.98,1.61-3.12,3.44-3.12c0.94,0,1.73,0.33,2.23,0.81l-0.81,1.09c-0.45-0.33-0.87-0.48-1.32-0.48
			c-1.02,0-1.73,0.67-1.73,1.7c0,1.03,0.7,1.69,1.67,1.69c0.62,0,1.14-0.27,1.57-0.57l0.71,1.11c-0.72,0.6-1.63,0.88-2.44,0.88
			C159.23,330.74,157.79,329.6,157.79,327.63z"/>
		<path d="M164.75,327.63c0-1.98,1.46-3.12,3.03-3.12c1.57,0,3.03,1.14,3.03,3.12c0,1.97-1.46,3.12-3.03,3.12
			C166.22,330.74,164.75,329.6,164.75,327.63z M169.01,327.63c0-1.03-0.42-1.7-1.23-1.7s-1.23,0.67-1.23,1.7
			c0,1.03,0.41,1.69,1.23,1.69S169.01,328.66,169.01,327.63z"/>
		<path d="M172.25,324.65h1.44l0.13,0.79h0.05c0.52-0.51,1.17-0.94,2.06-0.94c1.34,0,1.94,0.92,1.94,2.42v3.67h-1.77v-3.45
			c0-0.79-0.23-1.14-0.87-1.14c-0.47,0-0.79,0.22-1.2,0.62v3.97h-1.77V324.65z"/>
		<path d="M179.25,327.62c0-1.95,1.5-3.12,3.09-3.12c1.83,0,2.8,1.24,2.8,2.86c0,0.32-0.05,0.64-0.07,0.79h-4.51v-1.18h3.32
			l-0.28,0.34c0-0.96-0.42-1.46-1.2-1.46c-0.87,0-1.44,0.59-1.44,1.77c0,1.23,0.67,1.78,1.83,1.78c0.54,0,1-0.15,1.53-0.41
			l0.58,1.06c-0.68,0.44-1.56,0.7-2.36,0.7C180.69,330.74,179.25,329.6,179.25,327.62z"/>
		<path d="M196.33,326.03h-2.4v-1.38h4.16v5.95h-1.77V326.03z M195.96,322.64c0-0.65,0.49-1.1,1.17-1.1c0.68,0,1.17,0.45,1.17,1.1
			c0,0.65-0.49,1.08-1.17,1.08C196.45,323.72,195.96,323.29,195.96,322.64z"/>
		<path d="M200.82,329.83l0.75-1.1c0.73,0.45,1.55,0.71,2.4,0.71c0.65,0,0.94-0.22,0.94-0.51c0-0.33-0.29-0.45-1.46-0.7
			c-1.62-0.35-2.26-0.94-2.26-1.86c0-1.11,1.04-1.86,2.73-1.86c1.06,0,1.96,0.42,2.58,0.81l-0.79,1.06
			c-0.6-0.36-1.29-0.57-1.95-0.57c-0.55,0-0.82,0.2-0.82,0.48c0,0.33,0.37,0.41,1.37,0.63c1.84,0.41,2.35,0.93,2.35,1.9
			c0,1.08-1.03,1.92-2.94,1.92C202.67,330.74,201.57,330.33,200.82,329.83z"/>
		<path d="M208.25,324.65h1.44l0.13,0.79h0.05c0.52-0.51,1.17-0.94,2.06-0.94c1.34,0,1.94,0.92,1.94,2.42v3.67h-1.77v-3.45
			c0-0.79-0.23-1.14-0.87-1.14c-0.47,0-0.79,0.22-1.2,0.62v3.97h-1.77V324.65z"/>
		<path d="M217.01,326.19c0.89-0.41,1.35-0.99,1.35-1.82l-0.08-1.14l0.71,0.98c-0.22,0.19-0.58,0.35-0.88,0.35
			c-0.64,0-1.09-0.44-1.09-1.1c0-0.73,0.48-1.21,1.15-1.21c0.9,0,1.41,0.71,1.41,1.92c0,1.3-0.7,2.32-2.1,2.96L217.01,326.19z"/>
		<path d="M223.88,328.13v-2.1h-1.5v-1.31l1.58-0.07l0.23-1.82h1.46v1.82h2.51v1.38h-2.51v2.08c0,0.9,0.38,1.24,1.25,1.24
			c0.44,0,0.82-0.09,1.17-0.21l0.32,1.28c-0.53,0.16-1.15,0.32-1.94,0.32C224.55,330.74,223.88,329.69,223.88,328.13z"/>
		<path d="M236.75,327.63c0-1.98,1.46-3.12,3.03-3.12c1.57,0,3.03,1.14,3.03,3.12c0,1.97-1.46,3.12-3.03,3.12
			C238.22,330.74,236.75,329.6,236.75,327.63z M241.01,327.63c0-1.03-0.42-1.7-1.23-1.7s-1.23,0.67-1.23,1.7
			c0,1.03,0.41,1.69,1.23,1.69S241.01,328.66,241.01,327.63z"/>
		<path d="M244.77,324.65h1.45l0.14,1.3h0.04c0.58-0.97,1.46-1.45,2.41-1.45c0.52,0,0.8,0.09,1.14,0.24l-0.36,1.48
			c-0.37-0.12-0.62-0.17-1.05-0.17c-0.74,0-1.5,0.38-2.01,1.45v3.1h-1.77V324.65z"/>
		<path d="M251.32,328.95c0-1.33,1.1-2.01,3.91-2.18c-0.06-0.53-0.46-0.86-1.26-0.86c-0.57,0-1.14,0.22-1.81,0.56l-0.63-1.16
			c0.82-0.47,1.77-0.8,2.78-0.8c1.67,0,2.69,0.87,2.69,2.69v3.4h-1.44l-0.13-0.67h-0.04c-0.6,0.45-1.35,0.81-2.11,0.81
			C252.07,330.74,251.32,329.95,251.32,328.95z M255.24,328.81v-0.97c-1.75,0.09-2.22,0.47-2.22,0.97c0,0.38,0.32,0.57,0.82,0.57
			C254.37,329.38,254.81,329.13,255.24,328.81z"/>
		<path d="M258.65,324.65h1.44l0.13,0.79h0.05c0.52-0.51,1.17-0.94,2.06-0.94c1.34,0,1.94,0.92,1.94,2.42v3.67h-1.77v-3.45
			c0-0.79-0.23-1.14-0.87-1.14c-0.47,0-0.79,0.22-1.2,0.62v3.97h-1.77V324.65z"/>
		<path d="M265.61,331.61c0-0.48,0.32-0.88,0.92-1.19v-0.05c-0.33-0.2-0.6-0.51-0.6-1.01c0-0.4,0.29-0.83,0.71-1.12v-0.05
			c-0.44-0.29-0.79-0.83-0.79-1.53c0-1.43,1.2-2.16,2.55-2.16c0.35,0,0.69,0.05,0.98,0.14h2.42v1.3h-1.2
			c0.13,0.18,0.26,0.47,0.26,0.78c0,1.37-1.07,1.99-2.45,1.99c-0.24,0-0.52-0.04-0.82-0.12c-0.18,0.13-0.26,0.24-0.26,0.44
			c0,0.32,0.31,0.45,1.01,0.45h1.1c1.56,0,2.42,0.44,2.42,1.5c0,1.24-1.38,2.14-3.55,2.14
			C266.76,333.13,265.61,332.67,265.61,331.61z M270.17,331.29c0-0.38-0.37-0.46-1.05-0.46h-0.75c-0.43,0-0.69-0.03-0.91-0.08
			c-0.3,0.19-0.42,0.37-0.42,0.58c0,0.45,0.58,0.67,1.51,0.67C269.51,332.01,270.17,331.7,270.17,331.29z M269.31,326.66
			c0-0.62-0.41-0.97-0.9-0.97c-0.49,0-0.89,0.35-0.89,0.97c0,0.65,0.4,0.99,0.89,0.99C268.9,327.65,269.31,327.31,269.31,326.66z"/>
		<path d="M272.85,327.62c0-1.95,1.5-3.12,3.09-3.12c1.83,0,2.8,1.24,2.8,2.86c0,0.32-0.05,0.64-0.07,0.79h-4.51v-1.18h3.32
			l-0.28,0.34c0-0.96-0.42-1.46-1.2-1.46c-0.87,0-1.44,0.59-1.44,1.77c0,1.23,0.67,1.78,1.83,1.78c0.54,0,1-0.15,1.53-0.41
			l0.58,1.06c-0.68,0.44-1.56,0.7-2.36,0.7C274.29,330.74,272.85,329.6,272.85,327.62z"/>
		<path d="M281.59,329.33c0-0.78,0.57-1.41,1.4-1.41s1.4,0.63,1.4,1.41c0,0.79-0.57,1.41-1.4,1.41S281.59,330.13,281.59,329.33z"/>
		<path d="M287.41,326.19c0.89-0.41,1.35-0.99,1.35-1.82l-0.08-1.14l0.71,0.98c-0.22,0.19-0.58,0.35-0.88,0.35
			c-0.64,0-1.09-0.44-1.09-1.1c0-0.73,0.48-1.21,1.15-1.21c0.9,0,1.41,0.71,1.41,1.92c0,1.3-0.7,2.32-2.1,2.96L287.41,326.19z
			 M290.6,326.19c0.89-0.41,1.35-0.99,1.35-1.82l-0.08-1.14l0.71,0.98c-0.22,0.19-0.58,0.35-0.88,0.35c-0.64,0-1.09-0.44-1.09-1.1
			c0-0.73,0.48-1.21,1.15-1.21c0.89,0,1.41,0.71,1.41,1.92c0,1.3-0.7,2.32-2.1,2.96L290.6,326.19z"/>
		<path d="M49.83,340.42h5.52v1.25h-5.52V340.42z"/>
		<path d="M64,339.6c0-1.3,0.7-2.32,2.1-2.96l0.46,0.93c-0.89,0.4-1.34,0.99-1.34,1.82l0.07,1.14l-0.71-0.98
			c0.22-0.19,0.58-0.35,0.89-0.35c0.64,0,1.09,0.44,1.09,1.1c0,0.73-0.48,1.21-1.15,1.21C64.51,341.52,64,340.81,64,339.6z
			 M67.19,339.6c0-1.3,0.7-2.32,2.1-2.96l0.46,0.93c-0.89,0.4-1.34,0.99-1.34,1.82l0.07,1.14l-0.71-0.98
			c0.22-0.19,0.58-0.35,0.89-0.35c0.64,0,1.09,0.44,1.09,1.1c0,0.73-0.48,1.21-1.15,1.21C67.71,341.52,67.19,340.81,67.19,339.6z"/>
		<path d="M73.13,337.18h2.12l2.43,7.81h-1.88l-1.01-3.96c-0.2-0.78-0.44-1.7-0.62-2.52h-0.05c-0.19,0.82-0.41,1.74-0.61,2.52
			L72.5,345h-1.81L73.13,337.18z M72.3,341.76h3.74v1.38H72.3V341.76z"/>
		<path d="M78.53,342.72v-3.67h1.77v3.45c0,0.79,0.21,1.14,0.87,1.14c0.44,0,0.75-0.16,1.15-0.68v-3.91h1.77V345h-1.44l-0.13-0.86
			h-0.05c-0.53,0.61-1.15,1-2.01,1C79.11,345.14,78.53,344.22,78.53,342.72z"/>
		<path d="M85.61,346.01c0-0.49,0.32-0.88,0.92-1.19v-0.05c-0.33-0.2-0.6-0.51-0.6-1.01c0-0.4,0.29-0.83,0.71-1.12v-0.05
			c-0.44-0.29-0.79-0.83-0.79-1.53c0-1.43,1.2-2.16,2.55-2.16c0.35,0,0.69,0.05,0.98,0.14h2.42v1.3h-1.2
			c0.13,0.18,0.26,0.47,0.26,0.78c0,1.37-1.07,1.99-2.45,1.99c-0.24,0-0.52-0.04-0.82-0.12c-0.18,0.13-0.27,0.24-0.27,0.44
			c0,0.32,0.31,0.45,1.01,0.45h1.1c1.56,0,2.42,0.44,2.42,1.51c0,1.24-1.38,2.14-3.55,2.14C86.76,347.53,85.61,347.07,85.61,346.01z
			 M90.17,345.69c0-0.38-0.37-0.46-1.05-0.46h-0.75c-0.43,0-0.69-0.02-0.91-0.08c-0.3,0.19-0.42,0.37-0.42,0.58
			c0,0.45,0.58,0.68,1.51,0.68C89.52,346.41,90.17,346.1,90.17,345.69z M89.31,341.06c0-0.62-0.41-0.97-0.9-0.97
			c-0.49,0-0.89,0.34-0.89,0.97c0,0.65,0.4,0.99,0.89,0.99C88.9,342.05,89.31,341.71,89.31,341.06z"/>
		<path d="M92.93,342.72v-3.67h1.77v3.45c0,0.79,0.21,1.14,0.87,1.14c0.44,0,0.75-0.16,1.15-0.68v-3.91h1.77V345h-1.44l-0.13-0.86
			h-0.05c-0.53,0.61-1.15,1-2.01,1C93.51,345.14,92.93,344.22,92.93,342.72z"/>
		<path d="M100.02,344.23l0.75-1.1c0.73,0.45,1.55,0.71,2.4,0.71c0.65,0,0.94-0.22,0.94-0.51c0-0.33-0.29-0.45-1.46-0.7
			c-1.62-0.35-2.26-0.94-2.26-1.86c0-1.11,1.04-1.86,2.73-1.86c1.06,0,1.96,0.42,2.58,0.81l-0.79,1.06
			c-0.6-0.36-1.29-0.57-1.95-0.57c-0.55,0-0.82,0.2-0.82,0.48c0,0.33,0.37,0.41,1.37,0.63c1.84,0.41,2.35,0.94,2.35,1.9
			c0,1.08-1.03,1.92-2.94,1.92C101.87,345.14,100.78,344.73,100.02,344.23z"/>
		<path d="M108.68,342.53v-2.1h-1.5v-1.31l1.58-0.07l0.23-1.82h1.46v1.82h2.51v1.38h-2.51v2.08c0,0.91,0.38,1.25,1.25,1.25
			c0.44,0,0.82-0.09,1.18-0.21l0.32,1.28c-0.53,0.16-1.15,0.32-1.94,0.32C109.35,345.14,108.68,344.09,108.68,342.53z"/>
		<path d="M121.97,339.12l1.63-0.07h3.75v1.38h-5.38V339.12z M123.55,338.89c0-1.36,0.8-2.44,2.66-2.44c0.68,0,1.3,0.15,1.8,0.32
			l-0.34,1.3c-0.38-0.14-0.79-0.23-1.24-0.23c-0.76,0-1.12,0.33-1.12,1.05V345h-1.76V338.89z"/>
		<path d="M128.85,342.02c0-1.95,1.5-3.12,3.1-3.12c1.83,0,2.8,1.24,2.8,2.86c0,0.32-0.05,0.64-0.07,0.79h-4.51v-1.18h3.32
			l-0.28,0.34c0-0.96-0.42-1.46-1.2-1.46c-0.87,0-1.44,0.59-1.44,1.77c0,1.23,0.67,1.78,1.83,1.78c0.54,0,1.01-0.15,1.53-0.41
			l0.58,1.06c-0.68,0.44-1.56,0.7-2.36,0.7C130.29,345.14,128.85,344,128.85,342.02z"/>
		<path d="M136.05,342.02c0-1.95,1.5-3.12,3.1-3.12c1.83,0,2.8,1.24,2.8,2.86c0,0.32-0.05,0.64-0.07,0.79h-4.51v-1.18h3.32
			l-0.28,0.34c0-0.96-0.42-1.46-1.2-1.46c-0.87,0-1.44,0.59-1.44,1.77c0,1.23,0.67,1.78,1.83,1.78c0.54,0,1.01-0.15,1.53-0.41
			l0.58,1.06c-0.68,0.44-1.56,0.7-2.36,0.7C137.49,345.14,136.05,344,136.05,342.02z"/>
		<path d="M145.05,342.67v-4.69h-1.87v-1.38h3.64v6.15c0,0.73,0.47,0.97,0.97,0.97c0.27,0,0.57-0.06,0.93-0.2l0.39,1.3
			c-0.62,0.2-1.04,0.32-1.78,0.32C145.83,345.14,145.05,344.18,145.05,342.67z"/>
		<path d="M150.42,344.23l0.75-1.1c0.73,0.45,1.55,0.71,2.4,0.71c0.65,0,0.94-0.22,0.94-0.51c0-0.33-0.29-0.45-1.46-0.7
			c-1.62-0.35-2.26-0.94-2.26-1.86c0-1.11,1.04-1.86,2.73-1.86c1.06,0,1.96,0.42,2.58,0.81l-0.79,1.06
			c-0.6-0.36-1.29-0.57-1.95-0.57c-0.55,0-0.82,0.2-0.82,0.48c0,0.33,0.37,0.41,1.37,0.63c1.84,0.41,2.35,0.94,2.35,1.9
			c0,1.08-1.03,1.92-2.94,1.92C152.27,345.14,151.17,344.73,150.42,344.23z"/>
		<path d="M164.99,342.03c0-1.98,1.61-3.12,3.44-3.12c0.94,0,1.73,0.33,2.23,0.81l-0.81,1.09c-0.45-0.33-0.87-0.48-1.32-0.48
			c-1.02,0-1.73,0.67-1.73,1.7c0,1.03,0.7,1.69,1.67,1.69c0.62,0,1.14-0.27,1.57-0.57l0.71,1.12c-0.72,0.6-1.63,0.88-2.44,0.88
			C166.43,345.14,164.99,344,164.99,342.03z"/>
		<path d="M171.95,342.03c0-1.98,1.46-3.12,3.03-3.12c1.57,0,3.03,1.14,3.03,3.12c0,1.97-1.46,3.12-3.03,3.12
			C173.42,345.14,171.95,344,171.95,342.03z M176.21,342.03c0-1.03-0.42-1.7-1.23-1.7s-1.23,0.67-1.23,1.7
			c0,1.03,0.41,1.69,1.23,1.69S176.21,343.05,176.21,342.03z"/>
		<path d="M179.15,342.03c0-1.98,1.46-3.12,3.03-3.12c1.57,0,3.03,1.14,3.03,3.12c0,1.97-1.46,3.12-3.03,3.12
			C180.62,345.14,179.15,344,179.15,342.03z M183.41,342.03c0-1.03-0.42-1.7-1.23-1.7s-1.23,0.67-1.23,1.7
			c0,1.03,0.41,1.69,1.23,1.69S183.41,343.05,183.41,342.03z"/>
		<path d="M188.25,342.67v-4.69h-1.87v-1.38h3.64v6.15c0,0.73,0.47,0.97,0.97,0.97c0.28,0,0.57-0.06,0.93-0.2l0.39,1.3
			c-0.62,0.2-1.04,0.32-1.78,0.32C189.03,345.14,188.25,344.18,188.25,342.67z"/>
		<path d="M193.65,342.02c0-1.95,1.5-3.12,3.09-3.12c1.83,0,2.8,1.24,2.8,2.86c0,0.32-0.05,0.64-0.07,0.79h-4.51v-1.18h3.32
			L198,341.7c0-0.96-0.42-1.46-1.2-1.46c-0.87,0-1.44,0.59-1.44,1.77c0,1.23,0.67,1.78,1.83,1.78c0.54,0,1-0.15,1.53-0.41l0.58,1.06
			c-0.68,0.44-1.56,0.7-2.36,0.7C195.09,345.14,193.65,344,193.65,342.02z"/>
		<path d="M201.57,339.05h1.45l0.14,1.3h0.04c0.58-0.97,1.46-1.45,2.41-1.45c0.52,0,0.8,0.09,1.14,0.24l-0.36,1.48
			c-0.37-0.11-0.62-0.17-1.05-0.17c-0.74,0-1.5,0.38-2.01,1.45V345h-1.77V339.05z"/>
		<path d="M216.68,342.53v-2.1h-1.5v-1.31l1.58-0.07l0.23-1.82h1.46v1.82h2.51v1.38h-2.51v2.08c0,0.91,0.38,1.25,1.25,1.25
			c0.44,0,0.82-0.09,1.17-0.21l0.32,1.28c-0.53,0.16-1.15,0.32-1.94,0.32C217.35,345.14,216.68,344.09,216.68,342.53z"/>
		<path d="M222.65,336.6h1.77v2.05l-0.1,1.14h0.04c0.44-0.46,1.08-0.89,1.97-0.89c1.34,0,1.93,0.92,1.93,2.42V345h-1.77v-3.45
			c0-0.79-0.23-1.14-0.87-1.14c-0.47,0-0.79,0.22-1.2,0.62V345h-1.77V336.6z"/>
		<path d="M229.72,343.35c0-1.33,1.1-2.01,3.91-2.18c-0.06-0.53-0.46-0.86-1.26-0.86c-0.57,0-1.14,0.22-1.81,0.56l-0.63-1.16
			c0.82-0.47,1.77-0.8,2.78-0.8c1.67,0,2.69,0.87,2.69,2.69v3.4h-1.44l-0.13-0.67h-0.04c-0.6,0.45-1.35,0.81-2.11,0.81
			C230.47,345.14,229.72,344.35,229.72,343.35z M233.64,343.21v-0.97c-1.75,0.09-2.22,0.47-2.22,0.97c0,0.38,0.32,0.57,0.82,0.57
			C232.77,343.78,233.21,343.53,233.64,343.21z"/>
		<path d="M237.05,339.05h1.44l0.13,0.79h0.05c0.52-0.51,1.17-0.94,2.06-0.94c1.34,0,1.94,0.92,1.94,2.42V345h-1.77v-3.45
			c0-0.79-0.23-1.14-0.87-1.14c-0.47,0-0.79,0.22-1.2,0.62V345h-1.77V339.05z"/>
		<path d="M251.33,342.72v-3.67h1.77v3.45c0,0.79,0.21,1.14,0.87,1.14c0.44,0,0.75-0.16,1.15-0.68v-3.91h1.77V345h-1.44l-0.13-0.86
			h-0.05c-0.53,0.61-1.15,1-2.01,1C251.9,345.14,251.33,344.22,251.33,342.72z"/>
		<path d="M258.42,344.23l0.75-1.1c0.73,0.45,1.55,0.71,2.4,0.71c0.65,0,0.94-0.22,0.94-0.51c0-0.33-0.29-0.45-1.46-0.7
			c-1.62-0.35-2.26-0.94-2.26-1.86c0-1.11,1.04-1.86,2.73-1.86c1.06,0,1.96,0.42,2.58,0.81l-0.79,1.06
			c-0.6-0.36-1.29-0.57-1.95-0.57c-0.55,0-0.82,0.2-0.82,0.48c0,0.33,0.37,0.41,1.37,0.63c1.84,0.41,2.35,0.94,2.35,1.9
			c0,1.08-1.03,1.92-2.94,1.92C260.27,345.14,259.17,344.73,258.42,344.23z"/>
		<path d="M265.73,342.72v-3.67h1.77v3.45c0,0.79,0.21,1.14,0.87,1.14c0.44,0,0.75-0.16,1.15-0.68v-3.91h1.77V345h-1.44l-0.13-0.86
			h-0.05c-0.53,0.61-1.15,1-2.01,1C266.3,345.14,265.73,344.22,265.73,342.72z"/>
		<path d="M272.92,343.35c0-1.33,1.1-2.01,3.91-2.18c-0.06-0.53-0.46-0.86-1.26-0.86c-0.57,0-1.14,0.22-1.81,0.56l-0.63-1.16
			c0.82-0.47,1.77-0.8,2.78-0.8c1.67,0,2.69,0.87,2.69,2.69v3.4h-1.44l-0.13-0.67h-0.04c-0.6,0.45-1.35,0.81-2.11,0.81
			C273.67,345.14,272.92,344.35,272.92,343.35z M276.83,343.21v-0.97c-1.75,0.09-2.22,0.47-2.22,0.97c0,0.38,0.32,0.57,0.82,0.57
			C275.96,343.78,276.41,343.53,276.83,343.21z"/>
		<path d="M281.85,342.67v-4.69h-1.87v-1.38h3.64v6.15c0,0.73,0.47,0.97,0.97,0.97c0.28,0,0.57-0.06,0.93-0.2l0.39,1.3
			c-0.62,0.2-1.04,0.32-1.78,0.32C282.63,345.14,281.85,344.18,281.85,342.67z"/>
		<path d="M288.79,343.73c0-0.78,0.57-1.41,1.4-1.41s1.4,0.63,1.4,1.41c0,0.79-0.57,1.41-1.4,1.41S288.79,344.53,288.79,343.73z"/>
		<path d="M294.61,340.59c0.89-0.41,1.35-0.99,1.35-1.82l-0.08-1.14l0.71,0.98c-0.22,0.19-0.58,0.35-0.88,0.35
			c-0.64,0-1.09-0.44-1.09-1.1c0-0.73,0.48-1.21,1.15-1.21c0.9,0,1.41,0.71,1.41,1.92c0,1.3-0.7,2.32-2.1,2.96L294.61,340.59z
			 M297.8,340.59c0.89-0.41,1.35-0.99,1.35-1.82l-0.08-1.14l0.71,0.98c-0.22,0.19-0.58,0.35-0.88,0.35c-0.64,0-1.09-0.44-1.09-1.1
			c0-0.73,0.48-1.21,1.15-1.21c0.89,0,1.41,0.71,1.41,1.92c0,1.3-0.7,2.32-2.1,2.96L297.8,340.59z"/>
		<path d="M49.83,354.82h5.52v1.25h-5.52V354.82z"/>
		<path d="M64,354c0-1.3,0.7-2.32,2.1-2.96l0.46,0.93c-0.89,0.4-1.34,0.99-1.34,1.82l0.07,1.14l-0.71-0.98
			c0.22-0.19,0.58-0.35,0.89-0.35c0.64,0,1.09,0.44,1.09,1.1c0,0.73-0.48,1.21-1.15,1.21C64.51,355.92,64,355.21,64,354z M67.19,354
			c0-1.3,0.7-2.32,2.1-2.96l0.46,0.93c-0.89,0.4-1.34,0.99-1.34,1.82l0.07,1.14l-0.71-0.98c0.22-0.19,0.58-0.35,0.89-0.35
			c0.64,0,1.09,0.44,1.09,1.1c0,0.73-0.48,1.21-1.15,1.21C67.71,355.92,67.19,355.21,67.19,354z"/>
		<path d="M70.64,351.58h1.84l0.23,4.16c0.02,0.67,0.03,1.26,0.04,1.96h0.04c0.11-0.7,0.25-1.3,0.38-1.96l0.53-2.18h1.13l0.49,2.18
			c0.12,0.64,0.27,1.24,0.38,1.96h0.05c0.01-0.72,0.02-1.31,0.04-1.96l0.22-4.17h1.72l-0.97,7.82h-1.89l-0.46-2.42
			c-0.09-0.5-0.18-1.02-0.21-1.49h-0.04c-0.05,0.47-0.11,1-0.21,1.49l-0.45,2.42h-1.85L70.64,351.58z"/>
		<path d="M78.65,351h1.77v2.05l-0.1,1.14h0.04c0.44-0.46,1.08-0.89,1.97-0.89c1.34,0,1.93,0.92,1.93,2.42v3.67H82.5v-3.45
			c0-0.79-0.23-1.14-0.87-1.14c-0.47,0-0.79,0.22-1.2,0.62v3.97h-1.77V351z"/>
		<path d="M85.65,356.42c0-1.95,1.5-3.12,3.1-3.12c1.83,0,2.8,1.24,2.8,2.86c0,0.32-0.05,0.64-0.07,0.79h-4.51v-1.18h3.32L90,356.1
			c0-0.96-0.42-1.46-1.2-1.46c-0.87,0-1.44,0.59-1.44,1.77c0,1.23,0.67,1.78,1.83,1.78c0.54,0,1.01-0.15,1.53-0.41l0.58,1.06
			c-0.68,0.44-1.56,0.7-2.36,0.7C87.09,359.54,85.65,358.4,85.65,356.42z"/>
		<path d="M93.57,353.45h1.45l0.14,1.3h0.04c0.59-0.97,1.46-1.45,2.41-1.45c0.52,0,0.8,0.09,1.14,0.24l-0.36,1.48
			c-0.37-0.11-0.61-0.17-1.05-0.17c-0.74,0-1.5,0.38-2.01,1.45v3.09h-1.77V353.45z"/>
		<path d="M100.05,356.42c0-1.95,1.5-3.12,3.1-3.12c1.83,0,2.8,1.24,2.8,2.86c0,0.32-0.05,0.64-0.07,0.79h-4.51v-1.18h3.32
			l-0.28,0.34c0-0.96-0.42-1.46-1.2-1.46c-0.87,0-1.44,0.59-1.44,1.77c0,1.23,0.67,1.78,1.83,1.78c0.54,0,1.01-0.15,1.53-0.41
			l0.58,1.06c-0.68,0.44-1.56,0.7-2.36,0.7C101.49,359.54,100.05,358.4,100.05,356.42z"/>
		<path d="M114.42,358.63l0.75-1.1c0.73,0.45,1.55,0.71,2.4,0.71c0.65,0,0.94-0.22,0.94-0.51c0-0.33-0.29-0.45-1.46-0.7
			c-1.62-0.35-2.26-0.94-2.26-1.86c0-1.11,1.04-1.86,2.73-1.86c1.06,0,1.96,0.42,2.58,0.81l-0.79,1.06
			c-0.6-0.36-1.29-0.57-1.95-0.57c-0.55,0-0.82,0.2-0.82,0.48c0,0.33,0.37,0.41,1.37,0.63c1.84,0.41,2.35,0.94,2.35,1.9
			c0,1.08-1.03,1.92-2.94,1.92C116.27,359.54,115.18,359.13,114.42,358.63z"/>
		<path d="M121.85,351h1.77v2.05l-0.1,1.14h0.04c0.44-0.46,1.08-0.89,1.97-0.89c1.34,0,1.93,0.92,1.93,2.42v3.67h-1.77v-3.45
			c0-0.79-0.23-1.14-0.87-1.14c-0.47,0-0.79,0.22-1.2,0.62v3.97h-1.77V351z"/>
		<path d="M128.75,356.43c0-1.98,1.46-3.12,3.03-3.12s3.03,1.14,3.03,3.12c0,1.97-1.46,3.12-3.03,3.12S128.75,358.4,128.75,356.43z
			 M133.01,356.43c0-1.03-0.41-1.7-1.23-1.7s-1.23,0.67-1.23,1.7c0,1.03,0.42,1.69,1.23,1.69S133.01,357.46,133.01,356.43z"/>
		<path d="M136.13,357.12v-3.67h1.77v3.45c0,0.79,0.21,1.14,0.87,1.14c0.44,0,0.75-0.16,1.15-0.68v-3.91h1.77v5.95h-1.44l-0.13-0.86
			h-0.05c-0.53,0.61-1.15,1-2.01,1C136.71,359.54,136.13,358.62,136.13,357.12z"/>
		<path d="M145.05,357.07v-4.69h-1.87V351h3.64v6.15c0,0.73,0.47,0.97,0.97,0.97c0.27,0,0.57-0.06,0.93-0.2l0.39,1.3
			c-0.62,0.2-1.04,0.32-1.78,0.32C145.83,359.54,145.05,358.58,145.05,357.07z"/>
		<path d="M150.35,356.43c0-1.95,1.25-3.12,2.54-3.12c0.65,0,1.1,0.23,1.5,0.64h0.04l-0.08-0.92V351h1.77v8.4h-1.44l-0.13-0.61
			h-0.04c-0.44,0.43-1.05,0.76-1.65,0.76C151.34,359.54,150.35,358.37,150.35,356.43z M154.35,357.54v-2.4
			c-0.32-0.29-0.65-0.39-1-0.39c-0.64,0-1.2,0.53-1.2,1.66c0,1.17,0.43,1.69,1.15,1.69C153.71,358.1,154.05,357.95,154.35,357.54z"
			/>
		<path d="M164.23,353.45h1.71l0.37,2.76c0.07,0.59,0.12,1.16,0.19,1.76h0.04c0.06-0.6,0.15-1.2,0.27-1.76l0.37-1.97h1.28l0.38,1.97
			c0.11,0.59,0.22,1.16,0.3,1.76h0.05c0.08-0.6,0.1-1.18,0.17-1.76l0.33-2.76h1.64l-0.92,5.95h-2.07l-0.33-1.93
			c-0.08-0.51-0.15-1.08-0.22-1.76h-0.05c-0.05,0.5-0.11,1.02-0.2,1.76l-0.32,1.93h-2.03L164.23,353.45z"/>
		<path d="M172.05,356.42c0-1.95,1.5-3.12,3.09-3.12c1.83,0,2.8,1.24,2.8,2.86c0,0.32-0.05,0.64-0.07,0.79h-4.51v-1.18h3.32
			l-0.28,0.34c0-0.96-0.42-1.46-1.2-1.46c-0.87,0-1.44,0.59-1.44,1.77c0,1.23,0.67,1.78,1.83,1.78c0.54,0,1-0.15,1.53-0.41
			l0.58,1.06c-0.68,0.44-1.56,0.7-2.36,0.7C173.49,359.54,172.05,358.4,172.05,356.42z"/>
		<path d="M186.45,356.42c0-1.95,1.5-3.12,3.09-3.12c1.83,0,2.8,1.24,2.8,2.86c0,0.32-0.05,0.64-0.07,0.79h-4.51v-1.18h3.32
			l-0.28,0.34c0-0.96-0.42-1.46-1.2-1.46c-0.87,0-1.44,0.59-1.44,1.77c0,1.23,0.67,1.78,1.83,1.78c0.54,0,1-0.15,1.53-0.41
			l0.58,1.06c-0.68,0.44-1.56,0.7-2.36,0.7C187.89,359.54,186.45,358.4,186.45,356.42z"/>
		<path d="M193.72,357.75c0-1.33,1.1-2.01,3.91-2.18c-0.06-0.53-0.46-0.86-1.26-0.86c-0.57,0-1.14,0.22-1.81,0.56l-0.63-1.16
			c0.82-0.47,1.77-0.8,2.78-0.8c1.67,0,2.69,0.87,2.69,2.69v3.4h-1.44l-0.13-0.67h-0.04c-0.6,0.45-1.35,0.81-2.11,0.81
			C194.48,359.54,193.72,358.75,193.72,357.75z M197.64,357.61v-0.97c-1.75,0.09-2.22,0.47-2.22,0.97c0,0.38,0.32,0.57,0.82,0.57
			C196.77,358.18,197.22,357.93,197.64,357.61z"/>
		<path d="M202.28,356.93v-2.1h-1.5v-1.31l1.58-0.07l0.23-1.82h1.46v1.82h2.51v1.38h-2.51v2.08c0,0.91,0.38,1.25,1.25,1.25
			c0.44,0,0.82-0.09,1.17-0.21l0.32,1.28c-0.53,0.16-1.15,0.32-1.94,0.32C202.95,359.54,202.28,358.49,202.28,356.93z"/>
		<path d="M216.68,356.93v-2.1h-1.5v-1.31l1.58-0.07l0.23-1.82h1.46v1.82h2.51v1.38h-2.51v2.08c0,0.91,0.38,1.25,1.25,1.25
			c0.44,0,0.82-0.09,1.17-0.21l0.32,1.28c-0.53,0.16-1.15,0.32-1.94,0.32C217.35,359.54,216.68,358.49,216.68,356.93z"/>
		<path d="M222.35,356.43c0-1.98,1.46-3.12,3.03-3.12c1.57,0,3.03,1.14,3.03,3.12c0,1.97-1.46,3.12-3.03,3.12
			C223.82,359.54,222.35,358.4,222.35,356.43z M226.61,356.43c0-1.03-0.42-1.7-1.23-1.7s-1.23,0.67-1.23,1.7
			c0,1.03,0.41,1.69,1.23,1.69S226.61,357.46,226.61,356.43z"/>
		<path d="M229.85,353.45h1.44l0.13,0.79h0.05c0.52-0.51,1.17-0.94,2.06-0.94c1.34,0,1.94,0.92,1.94,2.42v3.67h-1.77v-3.45
			c0-0.79-0.23-1.14-0.87-1.14c-0.47,0-0.79,0.22-1.2,0.62v3.97h-1.77V353.45z"/>
		<path d="M239.52,354.83h-2.4v-1.38h4.16v5.95h-1.77V354.83z M239.15,351.44c0-0.65,0.49-1.1,1.17-1.1c0.68,0,1.17,0.45,1.17,1.1
			c0,0.65-0.49,1.08-1.17,1.08C239.65,352.52,239.15,352.09,239.15,351.44z"/>
		<path d="M244.01,360.41c0-0.49,0.32-0.88,0.92-1.19v-0.05c-0.33-0.2-0.6-0.51-0.6-1.01c0-0.4,0.29-0.83,0.71-1.12v-0.05
			c-0.44-0.29-0.79-0.83-0.79-1.53c0-1.43,1.2-2.16,2.55-2.16c0.35,0,0.69,0.05,0.98,0.14h2.42v1.3H249
			c0.13,0.18,0.26,0.47,0.26,0.78c0,1.37-1.07,1.99-2.45,1.99c-0.24,0-0.52-0.04-0.82-0.12c-0.18,0.13-0.26,0.24-0.26,0.44
			c0,0.32,0.31,0.45,1.01,0.45h1.1c1.56,0,2.42,0.44,2.42,1.51c0,1.24-1.38,2.14-3.55,2.14
			C245.16,361.93,244.01,361.47,244.01,360.41z M248.57,360.09c0-0.38-0.37-0.46-1.05-0.46h-0.75c-0.43,0-0.69-0.02-0.91-0.08
			c-0.3,0.19-0.42,0.37-0.42,0.58c0,0.45,0.58,0.68,1.51,0.68C247.92,360.81,248.57,360.5,248.57,360.09z M247.71,355.46
			c0-0.62-0.41-0.97-0.9-0.97c-0.49,0-0.89,0.34-0.89,0.97c0,0.65,0.4,0.99,0.89,0.99C247.3,356.45,247.71,356.11,247.71,355.46z"/>
		<path d="M251.45,351h1.77v2.05l-0.1,1.14h0.04c0.44-0.46,1.08-0.89,1.97-0.89c1.34,0,1.93,0.92,1.93,2.42v3.67h-1.77v-3.45
			c0-0.79-0.23-1.14-0.87-1.14c-0.47,0-0.79,0.22-1.2,0.62v3.97h-1.77V351z"/>
		<path d="M259.88,356.93v-2.1h-1.5v-1.31l1.58-0.07l0.23-1.82h1.46v1.82h2.51v1.38h-2.51v2.08c0,0.91,0.38,1.25,1.25,1.25
			c0.44,0,0.82-0.09,1.17-0.21l0.32,1.28c-0.53,0.16-1.15,0.32-1.94,0.32C260.55,359.54,259.88,358.49,259.88,356.93z"/>
		<path d="M269.26,353.4c0-0.49-0.39-0.75-0.89-0.75c-0.5,0-0.86,0.23-1.23,0.55l-0.98-0.89c0.57-0.64,1.38-1.08,2.33-1.08
			c1.37,0,2.46,0.64,2.46,1.96c0,1.58-1.95,1.78-1.81,3.16h-1.54C267.34,354.74,269.26,354.29,269.26,353.4z M267.22,358.32
			c0-0.71,0.51-1.2,1.2-1.2c0.69,0,1.2,0.49,1.2,1.2c0,0.71-0.51,1.22-1.2,1.22C267.73,359.54,267.22,359.04,267.22,358.32z"/>
		<path d="M273.01,354.99c0.89-0.41,1.35-0.99,1.35-1.82l-0.08-1.14l0.71,0.98c-0.22,0.19-0.58,0.35-0.88,0.35
			c-0.64,0-1.09-0.44-1.09-1.1c0-0.73,0.48-1.21,1.15-1.21c0.9,0,1.41,0.71,1.41,1.92c0,1.3-0.7,2.32-2.1,2.96L273.01,354.99z
			 M276.2,354.99c0.89-0.41,1.35-0.99,1.35-1.82l-0.08-1.14l0.71,0.98c-0.22,0.19-0.58,0.35-0.88,0.35c-0.64,0-1.09-0.44-1.09-1.1
			c0-0.73,0.48-1.21,1.15-1.21c0.89,0,1.41,0.71,1.41,1.92c0,1.3-0.7,2.32-2.1,2.96L276.2,354.99z"/>
		<path d="M49.83,369.22h5.52v1.25h-5.52V369.22z"/>
		<path d="M64,368.4c0-1.3,0.7-2.32,2.1-2.96l0.46,0.93c-0.89,0.4-1.34,0.99-1.34,1.82l0.07,1.14l-0.71-0.98
			c0.22-0.19,0.58-0.35,0.89-0.35c0.64,0,1.09,0.44,1.09,1.1c0,0.73-0.48,1.21-1.15,1.21C64.51,370.32,64,369.61,64,368.4z
			 M67.19,368.4c0-1.3,0.7-2.32,2.1-2.96l0.46,0.93c-0.89,0.4-1.34,0.99-1.34,1.82l0.07,1.14l-0.71-0.98
			c0.22-0.19,0.58-0.35,0.89-0.35c0.64,0,1.09,0.44,1.09,1.1c0,0.73-0.48,1.21-1.15,1.21C67.71,370.32,67.19,369.61,67.19,368.4z"/>
		<path d="M71.48,372.32h1.82v-4.85h-1.82v-1.48h5.42v1.48h-1.83v4.85h1.83v1.48h-5.42V372.32z"/>
		<path d="M85.03,367.85h1.71l0.37,2.76c0.07,0.59,0.12,1.16,0.19,1.76h0.04c0.06-0.6,0.15-1.2,0.28-1.76l0.37-1.97h1.28l0.38,1.97
			c0.11,0.59,0.22,1.16,0.3,1.76H90c0.08-0.6,0.1-1.18,0.17-1.76l0.33-2.76h1.64l-0.92,5.95h-2.07l-0.33-1.93
			c-0.08-0.51-0.15-1.08-0.22-1.76h-0.05c-0.05,0.5-0.11,1.02-0.2,1.76l-0.32,1.93h-2.03L85.03,367.85z"/>
		<path d="M92.92,372.15c0-1.33,1.1-2.01,3.91-2.18c-0.06-0.53-0.46-0.86-1.26-0.86c-0.57,0-1.14,0.22-1.81,0.56l-0.63-1.16
			c0.82-0.47,1.77-0.8,2.78-0.8c1.67,0,2.69,0.87,2.69,2.69v3.4h-1.44l-0.13-0.67h-0.04c-0.6,0.45-1.35,0.81-2.11,0.81
			C93.68,373.94,92.92,373.15,92.92,372.15z M96.84,372.01v-0.97c-1.75,0.09-2.22,0.47-2.22,0.97c0,0.38,0.32,0.57,0.82,0.57
			C95.97,372.58,96.42,372.33,96.84,372.01z"/>
		<path d="M100.02,373.03l0.75-1.1c0.73,0.45,1.55,0.71,2.4,0.71c0.65,0,0.94-0.22,0.94-0.51c0-0.33-0.29-0.45-1.46-0.7
			c-1.62-0.35-2.26-0.94-2.26-1.86c0-1.11,1.04-1.86,2.73-1.86c1.06,0,1.96,0.42,2.58,0.81l-0.79,1.06
			c-0.6-0.36-1.29-0.57-1.95-0.57c-0.55,0-0.82,0.2-0.82,0.48c0,0.33,0.37,0.41,1.37,0.63c1.84,0.41,2.35,0.94,2.35,1.9
			c0,1.08-1.03,1.92-2.94,1.92C101.87,373.94,100.78,373.53,100.02,373.03z"/>
		<path d="M117.13,369.23h-2.4v-1.38h4.16v5.95h-1.77V369.23z M116.76,365.84c0-0.65,0.49-1.1,1.17-1.1s1.17,0.45,1.17,1.1
			c0,0.65-0.49,1.08-1.17,1.08S116.76,366.49,116.76,365.84z"/>
		<path d="M121.85,367.85h1.44l0.13,0.79h0.05c0.52-0.51,1.17-0.94,2.06-0.94c1.34,0,1.94,0.92,1.94,2.42v3.67h-1.77v-3.45
			c0-0.79-0.23-1.14-0.87-1.14c-0.47,0-0.79,0.22-1.2,0.62v3.97h-1.77V367.85z"/>
		<path d="M136.67,365.98h1.77v6.33h3.48v1.48h-5.24V365.98z"/>
		<path d="M145.13,365.98h2.12l2.43,7.81h-1.88l-1.01-3.96c-0.2-0.78-0.44-1.7-0.62-2.52h-0.05c-0.19,0.82-0.41,1.74-0.61,2.52
			l-1.02,3.96h-1.81L145.13,365.98z M144.3,370.56h3.74v1.38h-3.74V370.56z"/>
		<path d="M159.45,371.47v-4.69h-1.87v-1.38h3.64v6.15c0,0.73,0.47,0.97,0.97,0.97c0.28,0,0.57-0.06,0.93-0.2l0.39,1.3
			c-0.62,0.2-1.04,0.32-1.78,0.32C160.23,373.94,159.45,372.98,159.45,371.47z"/>
		<path d="M164.92,372.15c0-1.33,1.1-2.01,3.91-2.18c-0.06-0.53-0.46-0.86-1.26-0.86c-0.57,0-1.14,0.22-1.81,0.56l-0.63-1.16
			c0.82-0.47,1.77-0.8,2.78-0.8c1.67,0,2.69,0.87,2.69,2.69v3.4h-1.44l-0.13-0.67h-0.04c-0.6,0.45-1.35,0.81-2.11,0.81
			C165.68,373.94,164.92,373.15,164.92,372.15z M168.84,372.01v-0.97c-1.75,0.09-2.22,0.47-2.22,0.97c0,0.38,0.32,0.57,0.82,0.57
			C167.97,372.58,168.42,372.33,168.84,372.01z"/>
		<path d="M172.02,373.03l0.75-1.1c0.73,0.45,1.55,0.71,2.4,0.71c0.65,0,0.94-0.22,0.94-0.51c0-0.33-0.29-0.45-1.46-0.7
			c-1.62-0.35-2.26-0.94-2.26-1.86c0-1.11,1.04-1.86,2.73-1.86c1.06,0,1.96,0.42,2.58,0.81l-0.79,1.06
			c-0.6-0.36-1.29-0.57-1.95-0.57c-0.55,0-0.82,0.2-0.82,0.48c0,0.33,0.37,0.41,1.37,0.63c1.84,0.41,2.35,0.94,2.35,1.9
			c0,1.08-1.03,1.92-2.94,1.92C173.87,373.94,172.77,373.53,172.02,373.03z"/>
		<path d="M180.68,371.33v-2.1h-1.5v-1.31l1.58-0.07l0.23-1.82h1.46v1.82h2.51v1.38h-2.51v2.08c0,0.91,0.38,1.25,1.25,1.25
			c0.44,0,0.82-0.09,1.17-0.21l0.32,1.28c-0.53,0.16-1.15,0.32-1.94,0.32C181.35,373.94,180.68,372.89,180.68,371.33z"/>
		<path d="M193.41,367.85h1.33l0.13,0.73h0.04c0.22-0.48,0.6-0.88,1.29-0.88c0.52,0,0.89,0.34,1.03,0.97
			c0.21-0.54,0.63-0.97,1.32-0.97c0.85,0,1.33,0.73,1.33,1.92v4.17h-1.68v-4.05c0-0.37-0.09-0.54-0.32-0.54
			c-0.23,0-0.38,0.19-0.55,0.58v4.01h-1.38v-4.05c0-0.37-0.11-0.54-0.34-0.54c-0.22,0-0.37,0.19-0.53,0.58v4.01h-1.68V367.85z"/>
		<path d="M200.75,370.83c0-1.98,1.46-3.12,3.03-3.12c1.57,0,3.03,1.14,3.03,3.12c0,1.97-1.46,3.12-3.03,3.12
			C202.22,373.94,200.75,372.8,200.75,370.83z M205.01,370.83c0-1.03-0.42-1.7-1.23-1.7s-1.23,0.67-1.23,1.7
			c0,1.03,0.41,1.69,1.23,1.69S205.01,371.86,205.01,370.83z"/>
		<path d="M208.25,367.85h1.44l0.13,0.79h0.05c0.52-0.51,1.17-0.94,2.06-0.94c1.34,0,1.94,0.92,1.94,2.42v3.67h-1.77v-3.45
			c0-0.79-0.23-1.14-0.87-1.14c-0.47,0-0.79,0.22-1.2,0.62v3.97h-1.77V367.85z"/>
		<path d="M216.68,371.33v-2.1h-1.5v-1.31l1.58-0.07l0.23-1.82h1.46v1.82h2.51v1.38h-2.51v2.08c0,0.91,0.38,1.25,1.25,1.25
			c0.44,0,0.82-0.09,1.17-0.21l0.32,1.28c-0.53,0.16-1.15,0.32-1.94,0.32C217.35,373.94,216.68,372.89,216.68,371.33z"/>
		<path d="M222.65,365.4h1.77v2.05l-0.1,1.14h0.04c0.44-0.46,1.08-0.89,1.97-0.89c1.34,0,1.93,0.92,1.93,2.42v3.67h-1.77v-3.45
			c0-0.79-0.23-1.14-0.87-1.14c-0.47,0-0.79,0.22-1.2,0.62v3.97h-1.77V365.4z"/>
		<path d="M238.28,371.33v-2.1h-1.5v-1.31l1.58-0.07l0.23-1.82h1.46v1.82h2.51v1.38h-2.51v2.08c0,0.91,0.38,1.25,1.25,1.25
			c0.44,0,0.82-0.09,1.17-0.21l0.32,1.28c-0.53,0.16-1.15,0.32-1.94,0.32C238.95,373.94,238.28,372.89,238.28,371.33z"/>
		<path d="M243.95,370.83c0-1.98,1.46-3.12,3.03-3.12c1.57,0,3.03,1.14,3.03,3.12c0,1.97-1.46,3.12-3.03,3.12
			C245.42,373.94,243.95,372.8,243.95,370.83z M248.21,370.83c0-1.03-0.42-1.7-1.23-1.7s-1.23,0.67-1.23,1.7
			c0,1.03,0.41,1.69,1.23,1.69S248.21,371.86,248.21,370.83z"/>
		<path d="M251.15,370.83c0-1.98,1.46-3.12,3.03-3.12c1.57,0,3.03,1.14,3.03,3.12c0,1.97-1.46,3.12-3.03,3.12
			C252.62,373.94,251.15,372.8,251.15,370.83z M255.41,370.83c0-1.03-0.42-1.7-1.23-1.7s-1.23,0.67-1.23,1.7
			c0,1.03,0.41,1.69,1.23,1.69S255.41,371.86,255.41,370.83z"/>
		<path d="M260.19,372.72c0-0.71,0.51-1.2,1.2-1.2s1.2,0.49,1.2,1.2c0,0.71-0.51,1.22-1.2,1.22S260.19,373.44,260.19,372.72z
			 M260.56,367.36l-0.06-1.6h1.76l-0.06,1.6l-0.25,3.38h-1.16L260.56,367.36z"/>
		<path d="M265.81,369.39c0.89-0.41,1.35-0.99,1.35-1.82l-0.08-1.14l0.71,0.98c-0.22,0.19-0.58,0.35-0.88,0.35
			c-0.64,0-1.09-0.44-1.09-1.1c0-0.73,0.48-1.21,1.15-1.21c0.9,0,1.41,0.71,1.41,1.92c0,1.3-0.7,2.32-2.1,2.96L265.81,369.39z
			 M269,369.39c0.89-0.41,1.35-0.99,1.35-1.82l-0.08-1.14l0.71,0.98c-0.22,0.19-0.58,0.35-0.88,0.35c-0.64,0-1.09-0.44-1.09-1.1
			c0-0.73,0.48-1.21,1.15-1.21c0.89,0,1.41,0.71,1.41,1.92c0,1.3-0.7,2.32-2.1,2.96L269,369.39z"/>
	</g>
</g>
<g>
	<g>
		<path d="M293.83,380.24h1.44l0.13,0.61h0.04c0.48-0.44,1.13-0.75,1.77-0.75c1.49,0,2.38,1.19,2.38,3.03
			c0,2.04-1.25,3.21-2.58,3.21c-0.52,0-1.04-0.23-1.46-0.64h-0.04l0.08,0.96v1.74h-1.77V380.24z M297.79,383.14
			c0-1.07-0.35-1.6-1.1-1.6c-0.38,0-0.73,0.16-1.1,0.55v2.4c0.33,0.29,0.71,0.39,1.02,0.39
			C297.27,384.89,297.79,384.37,297.79,383.14z"/>
		<path d="M301.12,384.76h2.05v-4.4h-1.69v-1.1c1.03-0.15,1.57-0.34,2.16-0.69h1.3v6.19h1.73v1.42h-5.55V384.76z"/>
	</g>
</g>
<line class="st9" x1="310.32" y1="357.4" x2="274.55" y2="393.44"/>
</svg>
