<?xml version="1.0" encoding="utf-8"?>
<!-- Generator: Adobe Illustrator 25.4.1, SVG Export Plug-In . SVG Version: 6.00 Build 0)  -->
<svg version="1.1" id="Layer_1" xmlns="http://www.w3.org/2000/svg" xmlns:xlink="http://www.w3.org/1999/xlink" x="0px" y="0px"
	 viewBox="0 0 127.6 42.5" style="enable-background:new 0 0 127.6 42.5;" xml:space="preserve">
<style type="text/css">
	.st0{fill:#DBADB0;stroke:#000000;stroke-width:3;stroke-linecap:round;stroke-miterlimit:10;}
	.st1{fill:none;stroke:#000000;stroke-width:3;stroke-linecap:round;stroke-miterlimit:10;}
	.st2{fill:#DBADB0;stroke:#000000;stroke-width:3;stroke-linecap:round;stroke-linejoin:round;stroke-miterlimit:10;}
	.st3{fill:none;stroke:#000000;stroke-width:3;stroke-linecap:round;stroke-linejoin:round;stroke-miterlimit:10;}
	.st4{fill:#FFFFFF;stroke:#000000;stroke-width:3;stroke-linecap:round;stroke-miterlimit:10;}
</style>
<path class="st0" d="M55.2,26.8C51.8,16,46.9,7.8,37.1,7.8c-3,0-6.6-0.3-11.3,2.9s-9.2,2.2-9.2,6.2s5.6,9.8,12.1,9.1
	c7.7-0.9,11.9,9.6,11.9,9.6"/>
<path class="st1" d="M5.7,7.2c0,0,50.8-5.8,50.8,14.5S5.7,37.5,5.7,37.5"/>
<path class="st0" d="M120,27c0.6-3.5-4.7-17.1-9.7-13.1s-10.4,3.1-14.2,3.1h-0.6c-3.8,0-9.2-0.1-14.2-4.1S71.1,23.4,71.7,27"/>
<path class="st2" d="M106.6,14.9c-5.5-3-10.4-2.9-10.4-2.9l0,0c0,0-4.9,0.1-10.4,2.9c0,0,5.2,1.8,10.4,1.8S106.6,14.9,106.6,14.9z"
	/>
<g>
	<path class="st3" d="M96.1,37.6c0,0,25.4-0.8,25.4-15.2S96.1,7.2,96.1,7.2h-0.6c0,0-25.4,0.8-25.4,15.2s25.4,15.2,25.4,15.2
		L96.1,37.6L96.1,37.6z"/>
</g>
<path class="st2" d="M120,25c-7.8,9.2-16.6,6.1-23.8,6.1h-0.6c-7.3,0-16.1,3-23.8-6.1"/>
<path class="st4" d="M25.7,19.6c1.5,1.7,13.3,10.9,16.7,9.8"/>
<path class="st0" d="M77.5,32c0,0,15.1-0.9,18.6-0.9s19.2,0.9,19.2,0.9s-6.9,5.7-19.2,5.7S77.5,32,77.5,32z"/>
</svg>
